# Blender 5.2.0 LTS
# www.blender.org
o D1
v 6.000000 -17.651951 -7.771637
v 6.000000 -18.800003 -8.000000
v 6.000000 -4.800003 -49.000000
v 6.000000 -4.800003 -49.000000
v 6.000000 -18.800003 -8.000000
v 6.000000 -25.200001 -8.000000
v 6.000000 -4.800003 -49.000000
v 6.000000 -25.200001 -8.000000
v 6.000000 -26.348053 -7.771637
v 6.000000 -4.800003 -49.000000
v 6.000000 -26.348053 -7.771637
v 6.000000 -75.970001 -49.000000
v 6.000000 -75.970001 -49.000000
v 6.000000 -26.348053 -7.771637
v 6.000000 -27.321323 -7.121319
v 6.000000 -75.970001 -49.000000
v 6.000000 -27.321323 -7.121319
v 6.000000 -27.971642 -6.148048
v 6.000000 -27.971642 -6.148048
v 6.000000 -28.200001 -5.000000
v 6.000000 -75.970001 -49.000000
v 6.000000 -75.970001 -49.000000
v 6.000000 -28.200001 -5.000000
v 6.000000 -28.200001 5.000000
v 6.000000 -75.970001 -49.000000
v 6.000000 -28.200001 5.000000
v 6.000000 -75.970001 54.938004
v 6.000000 -75.970001 54.938004
v 6.000000 -28.200001 5.000000
v 6.000000 -27.971642 6.148048
v 6.000000 -75.970001 54.938004
v 6.000000 -27.971642 6.148048
v 6.000000 -27.321323 7.121319
v 6.000000 -27.321323 7.121319
v 6.000000 -26.348053 7.771637
v 6.000000 -75.970001 54.938004
v 6.000000 -75.970001 54.938004
v 6.000000 -26.348053 7.771637
v 6.000000 -4.800003 54.938004
v 6.000000 -4.800003 54.938004
v 6.000000 -26.348053 7.771637
v 6.000000 -25.200001 8.000000
v 6.000000 -4.800003 54.938004
v 6.000000 -25.200001 8.000000
v 6.000000 -18.800003 8.000000
v 6.000000 -18.800003 8.000000
v 6.000000 -17.651951 7.771637
v 6.000000 -4.800003 54.938004
v 6.000000 -4.800003 54.938004
v 6.000000 -17.651951 7.771637
v 6.000000 -16.678680 7.121319
v 6.000000 -4.800003 54.938004
v 6.000000 -16.678680 7.121319
v 6.000000 -16.028362 6.148048
v 6.000000 -16.028362 6.148048
v 6.000000 -15.800003 5.000000
v 6.000000 -4.800003 54.938004
v 6.000000 -4.800003 54.938004
v 6.000000 -15.800003 5.000000
v 6.000000 -4.800003 -49.000000
v 6.000000 -4.800003 -49.000000
v 6.000000 -15.800003 5.000000
v 6.000000 -15.800003 -5.000000
v 6.000000 -4.800003 -49.000000
v 6.000000 -15.800003 -5.000000
v 6.000000 -16.028362 -6.148048
v 6.000000 -16.028362 -6.148048
v 6.000000 -16.678680 -7.121319
v 6.000000 -4.800003 -49.000000
v 6.000000 -4.800003 -49.000000
v 6.000000 -16.678680 -7.121319
v 6.000000 -17.651951 -7.771637
v -6.000000 -4.800003 -49.000000
v -6.000000 -15.800003 5.000000
v -6.000000 -4.800003 54.938004
v -6.000000 -4.800003 54.938004
v -6.000000 -15.800003 5.000000
v -6.000000 -16.028362 6.148048
v -6.000000 -4.800003 54.938004
v -6.000000 -16.028362 6.148048
v -6.000000 -16.678680 7.121319
v -6.000000 -75.970001 -49.000000
v -6.000000 -26.348053 -7.771637
v -6.000000 -4.800003 -49.000000
v -6.000000 -4.800003 -49.000000
v -6.000000 -26.348053 -7.771637
v -6.000000 -25.200001 -8.000000
v -6.000000 -4.800003 -49.000000
v -6.000000 -25.200001 -8.000000
v -6.000000 -18.800003 -8.000000
v -6.000000 -75.970001 54.938004
v -6.000000 -28.200001 5.000000
v -6.000000 -75.970001 -49.000000
v -6.000000 -75.970001 -49.000000
v -6.000000 -28.200001 5.000000
v -6.000000 -28.200001 -5.000000
v -6.000000 -75.970001 -49.000000
v -6.000000 -28.200001 -5.000000
v -6.000000 -27.971642 -6.148048
v -6.000000 -4.800003 54.938004
v -6.000000 -26.348053 7.771637
v -6.000000 -75.970001 54.938004
v -6.000000 -75.970001 54.938004
v -6.000000 -26.348053 7.771637
v -6.000000 -27.321323 7.121319
v -6.000000 -75.970001 54.938004
v -6.000000 -27.321323 7.121319
v -6.000000 -27.971642 6.148048
v -6.000000 -16.028362 -6.148048
v -6.000000 -15.800003 -5.000000
v -6.000000 -4.800003 -49.000000
v -6.000000 -4.800003 -49.000000
v -6.000000 -15.800003 -5.000000
v -6.000000 -15.800003 5.000000
v -6.000000 -16.678680 7.121319
v -6.000000 -17.651951 7.771637
v -6.000000 -4.800003 54.938004
v -6.000000 -4.800003 54.938004
v -6.000000 -17.651951 7.771637
v -6.000000 -18.800003 8.000000
v -6.000000 -4.800003 54.938004
v -6.000000 -18.800003 8.000000
v -6.000000 -25.200001 8.000000
v -6.000000 -25.200001 8.000000
v -6.000000 -26.348053 7.771637
v -6.000000 -4.800003 54.938004
v -6.000000 -27.971642 6.148048
v -6.000000 -28.200001 5.000000
v -6.000000 -75.970001 54.938004
v -6.000000 -27.971642 -6.148048
v -6.000000 -27.321323 -7.121319
v -6.000000 -75.970001 -49.000000
v -6.000000 -75.970001 -49.000000
v -6.000000 -27.321323 -7.121319
v -6.000000 -26.348053 -7.771637
v -6.000000 -18.800003 -8.000000
v -6.000000 -17.651951 -7.771637
v -6.000000 -4.800003 -49.000000
v -6.000000 -4.800003 -49.000000
v -6.000000 -17.651951 -7.771637
v -6.000000 -16.678680 -7.121319
v -6.000000 -4.800003 -49.000000
v -6.000000 -16.678680 -7.121319
v -6.000000 -16.028362 -6.148048
vn 1.0000 -0.0000 -0.0000
vn -1.0000 -0.0000 -0.0000
vt 0.565589 0.272440
vt 0.562614 0.272837
vt 0.562614 0.161741
vt 0.457925 0.161741
vt 0.472618 0.271861
vt 0.457925 0.279172
vt 0.551589 0.161741
vt 0.553927 0.279149
vt 0.551589 0.281031
vt 0.457925 0.000000
vt 0.577215 0.000000
vt 0.542459 0.161741
vt 0.652627 0.782110
vt 0.652627 0.616676
vt 0.655505 0.617530
vt 0.646777 0.781672
vt 0.643805 0.617094
vt 0.646777 0.616676
vt 0.662983 0.618240
vt 0.665546 0.616676
vt 0.665546 0.783216
vt 0.154901 0.740006
vt 0.137911 0.574335
vt 0.154901 0.555128
vt 0.000000 -0.000000
vt 0.122496 0.138471
vt 0.000000 0.266527
vt 0.655505 0.793886
vt 0.655505 0.616676
vt 0.657963 0.618399
vt 0.768082 0.781924
vt 0.768082 0.606419
vt 0.771021 0.607029
vt 0.637949 0.617336
vt 0.640877 0.616676
vt 0.640877 0.792232
vt 0.204465 0.442082
vt 0.204465 0.266527
vt 0.330198 0.309803
vt 0.667980 0.616676
vt 0.667980 0.749648
vt 0.665545 0.747892
vt 0.352793 0.594601
vt 0.352793 0.725840
vt 0.337742 0.719298
vt 0.577215 0.287344
vt 0.574226 0.287063
vt 0.577215 0.161741
vt 0.568414 0.161741
vt 0.571238 0.287067
vt 0.568414 0.288084
vt 0.335317 0.266527
vt 0.337501 0.392850
vt 0.335317 0.394908
vt 0.839586 0.826950
vt 0.838381 0.829700
vt 0.838381 0.698574
vt 0.542764 0.471102
vt 0.570972 0.599157
vt 0.542764 0.737629
vt 0.335317 0.266527
vt 0.335317 0.407842
vt 0.330198 0.382715
vt 0.840044 0.000000
vt 0.840044 0.116301
vt 0.838762 0.113587
vt 0.549251 0.275336
vt 0.547006 0.273344
vt 0.549251 0.161741
vt 0.559639 0.161741
vt 0.559639 0.273367
vt 0.556783 0.272443
vt 0.731072 0.000000
vt 0.759279 0.138471
vt 0.731072 0.266527
vt 0.787699 0.698580
vt 0.787699 0.829705
vt 0.786494 0.826956
vt 0.672599 0.616676
vt 0.672599 0.745058
vt 0.670414 0.743000
vt 0.587146 0.471102
vt 0.481425 0.343857
vt 0.587146 0.288602
vt 0.549251 0.279149
vt 0.487311 0.161741
vt 0.487311 0.279172
vt 0.472618 0.271861
vt 0.122496 -0.000000
vt 0.244992 0.128055
vt 0.122496 0.266527
vt 0.120921 0.740006
vt 0.120921 0.555128
vt 0.137911 0.574335
vt 0.660421 0.783216
vt 0.660421 0.616676
vt 0.662983 0.618240
vt 0.355692 0.331879
vt 0.481425 0.288602
vt 0.481425 0.464157
vt 0.640877 0.792232
vt 0.640877 0.616676
vt 0.643805 0.617336
vt 0.637949 0.792181
vt 0.635010 0.617286
vt 0.637949 0.616676
vt 0.840868 0.812162
vt 0.839586 0.814875
vt 0.839586 0.698574
vt 0.629891 0.616676
vt 0.635010 0.732865
vt 0.629891 0.757991
vt 0.568414 0.288084
vt 0.565589 0.287067
vt 0.568414 0.161741
vt 0.571238 0.161741
vt 0.571238 0.287344
vt 0.587146 0.616676
vt 0.602197 0.741373
vt 0.587146 0.747915
vt 0.670414 0.747892
vt 0.657963 0.618399
vt 0.660421 0.616676
vt 0.660421 0.793886
vt 0.646778 0.616676
vt 0.649750 0.617095
vt 0.646778 0.781672
vt 0.652627 0.782110
vt 0.649750 0.617530
vt 0.652627 0.616676
vt 0.562614 0.272837
vt 0.559639 0.272440
vt 0.562614 0.161741
vt 0.553927 0.161741
vt 0.556783 0.272443
vt 0.553927 0.273367
vt 0.544760 0.161741
vt 0.547006 0.273344
vt 0.544760 0.275336
s 0
f 1/1/1 2/2/1 3/3/1
f 4/4/1 5/5/1 6/6/1
f 7/7/1 8/8/1 9/9/1
f 10/10/1 11/11/1 12/12/1
f 13/13/1 14/14/1 15/15/1
f 16/16/1 17/17/1 18/18/1
f 19/19/1 20/20/1 21/21/1
f 22/22/1 23/23/1 24/24/1
f 25/25/1 26/26/1 27/27/1
f 28/28/1 29/29/1 30/30/1
f 31/31/1 32/32/1 33/33/1
f 34/34/1 35/35/1 36/36/1
f 37/37/1 38/38/1 39/39/1
f 40/40/1 41/41/1 42/42/1
f 43/43/1 44/44/1 45/45/1
f 46/46/1 47/47/1 48/48/1
f 49/49/1 50/50/1 51/51/1
f 52/52/1 53/53/1 54/54/1
f 55/55/1 56/56/1 57/57/1
f 58/58/1 59/59/1 60/60/1
f 61/61/1 62/62/1 63/63/1
f 64/64/1 65/65/1 66/66/1
f 67/67/1 68/68/1 69/69/1
f 70/70/1 71/71/1 72/72/1
f 73/73/2 74/74/2 75/75/2
f 76/76/2 77/77/2 78/78/2
f 79/79/2 80/80/2 81/81/2
f 82/82/2 83/83/2 84/84/2
f 85/7/2 86/9/2 87/85/2
f 88/86/2 89/87/2 90/88/2
f 91/89/2 92/90/2 93/91/2
f 94/92/2 95/93/2 96/94/2
f 97/95/2 98/96/2 99/97/2
f 100/98/2 101/99/2 102/100/2
f 103/101/2 104/102/2 105/103/2
f 106/104/2 107/105/2 108/106/2
f 109/107/2 110/108/2 111/109/2
f 112/110/2 113/111/2 114/112/2
f 115/113/2 116/114/2 117/115/2
f 118/116/2 119/47/2 120/117/2
f 121/118/2 122/119/2 123/120/2
f 124/121/2 125/41/2 126/40/2
f 127/122/2 128/123/2 129/124/2
f 130/125/2 131/126/2 132/127/2
f 133/128/2 134/129/2 135/130/2
f 136/131/2 137/132/2 138/133/2
f 139/134/2 140/135/2 141/136/2
f 142/137/2 143/138/2 144/139/2
