# Blender 5.2.0 LTS
# www.blender.org
o D1
v 6.000000 -17.651951 -7.771637
v 6.000000 -18.800003 -8.000000
v 6.000000 -4.800003 -49.000000
v 6.000000 -4.800003 -49.000000
v 6.000000 -18.800003 -8.000000
v 6.000000 -25.200001 -8.000000
v 6.000000 -4.800003 -49.000000
v 6.000000 -25.200001 -8.000000
v 6.000000 -26.348053 -7.771637
v 6.000000 -4.800003 -49.000000
v 6.000000 -26.348053 -7.771637
v 6.000000 -75.970001 -49.000000
v 6.000000 -75.970001 -49.000000
v 6.000000 -26.348053 -7.771637
v 6.000000 -27.321323 -7.121319
v 6.000000 -75.970001 -49.000000
v 6.000000 -27.321323 -7.121319
v 6.000000 -27.971642 -6.148048
v 6.000000 -27.971642 -6.148048
v 6.000000 -28.200001 -5.000000
v 6.000000 -75.970001 -49.000000
v 6.000000 -75.970001 -49.000000
v 6.000000 -28.200001 -5.000000
v 6.000000 -28.200001 5.000000
v 6.000000 -75.970001 -49.000000
v 6.000000 -28.200001 5.000000
v 6.000000 -75.970001 54.938004
v 6.000000 -75.970001 54.938004
v 6.000000 -28.200001 5.000000
v 6.000000 -27.971642 6.148048
v 6.000000 -75.970001 54.938004
v 6.000000 -27.971642 6.148048
v 6.000000 -27.321323 7.121319
v 6.000000 -27.321323 7.121319
v 6.000000 -26.348053 7.771637
v 6.000000 -75.970001 54.938004
v 6.000000 -75.970001 54.938004
v 6.000000 -26.348053 7.771637
v 6.000000 -4.800003 54.938004
v 6.000000 -4.800003 54.938004
v 6.000000 -26.348053 7.771637
v 6.000000 -25.200001 8.000000
v 6.000000 -4.800003 54.938004
v 6.000000 -25.200001 8.000000
v 6.000000 -18.800003 8.000000
v 6.000000 -18.800003 8.000000
v 6.000000 -17.651951 7.771637
v 6.000000 -4.800003 54.938004
v 6.000000 -4.800003 54.938004
v 6.000000 -17.651951 7.771637
v 6.000000 -16.678680 7.121319
v 6.000000 -4.800003 54.938004
v 6.000000 -16.678680 7.121319
v 6.000000 -16.028362 6.148048
v 6.000000 -16.028362 6.148048
v 6.000000 -15.800003 5.000000
v 6.000000 -4.800003 54.938004
v 6.000000 -4.800003 54.938004
v 6.000000 -15.800003 5.000000
v 6.000000 -4.800003 -49.000000
v 6.000000 -4.800003 -49.000000
v 6.000000 -15.800003 5.000000
v 6.000000 -15.800003 -5.000000
v 6.000000 -4.800003 -49.000000
v 6.000000 -15.800003 -5.000000
v 6.000000 -16.028362 -6.148048
v 6.000000 -16.028362 -6.148048
v 6.000000 -16.678680 -7.121319
v 6.000000 -4.800003 -49.000000
v 6.000000 -4.800003 -49.000000
v 6.000000 -16.678680 -7.121319
v 6.000000 -17.651951 -7.771637
v -6.000000 -4.800003 -49.000000
v -6.000000 -15.800003 5.000000
v -6.000000 -4.800003 54.938004
v -6.000000 -4.800003 54.938004
v -6.000000 -15.800003 5.000000
v -6.000000 -16.028362 6.148048
v -6.000000 -4.800003 54.938004
v -6.000000 -16.028362 6.148048
v -6.000000 -16.678680 7.121319
v -6.000000 -75.970001 -49.000000
v -6.000000 -26.348053 -7.771637
v -6.000000 -4.800003 -49.000000
v -6.000000 -4.800003 -49.000000
v -6.000000 -26.348053 -7.771637
v -6.000000 -25.200001 -8.000000
v -6.000000 -4.800003 -49.000000
v -6.000000 -25.200001 -8.000000
v -6.000000 -18.800003 -8.000000
v -6.000000 -75.970001 54.938004
v -6.000000 -28.200001 5.000000
v -6.000000 -75.970001 -49.000000
v -6.000000 -75.970001 -49.000000
v -6.000000 -28.200001 5.000000
v -6.000000 -28.200001 -5.000000
v -6.000000 -75.970001 -49.000000
v -6.000000 -28.200001 -5.000000
v -6.000000 -27.971642 -6.148048
v -6.000000 -4.800003 54.938004
v -6.000000 -26.348053 7.771637
v -6.000000 -75.970001 54.938004
v -6.000000 -75.970001 54.938004
v -6.000000 -26.348053 7.771637
v -6.000000 -27.321323 7.121319
v -6.000000 -75.970001 54.938004
v -6.000000 -27.321323 7.121319
v -6.000000 -27.971642 6.148048
v -6.000000 -16.028362 -6.148048
v -6.000000 -15.800003 -5.000000
v -6.000000 -4.800003 -49.000000
v -6.000000 -4.800003 -49.000000
v -6.000000 -15.800003 -5.000000
v -6.000000 -15.800003 5.000000
v -6.000000 -16.678680 7.121319
v -6.000000 -17.651951 7.771637
v -6.000000 -4.800003 54.938004
v -6.000000 -4.800003 54.938004
v -6.000000 -17.651951 7.771637
v -6.000000 -18.800003 8.000000
v -6.000000 -4.800003 54.938004
v -6.000000 -18.800003 8.000000
v -6.000000 -25.200001 8.000000
v -6.000000 -25.200001 8.000000
v -6.000000 -26.348053 7.771637
v -6.000000 -4.800003 54.938004
v -6.000000 -27.971642 6.148048
v -6.000000 -28.200001 5.000000
v -6.000000 -75.970001 54.938004
v -6.000000 -27.971642 -6.148048
v -6.000000 -27.321323 -7.121319
v -6.000000 -75.970001 -49.000000
v -6.000000 -75.970001 -49.000000
v -6.000000 -27.321323 -7.121319
v -6.000000 -26.348053 -7.771637
v -6.000000 -18.800003 -8.000000
v -6.000000 -17.651951 -7.771637
v -6.000000 -4.800003 -49.000000
v -6.000000 -4.800003 -49.000000
v -6.000000 -17.651951 -7.771637
v -6.000000 -16.678680 -7.121319
v -6.000000 -4.800003 -49.000000
v -6.000000 -16.678680 -7.121319
v -6.000000 -16.028362 -6.148048
vn 1.0000 -0.0000 -0.0000
vn -1.0000 -0.0000 -0.0000
vt 0.599741 0.573536
vt 0.601840 0.562981
vt 0.978781 0.691692
vt 0.601840 0.504141
vt 0.599741 0.493586
vt 0.978781 0.037379
vt 0.593762 0.484639
vt 0.584814 0.478660
vt 0.574259 0.476560
vt 0.482323 0.476560
vt 0.023209 0.037379
vt 0.471768 0.478660
vt 0.000995 0.022168
vt 0.470409 0.483966
vt 0.461045 0.490223
vt 0.454788 0.499587
vt 0.456841 0.493586
vt 0.023209 0.691692
vt 0.454742 0.504141
vt 0.454742 0.562981
vt 0.456841 0.573536
vt 0.462820 0.582484
vt 0.471768 0.588462
vt 0.482323 0.590562
vt 0.574259 0.590562
vt 0.584814 0.588462
vt 0.593762 0.582484
vt 0.462820 0.484639
s 0
f 1/1/1 2/2/1 3/3/1
f 4/3/1 5/2/1 6/4/1
f 7/3/1 8/4/1 9/5/1
f 10/3/1 11/5/1 12/6/1
f 13/6/1 14/5/1 15/7/1
f 16/6/1 17/7/1 18/8/1
f 19/8/1 20/9/1 21/6/1
f 22/6/1 23/9/1 24/10/1
f 25/6/1 26/10/1 27/11/1
f 28/11/1 29/10/1 30/12/1
f 31/13/1 32/14/1 33/15/1
f 34/15/1 35/16/1 36/13/1
f 37/11/1 38/17/1 39/18/1
f 40/18/1 41/17/1 42/19/1
f 43/18/1 44/19/1 45/20/1
f 46/20/1 47/21/1 48/18/1
f 49/18/1 50/21/1 51/22/1
f 52/18/1 53/22/1 54/23/1
f 55/23/1 56/24/1 57/18/1
f 58/18/1 59/24/1 60/3/1
f 61/3/1 62/24/1 63/25/1
f 64/3/1 65/25/1 66/26/1
f 67/26/1 68/27/1 69/3/1
f 70/3/1 71/27/1 72/1/1
f 73/3/2 74/24/2 75/18/2
f 76/18/2 77/24/2 78/23/2
f 79/18/2 80/23/2 81/22/2
f 82/6/2 83/5/2 84/3/2
f 85/3/2 86/5/2 87/4/2
f 88/3/2 89/4/2 90/2/2
f 91/11/2 92/10/2 93/6/2
f 94/6/2 95/10/2 96/9/2
f 97/6/2 98/9/2 99/8/2
f 100/18/2 101/17/2 102/11/2
f 103/11/2 104/17/2 105/28/2
f 106/11/2 107/28/2 108/12/2
f 109/26/2 110/25/2 111/3/2
f 112/3/2 113/25/2 114/24/2
f 115/22/2 116/21/2 117/18/2
f 118/18/2 119/21/2 120/20/2
f 121/18/2 122/20/2 123/19/2
f 124/19/2 125/17/2 126/18/2
f 127/12/2 128/10/2 129/11/2
f 130/8/2 131/7/2 132/6/2
f 133/6/2 134/7/2 135/5/2
f 136/2/2 137/1/2 138/3/2
f 139/3/2 140/1/2 141/27/2
f 142/3/2 143/27/2 144/26/2
