# Blender 5.2.0 LTS
# www.blender.org
o D1
v 6.000000 -17.651951 -7.771637
v 6.000000 -18.800003 -8.000000
v 6.000000 -4.800003 -49.000000
v 6.000000 -4.800003 -49.000000
v 6.000000 -18.800003 -8.000000
v 6.000000 -25.200001 -8.000000
v 6.000000 -4.800003 -49.000000
v 6.000000 -25.200001 -8.000000
v 6.000000 -26.348053 -7.771637
v 6.000000 -4.800003 -49.000000
v 6.000000 -26.348053 -7.771637
v 6.000000 -75.970001 -49.000000
v 6.000000 -75.970001 -49.000000
v 6.000000 -26.348053 -7.771637
v 6.000000 -27.321323 -7.121319
v 6.000000 -75.970001 -49.000000
v 6.000000 -27.321323 -7.121319
v 6.000000 -27.971642 -6.148048
v 6.000000 -27.971642 -6.148048
v 6.000000 -28.200001 -5.000000
v 6.000000 -75.970001 -49.000000
v 6.000000 -75.970001 -49.000000
v 6.000000 -28.200001 -5.000000
v 6.000000 -28.200001 5.000000
v 6.000000 -75.970001 -49.000000
v 6.000000 -28.200001 5.000000
v 6.000000 -75.970001 54.938004
v 6.000000 -75.970001 54.938004
v 6.000000 -28.200001 5.000000
v 6.000000 -27.971642 6.148048
v 6.000000 -75.970001 54.938004
v 6.000000 -27.971642 6.148048
v 6.000000 -27.321323 7.121319
v 6.000000 -27.321323 7.121319
v 6.000000 -26.348053 7.771637
v 6.000000 -75.970001 54.938004
v 6.000000 -75.970001 54.938004
v 6.000000 -26.348053 7.771637
v 6.000000 -4.800003 54.938004
v 6.000000 -4.800003 54.938004
v 6.000000 -26.348053 7.771637
v 6.000000 -25.200001 8.000000
v 6.000000 -4.800003 54.938004
v 6.000000 -25.200001 8.000000
v 6.000000 -18.800003 8.000000
v 6.000000 -18.800003 8.000000
v 6.000000 -17.651951 7.771637
v 6.000000 -4.800003 54.938004
v 6.000000 -4.800003 54.938004
v 6.000000 -17.651951 7.771637
v 6.000000 -16.678680 7.121319
v 6.000000 -4.800003 54.938004
v 6.000000 -16.678680 7.121319
v 6.000000 -16.028362 6.148048
v 6.000000 -16.028362 6.148048
v 6.000000 -15.800003 5.000000
v 6.000000 -4.800003 54.938004
v 6.000000 -4.800003 54.938004
v 6.000000 -15.800003 5.000000
v 6.000000 -4.800003 -49.000000
v 6.000000 -4.800003 -49.000000
v 6.000000 -15.800003 5.000000
v 6.000000 -15.800003 -5.000000
v 6.000000 -4.800003 -49.000000
v 6.000000 -15.800003 -5.000000
v 6.000000 -16.028362 -6.148048
v 6.000000 -16.028362 -6.148048
v 6.000000 -16.678680 -7.121319
v 6.000000 -4.800003 -49.000000
v 6.000000 -4.800003 -49.000000
v 6.000000 -16.678680 -7.121319
v 6.000000 -17.651951 -7.771637
v -6.000000 -4.800003 -49.000000
v -6.000000 -15.800003 5.000000
v -6.000000 -4.800003 54.938004
v -6.000000 -4.800003 54.938004
v -6.000000 -15.800003 5.000000
v -6.000000 -16.028362 6.148048
v -6.000000 -4.800003 54.938004
v -6.000000 -16.028362 6.148048
v -6.000000 -16.678680 7.121319
v -6.000000 -75.970001 -49.000000
v -6.000000 -26.348053 -7.771637
v -6.000000 -4.800003 -49.000000
v -6.000000 -4.800003 -49.000000
v -6.000000 -26.348053 -7.771637
v -6.000000 -25.200001 -8.000000
v -6.000000 -4.800003 -49.000000
v -6.000000 -25.200001 -8.000000
v -6.000000 -18.800003 -8.000000
v -6.000000 -75.970001 54.938004
v -6.000000 -28.200001 5.000000
v -6.000000 -75.970001 -49.000000
v -6.000000 -75.970001 -49.000000
v -6.000000 -28.200001 5.000000
v -6.000000 -28.200001 -5.000000
v -6.000000 -75.970001 -49.000000
v -6.000000 -28.200001 -5.000000
v -6.000000 -27.971642 -6.148048
v -6.000000 -4.800003 54.938004
v -6.000000 -26.348053 7.771637
v -6.000000 -75.970001 54.938004
v -6.000000 -75.970001 54.938004
v -6.000000 -26.348053 7.771637
v -6.000000 -27.321323 7.121319
v -6.000000 -75.970001 54.938004
v -6.000000 -27.321323 7.121319
v -6.000000 -27.971642 6.148048
v -6.000000 -16.028362 -6.148048
v -6.000000 -15.800003 -5.000000
v -6.000000 -4.800003 -49.000000
v -6.000000 -4.800003 -49.000000
v -6.000000 -15.800003 -5.000000
v -6.000000 -15.800003 5.000000
v -6.000000 -16.678680 7.121319
v -6.000000 -17.651951 7.771637
v -6.000000 -4.800003 54.938004
v -6.000000 -4.800003 54.938004
v -6.000000 -17.651951 7.771637
v -6.000000 -18.800003 8.000000
v -6.000000 -4.800003 54.938004
v -6.000000 -18.800003 8.000000
v -6.000000 -25.200001 8.000000
v -6.000000 -25.200001 8.000000
v -6.000000 -26.348053 7.771637
v -6.000000 -4.800003 54.938004
v -6.000000 -27.971642 6.148048
v -6.000000 -28.200001 5.000000
v -6.000000 -75.970001 54.938004
v -6.000000 -27.971642 -6.148048
v -6.000000 -27.321323 -7.121319
v -6.000000 -75.970001 -49.000000
v -6.000000 -75.970001 -49.000000
v -6.000000 -27.321323 -7.121319
v -6.000000 -26.348053 -7.771637
v -6.000000 -18.800003 -8.000000
v -6.000000 -17.651951 -7.771637
v -6.000000 -4.800003 -49.000000
v -6.000000 -4.800003 -49.000000
v -6.000000 -17.651951 -7.771637
v -6.000000 -16.678680 -7.121319
v -6.000000 -4.800003 -49.000000
v -6.000000 -16.678680 -7.121319
v -6.000000 -16.028362 -6.148048
vn 1.0000 -0.0000 -0.0000
vn -1.0000 -0.0000 -0.0000
vt 0.676665 0.801970
vt 0.681059 0.779879
vt 1.469991 1.049271
vt 0.681059 0.656729
vt 0.676665 0.634638
vt 1.469991 -0.320200
vt 0.664151 0.615910
vt 0.645423 0.603396
vt 0.623332 0.599002
vt 0.430910 0.599002
vt -0.530009 -0.320200
vt 0.408819 0.603396
vt 0.390091 0.615910
vt 0.377578 0.634638
vt -0.530009 1.049271
vt 0.373183 0.656729
vt 0.373183 0.779879
vt 0.377578 0.801970
vt 0.390091 0.820698
vt 0.408819 0.833212
vt 0.430910 0.837606
vt 0.623332 0.837606
vt 0.645423 0.833212
vt 0.664151 0.820698
s 0
f 1/1/1 2/2/1 3/3/1
f 4/3/1 5/2/1 6/4/1
f 7/3/1 8/4/1 9/5/1
f 10/3/1 11/5/1 12/6/1
f 13/6/1 14/5/1 15/7/1
f 16/6/1 17/7/1 18/8/1
f 19/8/1 20/9/1 21/6/1
f 22/6/1 23/9/1 24/10/1
f 25/6/1 26/10/1 27/11/1
f 28/11/1 29/10/1 30/12/1
f 31/11/1 32/12/1 33/13/1
f 34/13/1 35/14/1 36/11/1
f 37/11/1 38/14/1 39/15/1
f 40/15/1 41/14/1 42/16/1
f 43/15/1 44/16/1 45/17/1
f 46/17/1 47/18/1 48/15/1
f 49/15/1 50/18/1 51/19/1
f 52/15/1 53/19/1 54/20/1
f 55/20/1 56/21/1 57/15/1
f 58/15/1 59/21/1 60/3/1
f 61/3/1 62/21/1 63/22/1
f 64/3/1 65/22/1 66/23/1
f 67/23/1 68/24/1 69/3/1
f 70/3/1 71/24/1 72/1/1
f 73/3/2 74/21/2 75/15/2
f 76/15/2 77/21/2 78/20/2
f 79/15/2 80/20/2 81/19/2
f 82/6/2 83/5/2 84/3/2
f 85/3/2 86/5/2 87/4/2
f 88/3/2 89/4/2 90/2/2
f 91/11/2 92/10/2 93/6/2
f 94/6/2 95/10/2 96/9/2
f 97/6/2 98/9/2 99/8/2
f 100/15/2 101/14/2 102/11/2
f 103/11/2 104/14/2 105/13/2
f 106/11/2 107/13/2 108/12/2
f 109/23/2 110/22/2 111/3/2
f 112/3/2 113/22/2 114/21/2
f 115/19/2 116/18/2 117/15/2
f 118/15/2 119/18/2 120/17/2
f 121/15/2 122/17/2 123/16/2
f 124/16/2 125/14/2 126/15/2
f 127/12/2 128/10/2 129/11/2
f 130/8/2 131/7/2 132/6/2
f 133/6/2 134/7/2 135/5/2
f 136/2/2 137/1/2 138/3/2
f 139/3/2 140/1/2 141/24/2
f 142/3/2 143/24/2 144/23/2
