# Blender 5.1.2
# www.blender.org
o Plane007
v -6.204164 1.175304 -0.175629
v -6.173317 1.261775 -0.175629
v -6.133763 1.228178 -0.226997
v -6.141320 1.097889 -0.226997
v -4.420949 -0.247190 -0.226997
v -4.382123 -0.283473 -0.175629
v -4.469480 -0.338873 -0.175629
v -4.512719 -0.304939 -0.226997
v -6.107553 0.482128 -0.175629
v -6.050892 0.449058 -0.226997
v -6.073421 0.386881 -0.175629
v -5.265408 -0.830782 -0.175621
v -5.336394 -0.814001 -0.175621
v -5.292397 -0.786809 -0.226989
v -5.720466 1.681323 -0.175629
v -5.634512 1.697903 -0.175629
v -5.409764 1.554993 -0.226997
v -5.681038 1.647612 -0.226997
v -3.767268 0.174329 -0.226997
v -3.728339 0.136636 -0.175629
v -3.817248 0.083977 -0.175629
v -3.860569 0.117340 -0.226997
v -2.888748 0.631774 -0.175629
v -2.886334 0.588701 -0.175629
v -2.964262 0.605453 -0.226997
v -5.383024 1.532517 -0.226997
v -5.302087 1.464478 -0.226997
v -5.350038 1.369373 -0.226997
v -5.430978 1.437413 -0.226997
v -5.028725 1.234696 -0.226997
v -5.075674 1.138744 -0.226997
v -5.156846 1.206979 -0.226997
v -5.109898 1.302927 -0.226997
v -5.727838 -0.176197 -0.175629
v -5.781818 -0.088246 -0.175629
v -5.759779 -0.025273 -0.226997
v -5.696038 -0.129136 -0.226997
v -6.006895 0.278486 -0.175629
v -5.984169 0.340334 -0.226997
v -5.920901 0.237248 -0.226997
v -5.952915 0.190535 -0.175629
v -5.354233 1.589077 -0.175629
v -5.270376 1.607812 -0.175629
v -5.215313 1.590778 -0.226997
v -5.281545 1.505208 -0.226997
v -5.377923 1.542630 -0.226997
v -4.935155 1.426354 -0.175629
v -4.957856 1.379528 -0.226997
v -5.054129 1.416908 -0.226997
v -4.994520 1.505049 -0.226997
v -4.945439 1.480516 -0.175629
v -5.765440 0.774113 -0.226997
v -5.717348 0.869490 -0.226997
v -5.636996 0.800280 -0.226997
v -5.685092 0.704905 -0.226997
v -5.405699 0.464245 -0.226997
v -5.486295 0.533669 -0.226997
v -5.439205 0.629906 -0.226997
v -5.358611 0.560487 -0.226997
v -4.714170 2.029307 -0.226989
v -4.825318 1.996675 -0.226997
v -4.860428 2.034480 -0.175629
v -4.773185 2.076235 -0.175625
v -4.636383 1.945755 -0.226997
v -4.586714 1.869547 -0.175625
v -4.625644 1.782202 -0.175621
v -4.660756 1.819915 -0.226993
v -4.644809 2.073901 -0.226993
v -4.742564 2.026881 -0.226997
v -4.773185 2.076235 -0.175625
v -4.680414 2.111656 -0.175621
v -4.578800 2.003000 -0.226993
v -4.543731 1.964843 -0.175629
v -4.586413 1.882012 -0.175625
v -4.637162 1.913666 -0.226989
v -3.222574 3.107377 -0.226993
v -3.323419 3.063672 -0.226993
v -3.358488 3.101829 -0.175629
v -3.267653 3.147778 -0.175629
v -3.161947 3.042257 -0.226993
v -3.129726 2.995737 -0.175625
v -3.221806 2.955016 -0.175621
v -3.257411 2.992771 -0.226993
v -2.970125 3.159492 -0.226993
v -3.073146 3.152497 -0.226993
v -3.078982 3.204746 -0.175621
v -2.978545 3.212905 -0.175621
v -2.958607 3.067110 -0.226997
v -2.953417 3.014481 -0.175629
v -3.055289 3.009980 -0.175625
v -3.061790 3.061419 -0.226993
v -0.706414 2.866876 -0.226997
v -0.874458 2.881899 -0.226997
v -0.778406 2.921471 -0.175629
v -0.677681 2.928617 -0.175629
v -0.825747 2.790570 -0.226997
v -0.869328 2.762705 -0.175625
v -0.948250 2.811411 -0.175629
v -0.909365 2.859575 -0.226997
v -0.103286 3.028285 -0.226997
v -0.423370 2.946086 -0.226997
v -0.153424 3.075332 -0.175629
v -0.059757 3.062515 -0.175629
v -0.729257 2.628012 -0.226993
v -0.773269 2.600269 -0.175621
v -0.823282 2.690365 -0.175625
v -0.779703 2.718235 -0.226993
v 0.524827 2.661941 -0.175629
v 0.449232 2.692516 -0.226997
v 0.530124 2.704041 -0.175629
v -0.580934 2.316933 -0.175629
v -0.652514 2.348131 -0.175629
v -0.602922 2.364231 -0.226997
v -6.204164 1.175304 0.227442
v -6.141320 1.097889 0.278810
v -6.133763 1.228178 0.278810
v -6.173317 1.261775 0.227442
v -4.420949 -0.247190 0.278810
v -4.512719 -0.304939 0.278810
v -4.469480 -0.338873 0.227442
v -4.382123 -0.283473 0.227442
v -6.107555 0.482125 0.227442
v -6.073421 0.386881 0.227442
v -6.050892 0.449058 0.278810
v -5.265408 -0.830782 0.227434
v -5.292397 -0.786809 0.278802
v -5.336394 -0.814001 0.227434
v -5.720466 1.681323 0.227442
v -5.681038 1.647612 0.278810
v -5.409764 1.554993 0.278810
v -5.634512 1.697903 0.227442
v -3.767268 0.174329 0.278810
v -3.860569 0.117340 0.278810
v -3.817248 0.083977 0.227442
v -3.728339 0.136636 0.227442
v -2.888748 0.631774 0.227442
v -2.964262 0.605453 0.278810
v -2.886334 0.588701 0.227442
v -5.383024 1.532517 0.278810
v -5.430978 1.437413 0.278810
v -5.350038 1.369373 0.278810
v -5.302087 1.464478 0.278810
v -5.028725 1.234696 0.278810
v -5.109898 1.302927 0.278810
v -5.156846 1.206979 0.278810
v -5.075674 1.138744 0.278810
v -5.727838 -0.176197 0.227442
v -5.696038 -0.129136 0.278810
v -5.759779 -0.025273 0.278810
v -5.781818 -0.088246 0.227442
v -6.006895 0.278486 0.227442
v -5.952915 0.190535 0.227442
v -5.920901 0.237248 0.278810
v -5.984169 0.340334 0.278810
v -5.354233 1.589077 0.227442
v -5.377923 1.542630 0.278810
v -5.281545 1.505208 0.278810
v -5.215313 1.590778 0.278810
v -5.270376 1.607812 0.227442
v -4.935155 1.426354 0.227442
v -4.945438 1.480520 0.227442
v -4.994520 1.505049 0.278810
v -5.054129 1.416908 0.278810
v -4.957856 1.379528 0.278810
v -5.765440 0.774113 0.278810
v -5.685092 0.704905 0.278810
v -5.636996 0.800280 0.278810
v -5.717348 0.869490 0.278810
v -5.405699 0.464245 0.278810
v -5.358611 0.560487 0.278810
v -5.439205 0.629906 0.278810
v -5.486295 0.533669 0.278810
v -4.714170 2.029307 0.278802
v -4.773185 2.076235 0.227438
v -4.860428 2.034480 0.227442
v -4.825318 1.996675 0.278810
v -4.636383 1.945755 0.278810
v -4.660756 1.819915 0.278806
v -4.625644 1.782202 0.227434
v -4.586714 1.869547 0.227438
v -4.644809 2.073901 0.278806
v -4.680414 2.111656 0.227434
v -4.773185 2.076235 0.227438
v -4.742564 2.026881 0.278810
v -4.578800 2.003000 0.278806
v -4.637162 1.913666 0.278802
v -4.586413 1.882012 0.227438
v -4.543731 1.964843 0.227442
v -3.222574 3.107377 0.278806
v -3.267653 3.147778 0.227442
v -3.358488 3.101829 0.227442
v -3.323419 3.063672 0.278806
v -3.161947 3.042257 0.278806
v -3.257411 2.992771 0.278806
v -3.221806 2.955016 0.227434
v -3.129726 2.995737 0.227438
v -2.970125 3.159492 0.278806
v -2.978545 3.212905 0.227434
v -3.078982 3.204746 0.227434
v -3.073146 3.152497 0.278806
v -2.958607 3.067110 0.278806
v -3.061790 3.061419 0.278806
v -3.055290 3.009976 0.227438
v -2.953417 3.014481 0.227442
v -0.706414 2.866876 0.278810
v -0.677681 2.928617 0.227442
v -0.778406 2.921471 0.227442
v -0.874458 2.881899 0.278810
v -0.825747 2.790570 0.278806
v -0.909365 2.859575 0.278810
v -0.948250 2.811411 0.227442
v -0.869328 2.762705 0.227438
v -0.103286 3.028285 0.278810
v -0.059757 3.062515 0.227442
v -0.153424 3.075332 0.227442
v -0.423370 2.946086 0.278810
v -0.729257 2.628012 0.278802
v -0.779703 2.718235 0.278806
v -0.823282 2.690365 0.227438
v -0.773269 2.600269 0.227434
v 0.524827 2.661941 0.227442
v 0.530124 2.704041 0.227442
v 0.449232 2.692516 0.278810
v -0.580934 2.316933 0.227442
v -0.602922 2.364231 0.278810
v -0.652514 2.348131 0.227442
v 3.895198 -15.642475 0.270654
v 4.709064 -16.214130 0.270654
v 3.115368 -17.582081 0.270654
v 4.325522 -17.377838 0.270654
v 3.442194 -20.072800 0.270654
v 4.509089 -19.385857 0.270654
v 4.339375 -19.013805 0.270654
v 3.420334 -19.490910 0.270654
v 4.302133 -15.928301 0.357000
v 3.720446 -17.479958 0.357000
v 3.927376 -19.436260 0.357000
v 3.879852 -19.252357 0.357000
v 3.895198 -15.642475 -0.218837
v 4.709064 -16.214130 -0.218837
v 3.115368 -17.582081 -0.218837
v 4.325522 -17.377838 -0.218837
v 3.442194 -20.072800 -0.218837
v 4.509089 -19.385857 -0.218837
v 4.339375 -19.013805 -0.218837
v 3.420334 -19.490910 -0.218837
v 4.302133 -15.928301 -0.305184
v 3.720446 -17.479958 -0.305183
v 3.927376 -19.436260 -0.305183
v 3.879852 -19.252357 -0.305183
v 4.398926 -15.447175 0.357000
v 4.355022 -19.787815 -0.157059
v 4.355022 -19.787815 0.208876
v 4.398926 -15.447175 -0.305184
v 4.150047 -19.941158 0.208876
v 4.150047 -19.941158 -0.157059
v 3.694294 -20.305473 0.208876
v 3.694294 -20.305473 -0.157059
v 4.355022 -19.787815 -0.157059
v 4.355022 -19.787815 0.208876
v 4.150047 -19.941158 0.208876
v 4.150047 -19.941158 -0.157059
v 3.694294 -20.305473 0.208876
v 3.694294 -20.305473 -0.157059
v 4.657189 -20.094189 -0.186690
v 4.657189 -20.094189 0.238507
v 4.535878 -24.937073 -0.147159
v 4.535878 -24.937073 0.198977
v 4.006928 -24.886923 0.332857
v 4.006928 -24.886923 -0.281038
v 3.640346 -24.858347 0.198977
v 3.640346 -24.858347 -0.147159
v 3.738145 -23.896776 -0.147159
v 3.738145 -23.896776 0.198977
v 4.040976 -23.937630 -0.281038
v 4.466399 -23.949167 -0.147159
v 4.040976 -23.937630 0.332857
v 4.466399 -23.949167 0.198977
v 3.816567 -20.926456 0.198976
v 4.153909 -20.788715 0.332856
v 4.644574 -20.597824 0.198976
v 3.816567 -20.926456 -0.147159
v 4.153909 -20.788715 -0.281039
v 4.644574 -20.597824 -0.147159
v 3.962461 -20.091106 -0.157059
v 3.962461 -20.091106 0.208876
v 3.853651 -21.319546 -0.147159
v 4.137313 -21.251381 -0.281039
v 4.537644 -21.104927 -0.147159
v 3.853651 -21.319546 0.198976
v 4.137313 -21.251381 0.332856
v 4.537644 -21.104927 0.198976
v 4.271403 -24.911999 -0.236446
v 4.271403 -24.911999 0.288264
v 4.253687 -23.943398 0.288264
v 4.253687 -23.943398 -0.236446
v 4.399240 -20.693270 -0.236446
v 4.399240 -20.693270 0.288264
v 4.337478 -21.178154 -0.236446
v 4.337478 -21.178154 0.288264
v 3.823639 -24.872633 -0.236446
v 3.985235 -20.857588 -0.236446
v 3.985235 -20.857588 0.288264
v 3.823639 -24.872633 0.288264
v 3.889560 -23.917202 -0.236446
v 3.889560 -23.917202 0.288264
v 3.995483 -21.285465 -0.236446
v 3.995483 -21.285465 0.288264
vn -0.6796 0.7336 -0.0000
vn -0.8523 -0.5231 -0.0000
vn 0.4730 -0.8810 -0.0000
vn -0.7211 0.6928 -0.0000
vn -0.0000 -0.0000 -1.0000
vn 0.3620 0.9322 -0.0000
vn 0.5404 -0.8414 -0.0000
vn 0.5453 -0.8383 -0.0000
vn -0.3730 -0.9278 -0.0000
vn -0.3731 -0.9278 -0.0000
vn -0.5995 0.8004 -0.0000
vn -0.2891 0.9573 -0.0000
vn 0.1313 0.9913 -0.0000
vn -0.2695 0.9630 -0.0000
vn 0.5193 0.8546 -0.0000
vn -0.0000 -0.0000 1.0000
vn 0.5257 -0.8507 -0.0000
vn 0.5307 -0.8476 -0.0000
vn 0.6862 -0.7274 -0.0000
vn 0.9997 -0.0241 -0.0000
vn 0.5995 -0.8004 -0.0000
vn 0.1879 -0.9822 -0.0000
vn -0.1008 -0.9949 -0.0000
vn -0.8436 -0.5370 -0.0000
vn -0.9019 -0.4319 -0.0000
vn 0.2978 -0.9546 -0.0000
vn -0.6398 0.1134 -0.7602
vn 0.3843 -0.5918 -0.7085
vn 0.3773 -0.5963 -0.7086
vn 0.3714 -0.6000 -0.7086
vn 0.3764 -0.5969 -0.7086
vn -0.7275 -0.2607 -0.6346
vn -0.1874 -0.7927 -0.5801
vn 0.1369 0.6430 -0.7535
vn 0.3636 -0.6042 -0.7090
vn 0.5547 0.0311 -0.8314
vn -0.6006 -0.3686 -0.7095
vn -0.1457 0.5368 -0.8310
vn 0.4593 0.1200 -0.8801
vn -0.2368 0.6318 -0.7381
vn 0.6427 -0.1909 -0.7420
vn -0.2760 0.6380 -0.7188
vn 0.5905 -0.3466 -0.7288
vn -0.2961 0.6331 -0.7152
vn 0.3026 -0.6292 -0.7159
vn -0.0516 0.6926 -0.7194
vn 0.0348 -0.7001 -0.7132
vn 0.0205 0.6993 -0.7145
vn -0.4005 -0.5530 -0.7306
vn -0.1132 0.6752 -0.7289
vn -0.6152 -0.3427 -0.7100
vn 0.5417 -0.0682 -0.8378
vn -0.3315 -0.7605 -0.5584
vn -0.6398 0.1134 0.7602
vn 0.3843 -0.5918 0.7085
vn 0.3764 -0.5969 0.7086
vn 0.3714 -0.6000 0.7086
vn 0.3773 -0.5963 0.7086
vn -0.7275 -0.2607 0.6346
vn -0.1874 -0.7927 0.5801
vn 0.1369 0.6430 0.7535
vn 0.3636 -0.6042 0.7090
vn 0.5547 0.0311 0.8314
vn -0.6006 -0.3686 0.7095
vn -0.1457 0.5368 0.8310
vn 0.4593 0.1200 0.8801
vn -0.2368 0.6318 0.7381
vn 0.6427 -0.1909 0.7420
vn -0.2760 0.6380 0.7188
vn 0.5905 -0.3466 0.7288
vn -0.2961 0.6331 0.7152
vn 0.3026 -0.6292 0.7159
vn -0.0516 0.6926 0.7194
vn 0.0348 -0.7001 0.7132
vn 0.0205 0.6993 0.7145
vn -0.4004 -0.5530 0.7307
vn -0.1132 0.6752 0.7289
vn -0.6152 -0.3427 0.7100
vn 0.5417 -0.0682 0.8378
vn -0.3315 -0.7605 0.5584
vn -0.6991 -0.0974 -0.7084
vn 0.3709 -0.6002 -0.7087
vn -0.4798 0.5179 -0.7082
vn 0.3848 -0.5915 -0.7086
vn 0.2547 0.6560 -0.7105
vn 0.3337 -0.6215 -0.7089
vn 0.2547 0.6559 -0.7106
vn -0.5092 0.4892 -0.7081
vn 0.4845 -0.5136 -0.7082
vn 0.0597 -0.7018 0.7099
vn -0.7059 0.0173 0.7081
vn -0.4231 0.5649 -0.7085
vn 0.4231 -0.5649 -0.7084
vn -0.2037 0.6747 -0.7094
vn 0.1324 -0.6920 -0.7097
vn 0.0924 0.6978 -0.7103
vn -0.0709 -0.7003 -0.7103
vn -0.1899 0.6787 -0.7095
vn -0.5944 -0.3784 -0.7096
vn 0.2099 -0.6728 -0.7094
vn 0.3655 0.6014 -0.7105
vn -0.6358 -0.3045 -0.7092
vn -0.6991 -0.0974 0.7084
vn 0.3709 -0.6002 0.7087
vn -0.4798 0.5179 0.7082
vn 0.3848 -0.5915 0.7086
vn 0.2547 0.6560 0.7105
vn 0.3337 -0.6214 0.7089
vn 0.2547 0.6559 0.7106
vn -0.5092 0.4892 0.7081
vn 0.4845 -0.5136 0.7082
vn 0.0597 -0.7018 -0.7099
vn -0.7058 0.0175 -0.7082
vn -0.4231 0.5649 0.7085
vn 0.4231 -0.5649 0.7084
vn -0.2037 0.6747 0.7094
vn 0.1324 -0.6920 0.7097
vn 0.0924 0.6978 0.7103
vn -0.0709 -0.7003 0.7103
vn -0.1899 0.6787 0.7095
vn -0.5944 -0.3784 0.7096
vn 0.2099 -0.6728 0.7094
vn 0.3655 0.6014 0.7105
vn -0.6358 -0.3045 0.7092
vn -0.9419 0.3360 -0.0000
vn -0.9414 -0.3374 -0.0000
vn -0.2301 -0.9732 -0.0000
vn -0.1894 0.9819 -0.0000
vn 0.5096 -0.8604 -0.0000
vn 0.9984 0.0560 -0.0000
vn -0.2180 0.9759 -0.0000
vn 0.9824 0.1865 -0.0000
vn -0.4317 0.9020 -0.0000
vn 0.9134 -0.4071 -0.0000
vn -0.3567 0.9342 -0.0000
vn 0.8889 -0.4581 -0.0000
vn -0.4514 0.8923 -0.0000
vn 0.4044 -0.9146 -0.0000
vn -0.0810 0.9967 -0.0000
vn 0.0442 -0.9990 -0.0000
vn -0.0708 0.9975 -0.0000
vn -0.5252 -0.8510 -0.0000
vn 0.1356 0.9908 -0.0000
vn -0.8743 -0.4853 -0.0000
vn 0.9922 -0.1248 -0.0000
vn -0.3996 -0.9167 -0.0000
vn -0.9904 -0.1380 -0.0000
vn 0.1728 -0.0445 0.9839
vn 0.1579 -0.0171 0.9873
vn 0.7204 -0.1162 0.6838
vn 0.8203 0.0020 0.5719
vn -0.0118 0.0088 0.9999
vn -0.0288 0.0171 0.9994
vn 0.7512 0.3371 0.5675
vn 0.7010 0.1520 0.6968
vn -0.7952 0.0866 0.6001
vn -0.7469 -0.0740 0.6608
vn -0.1559 0.0275 0.9874
vn -0.9243 -0.0381 0.3799
vn -0.6056 0.5669 0.5584
vn -0.1671 0.0517 0.9846
vn 0.1728 -0.0445 -0.9839
vn 0.8203 0.0020 -0.5719
vn 0.7204 -0.1162 -0.6838
vn 0.1579 -0.0171 -0.9873
vn 0.1517 0.0378 -0.9877
vn 0.7010 0.1520 -0.6968
vn 0.7512 0.3371 -0.5675
vn 0.1477 0.0577 -0.9873
vn -0.7952 0.0866 -0.6001
vn -0.1559 0.0275 -0.9874
vn -0.1591 -0.0176 -0.9871
vn -0.7469 -0.0740 -0.6608
vn -0.1663 -0.0151 -0.9860
vn -0.9243 -0.0381 -0.3799
vn -0.6056 0.5669 -0.5584
vn -0.1671 0.0517 -0.9846
vn 0.4884 -0.8726 -0.0000
vn 0.7953 -0.6062 -0.0000
vn -0.1827 0.0367 -0.9825
vn 0.0863 -0.9963 -0.0000
vn 0.1827 -0.0367 -0.9825
vn 0.6497 -0.5308 0.5441
vn 0.4853 -0.6268 0.6096
vn 0.4853 -0.6268 -0.6096
vn 0.6497 -0.5308 -0.5441
vn 0.7485 -0.3713 0.5495
vn 0.7485 -0.3713 -0.5495
vn 0.9271 0.3749 -0.0000
vn 0.1827 -0.0367 0.9825
vn -0.3615 0.9324 -0.0000
vn -0.1827 0.0367 0.9825
vn 0.4516 -0.6063 0.6546
vn 0.4516 -0.6063 -0.6546
vn -0.6782 -0.7349 -0.0000
vn 0.0690 -0.1855 -0.9802
vn 0.1467 -0.2062 -0.9675
vn 0.1467 -0.2062 0.9675
vn 0.0690 -0.1855 0.9802
vn -0.4045 0.5996 0.6906
vn -0.4045 0.5996 -0.6906
vn -0.4705 0.6095 -0.6381
vn -0.4705 0.6095 0.6381
vn -0.4797 0.6001 0.6401
vn -0.4797 0.6001 -0.6401
vn -0.7815 0.3004 -0.5469
vn -0.7815 0.3004 0.5469
vn -0.8603 0.0598 0.5063
vn -0.8603 0.0598 -0.5063
vn -0.8544 0.0825 -0.5130
vn -0.8544 0.0825 0.5130
vn -0.0448 0.0124 -0.9989
vn -0.0448 0.0124 0.9989
vn 0.7258 0.3123 0.6129
vn 0.7120 0.7022 -0.0000
vn 0.7258 0.3123 -0.6129
vn -0.0944 -0.9955 -0.0000
vn -0.0863 -0.9963 -0.0000
vn -0.0777 -0.9970 -0.0000
vn 0.2865 -0.0011 -0.9581
vn 0.8229 0.0151 -0.5679
vn 0.8406 0.0539 -0.5390
vn 0.2746 0.0077 -0.9615
vn -0.3856 0.0219 0.9224
vn -0.3631 0.0267 0.9314
vn 0.2865 -0.0011 0.9581
vn -0.0385 0.0041 0.9993
vn -0.0295 0.0058 0.9995
vn 0.2746 0.0077 0.9615
vn 0.8229 0.0151 0.5679
vn 0.8406 0.0539 0.5390
vn 0.8200 -0.0958 -0.5643
vn 0.8200 -0.0958 0.5643
vn 0.3000 -0.0223 0.9537
vn -0.0384 -0.0025 0.9993
vn -0.3955 0.0005 0.9185
vn -0.8623 -0.0141 0.5063
vn 0.3000 -0.0223 -0.9537
vn -0.8623 -0.0141 -0.5063
vn -0.8359 -0.1068 -0.5384
vn -0.8359 -0.1068 0.5384
vn 0.8243 -0.1021 -0.5568
vn 0.3034 -0.0448 -0.9518
vn -0.3576 -0.0294 0.9334
vn 0.3034 -0.0448 0.9518
vn 0.8243 -0.1021 0.5568
vn -0.3576 -0.0294 -0.9334
vn -0.3955 0.0005 -0.9185
vn -0.0384 -0.0025 -0.9993
vn -0.0385 0.0041 -0.9993
vn -0.3856 0.0219 -0.9224
vn -0.0295 0.0058 -0.9995
vn -0.3631 0.0267 -0.9314
s 1
usemtl smooth_black
f 15//1 2//1 117//1 128//1
f 11//2 38//2 151//2 123//2
f 20//3 24//3 138//3 135//3
f 62//4 43//4 159//4 175//4
f 41//2 35//2 150//2 152//2
f 4//5 52//5 39//5 10//5
f 32//5 58//5 54//5 28//5
f 42//6 16//6 131//6 155//6
f 50//5 44//5 61//5 67//5
f 6//7 21//8 134//8 121//7
s 0
f 70//9 63//9 174//9 183//10
s 1
f 78//11 71//11 182//11 191//11
f 86//12 79//12 190//12 199//12
f 94//13 87//13 198//13 207//13
f 102//14 95//14 206//14 215//14
f 110//15 103//15 214//15 222//15
f 140//16 129//16 116//16 168//16
f 156//16 130//16 139//16
f 163//16 157//16 142//16 144//16
f 177//5 186//5 184//5 173//5
f 153//16 149//16 172//16 166//16
f 148//16 126//16 119//16 169//16
f 145//16 141//16 167//16 171//16
f 132//16 137//16 164//16 143//16
f 162//16 178//16 176//16 158//16
f 118//16 133//16 146//16 170//16
f 185//16 194//16 192//16 181//16
f 193//16 202//16 200//16 189//16
f 201//16 210//16 208//16 197//16
f 209//16 218//16 216//16 205//16
f 217//16 225//16 223//16 213//16
f 29//5 53//5 3//5 18//5
f 5//5 59//5 31//5 22//5
f 34//2 13//2 127//2 147//2
f 37//5 56//5 8//5 14//5
f 12//17 7//18 120//18 125//17
f 49//5 33//5 27//5 45//5
f 23//6 47//6 160//6 136//6
f 46//5 26//5 17//5
f 40//5 55//5 57//5 36//5
f 19//5 30//5 48//5 25//5
f 51//19 66//19 179//19 161//19
f 64//16 60//16 69//16 75//16
f 65//20 74//20 187//20 180//20
f 72//5 68//5 77//5 83//5
f 73//21 82//21 195//21 188//21
f 80//5 76//5 85//5 91//5
f 81//22 90//22 203//22 196//22
f 88//5 84//5 93//5 99//5
f 89//23 98//23 211//23 204//23
f 96//5 92//5 101//5 107//5
f 97//24 106//24 219//24 212//24
f 104//5 100//5 109//5 113//5
f 115//16 124//16 154//16 165//16
f 105//25 112//25 226//25 220//25
f 111//26 108//26 221//26 224//26
f 1//27 2//27 3//27 4//27
f 5//28 6//29 7//30 8//31
f 9//32 10//32 11//32
f 12//33 13//33 14//33
f 15//34 16//34 17//34 18//34
f 19//35 20//35 21//35 22//35
f 23//36 24//36 25//36
f 26//5 27//5 28//5 29//5
f 30//5 31//5 32//5 33//5
f 34//37 35//37 36//37 37//37
f 38//37 39//37 40//37 41//37
f 42//38 43//38 44//38 45//38 46//38
f 47//39 48//39 49//39 50//39 51//39
f 52//5 53//5 54//5 55//5
f 56//5 57//5 58//5 59//5
f 60//40 61//40 62//40 63//40
f 64//41 65//41 66//41 67//41
f 68//42 69//42 70//42 71//42
f 72//43 73//43 74//43 75//43
f 76//44 77//44 78//44 79//44
f 80//45 81//45 82//45 83//45
f 84//46 85//46 86//46 87//46
f 88//47 89//47 90//47 91//47
f 92//48 93//48 94//48 95//48
f 96//49 97//49 98//49 99//49
f 100//50 101//50 102//50 103//50
f 104//51 105//51 106//51 107//51
f 108//52 109//52 110//52
f 111//53 112//53 113//53
f 114//54 115//54 116//54 117//54
f 118//55 119//56 120//57 121//58
f 122//59 123//59 124//59
f 125//60 126//60 127//60
f 128//61 129//61 130//61 131//61
f 132//62 133//62 134//62 135//62
f 136//63 137//63 138//63
f 139//16 140//16 141//16 142//16
f 143//16 144//16 145//16 146//16
f 147//64 148//64 149//64 150//64
f 151//64 152//64 153//64 154//64
f 155//65 156//65 157//65 158//65 159//65
f 160//66 161//66 162//66 163//66 164//66
f 165//16 166//16 167//16 168//16
f 169//16 170//16 171//16 172//16
f 173//67 174//67 175//67 176//67
f 177//68 178//68 179//68 180//68
f 181//69 182//69 183//69 184//69
f 185//70 186//70 187//70 188//70
f 189//71 190//71 191//71 192//71
f 193//72 194//72 195//72 196//72
f 197//73 198//73 199//73 200//73
f 201//74 202//74 203//74 204//74
f 205//75 206//75 207//75 208//75
f 209//76 210//76 211//76 212//76
f 213//77 214//77 215//77 216//77
f 217//78 218//78 219//78 220//78
f 221//79 222//79 223//79
f 224//80 225//80 226//80
f 9//81 1//81 4//81 10//81
f 59//5 5//5 8//5 56//5
f 7//30 12//82 14//82 8//31
f 38//37 11//37 10//37 39//37
f 30//5 19//5 22//5 31//5
f 2//83 15//83 18//83 3//83
f 21//84 6//29 5//28 22//84
f 17//5 26//5 29//5 18//5
f 47//85 23//85 25//85 48//85
f 24//86 20//86 19//86 25//86
f 27//5 33//5 32//5 28//5
f 13//37 34//37 37//37 14//37
f 35//37 41//37 40//37 36//37
f 16//87 42//87 46//87 17//87
f 44//5 50//5 49//5 45//5
f 3//5 53//5 52//5 4//5
f 54//5 58//5 57//5 55//5
f 28//5 54//5 53//5 29//5
f 31//5 59//5 58//5 32//5
f 45//5 27//5 26//5 46//5
f 48//5 30//5 33//5 49//5
f 55//5 40//5 39//5 52//5
f 56//5 37//5 36//5 57//5
f 60//5 64//5 67//5 61//5
f 43//88 62//88 61//88 44//88
f 66//89 51//89 50//89 67//89
f 68//5 72//5 75//5 69//5
f 63//90 70//90 69//90 60//90
f 74//91 65//91 64//91 75//91
f 76//5 80//5 83//5 77//5
f 71//92 78//92 77//92 68//92
f 82//93 73//93 72//93 83//93
f 84//5 88//5 91//5 85//5
f 79//94 86//94 85//94 76//94
f 90//95 81//95 80//95 91//95
f 92//5 96//5 99//5 93//5
f 87//96 94//96 93//96 84//96
f 98//97 89//97 88//97 99//97
f 100//5 104//5 107//5 101//5
f 95//98 102//98 101//98 92//98
f 106//99 97//99 96//99 107//99
f 108//100 111//100 113//100 109//100
f 103//101 110//101 109//101 100//101
f 112//102 105//102 104//102 113//102
f 124//103 115//103 114//103 122//103
f 169//16 119//16 118//16 170//16
f 119//56 126//104 125//104 120//57
f 154//64 124//64 123//64 151//64
f 146//16 133//16 132//16 143//16
f 116//105 129//105 128//105 117//105
f 133//106 118//55 121//58 134//106
f 129//16 140//16 139//16 130//16
f 164//107 137//107 136//107 160//107
f 137//108 132//108 135//108 138//108
f 141//16 145//16 144//16 142//16
f 126//64 148//64 147//64 127//64
f 149//64 153//64 152//64 150//64
f 130//109 156//109 155//109 131//109
f 157//16 163//16 162//16 158//16
f 115//16 165//16 168//16 116//16
f 166//16 172//16 171//16 167//16
f 140//16 168//16 167//16 141//16
f 145//16 171//16 170//16 146//16
f 156//16 139//16 142//16 157//16
f 163//16 144//16 143//16 164//16
f 165//16 154//16 153//16 166//16
f 172//16 149//16 148//16 169//16
f 176//16 178//16 177//16 173//16
f 158//110 176//110 175//110 159//110
f 178//111 162//111 161//111 179//111
f 184//16 186//16 185//16 181//16
f 173//112 184//112 183//112 174//112
f 186//113 177//113 180//113 187//113
f 192//16 194//16 193//16 189//16
f 181//114 192//114 191//114 182//114
f 194//115 185//115 188//115 195//115
f 200//16 202//16 201//16 197//16
f 189//116 200//116 199//116 190//116
f 202//117 193//117 196//117 203//117
f 208//16 210//16 209//16 205//16
f 197//118 208//118 207//118 198//118
f 210//119 201//119 204//119 211//119
f 216//16 218//16 217//16 213//16
f 205//120 216//120 215//120 206//120
f 218//121 209//121 212//121 219//121
f 223//122 225//122 224//122 221//122
f 213//123 223//123 222//123 214//123
f 225//124 217//124 220//124 226//124
f 1//125 114//125 117//125 2//125
f 6//7 121//7 120//18 7//18
f 11//126 123//126 122//126 9//126
f 12//127 125//127 127//127 13//127
f 15//128 128//128 131//128 16//128
f 20//129 135//129 134//129 21//129
f 23//130 136//130 138//130 24//130
f 34//2 147//2 150//2 35//2
f 41//2 152//2 151//2 38//2
f 42//131 155//131 159//131 43//131
f 51//132 161//132 160//132 47//132
f 62//133 175//133 174//133 63//133
f 65//134 180//134 179//134 66//134
f 70//135 183//135 182//135 71//135
f 73//136 188//136 187//136 74//136
f 78//137 191//137 190//137 79//137
f 81//138 196//138 195//138 82//138
f 86//139 199//139 198//139 87//139
f 89//140 204//140 203//140 90//140
f 94//141 207//141 206//141 95//141
f 97//142 212//142 211//142 98//142
f 102//143 215//143 214//143 103//143
f 105//144 220//144 219//144 106//144
f 110//145 222//145 221//145 108//145
f 111//146 224//146 226//146 112//146
f 1//147 9//147 122//147 114//147
f 235//148 236//149 230//150 228//151
f 238//152 237//153 232//154 233//155
f 236//149 238//152 233//155 230//150
f 229//156 234//157 238//152 236//158
f 234//157 231//159 237//153 238//152
f 227//160 229//156 236//158 235//161
f 247//162 240//163 242//164 248//165
f 250//166 245//167 244//168 249//169
f 248//165 242//164 245//167 250//166
f 241//170 248//171 250//172 246//173
f 246//173 250//172 249//174 243//175
f 239//176 247//177 248//171 241//170
f 237//178 231//179 243//179 249//178
f 247//177 239//176 254//180
f 231//159 234//157 246//173 243//175
f 233//155 232//154 244//168 245//167
f 232//181 237//178 249//178 244//181
f 228//151 230//150 242//164 240//163
f 234//157 229//156 241//170 246//173
f 240//163 247//162 254//182
f 229//156 227//160 239//176 241//170
f 230//150 233//155 245//167 242//164
f 253//183 255//184 256//185 252//186
f 232//187 253//183 252//186 244//188
f 228//151 240//163 254//189 251//189
f 235//148 228//151 251//190
f 239//176 227//160 251//191 254//191
f 227//160 235//161 251//192
f 255//184 257//193 258//194 256//185
f 257//195 231//195 243//195 258//195
f 258//194 243//196 249//197
f 252//186 249//197 244//188
f 252//186 256//185 249//197
f 256//185 258//194 249//197
f 253//183 232//187 237//198
f 253//183 237//198 255//184
f 255//184 237//198 257//193
f 237//198 231//199 257//193
f 260//200 259//201 262//202 261//203
f 286//204 285//205 264//206 263//207
f 274//208 273//209 272//210 271//211
f 285//205 262//202 283//212
f 260//200 261//203 280//213
f 266//214 260//200 280//213
f 259//215 260//215 266//214 265//216
f 262//202 259//201 283//212
f 294//217 269//218 270//218 293//217
f 304//219 271//219 272//219 301//219
f 296//220 276//221 267//222 293//223
f 306//224 274//208 271//211 304//225
f 295//226 277//227 269//228 294//229
f 276//221 278//230 268//231 267//222
f 289//232 292//233 278//230 276//221
f 300//234 291//235 277//227 295//226
f 308//236 290//237 274//208 306//224
f 299//238 289//232 276//221 296//220
f 290//237 287//239 273//209 274//208
f 265//216 283//212 259//201
f 263//207 264//206 282//240 279//241
f 265//216 284//242 297//243 283//212
f 263//207 279//241 303//244 280//213
f 266//214 280//213 298//245 281//246
f 265//216 266//214 281//246 284//242
f 261//203 286//204 280//213
f 264//206 283//212 302//247 282//240
f 307//248 288//249 275//250 305//251
f 285//205 283//212 264//206
f 280//213 286//204 263//207
f 305//251 275//250 270//252 301//253
f 261//203 262//202 285//205 286//204
f 302//247 283//212 288//249 307//248
f 279//241 282//240 287//239 290//237
f 297//243 284//242 289//232 299//238
f 303//244 279//241 290//237 308//236
f 298//245 280//213 291//235 300//234
f 284//242 281//246 292//233 289//232
f 281//246 298//245 300//234 292//233
f 283//212 297//243 299//238 288//249
f 288//249 299//238 296//220 275//250
f 292//233 300//234 295//226 278//230
f 278//230 295//226 294//229 268//231
f 275//250 296//220 293//223 270//252
f 268//217 294//217 293//217 267//217
f 280//213 303//244 308//236 291//235
f 282//240 302//247 307//248 287//239
f 273//209 305//251 301//253 272//210
f 287//239 307//248 305//251 273//209
f 291//235 308//236 306//224 277//227
f 277//227 306//224 304//225 269//228
f 269//218 304//219 301//219 270//218
