# Blender 5.2.0 LTS
# www.blender.org
o D2
v -6.000000 3.000000 8.168999
v -6.000000 -3.800003 8.168999
v -6.000000 3.000000 12.769001
v -6.000000 3.000000 12.769001
v -6.000000 -3.800003 8.168999
v -6.000000 -3.800003 12.769001
v -6.000000 -3.800003 12.769001
v -6.000000 -3.800003 8.168999
v -6.000000 -4.800003 54.938004
v -6.000000 -3.800003 12.769001
v -6.000000 -4.800003 54.938004
v -6.000000 -3.800003 18.168999
v -6.000000 -3.800003 18.168999
v -6.000000 -4.800003 54.938004
v -6.000000 -3.800003 22.768997
v -6.000000 -3.800003 18.168999
v -6.000000 -3.800003 22.768997
v -6.000000 3.000000 22.768997
v -6.000000 -3.800003 8.168999
v -6.000000 -3.800003 2.769001
v -6.000000 -4.800003 54.938004
v -6.000000 -4.800003 54.938004
v -6.000000 -3.800003 2.769001
v -6.000000 -4.800003 -49.000000
v -6.000000 -4.800003 -49.000000
v -6.000000 -3.800003 2.769001
v -6.000000 -3.800003 -1.831001
v -6.000000 -4.800003 -49.000000
v -6.000000 -3.800003 -1.831001
v -6.000000 -3.800003 -7.230999
v -6.000000 -3.800003 2.769001
v -6.000000 3.000000 2.769001
v -6.000000 -3.800003 -1.831001
v -6.000000 -3.800003 -1.831001
v -6.000000 3.000000 2.769001
v -6.000000 3.000000 -1.831001
v -6.000000 -4.800003 -49.000000
v -6.000000 -3.800003 -7.230999
v -6.000000 -3.800003 -11.831001
v -6.000000 -3.800003 -11.831001
v -6.000000 -3.800003 -7.230999
v -6.000000 3.000000 -7.230999
v -6.000000 -3.800003 -11.831001
v -6.000000 3.000000 -7.230999
v -6.000000 3.000000 -11.831001
v -6.000000 -3.800003 -11.831001
v -6.000000 -3.800003 -17.230999
v -6.000000 -4.800003 -49.000000
v -6.000000 -4.800003 -49.000000
v -6.000000 -3.800003 -17.230999
v -6.000000 -3.800003 -21.830999
v -6.000000 -4.800003 -49.000000
v -6.000000 -3.800003 -21.830999
v -6.000000 -3.800003 -27.231001
v -6.000000 -3.800003 -17.230999
v -6.000000 3.000000 -17.230999
v -6.000000 -3.800003 -21.830999
v -6.000000 -3.800003 -21.830999
v -6.000000 3.000000 -17.230999
v -6.000000 3.000000 -21.830999
v -6.000000 -4.800003 -49.000000
v -6.000000 -3.800003 -27.231001
v -6.000000 -3.800003 -31.830999
v -6.000000 -3.800003 -31.830999
v -6.000000 -3.800003 -27.231001
v -6.000000 3.000000 -27.231001
v -6.000000 -3.800003 -31.830999
v -6.000000 3.000000 -27.231001
v -6.000000 3.000000 -31.830999
v -6.000000 -3.800003 -31.830999
v -6.000000 -3.800003 -37.230999
v -6.000000 -4.800003 -49.000000
v -6.000000 -4.800003 -49.000000
v -6.000000 -3.800003 -37.230999
v -6.000000 -3.800003 -41.831001
v -6.000000 -4.800003 -49.000000
v -6.000000 -3.800003 -41.831001
v -6.000000 -3.800003 -47.230999
v -6.000000 -3.800003 -37.230999
v -6.000000 3.000000 -37.230999
v -6.000000 -3.800003 -41.831001
v -6.000000 -3.800003 -41.831001
v -6.000000 3.000000 -37.230999
v -6.000000 3.000000 -41.831001
v -6.000000 3.000000 -47.230999
v -6.000000 3.000000 -49.000000
v -6.000000 -3.800003 -47.230999
v -6.000000 -3.800003 -47.230999
v -6.000000 3.000000 -49.000000
v -6.000000 -4.800003 -49.000000
v -6.000000 -3.800003 54.938004
v -6.000000 -3.800003 52.768997
v -6.000000 -4.800003 54.938004
v -6.000000 -4.800003 54.938004
v -6.000000 -3.800003 52.768997
v -6.000000 -3.800003 48.168999
v -6.000000 -4.800003 54.938004
v -6.000000 -3.800003 48.168999
v -6.000000 -3.800003 42.768997
v -6.000000 -3.800003 52.768997
v -6.000000 3.000000 52.768997
v -6.000000 -3.800003 48.168999
v -6.000000 -3.800003 48.168999
v -6.000000 3.000000 52.768997
v -6.000000 3.000000 48.168999
v -6.000000 -4.800003 54.938004
v -6.000000 -3.800003 42.768997
v -6.000000 -3.800003 38.168999
v -6.000000 -3.800003 38.168999
v -6.000000 -3.800003 42.768997
v -6.000000 3.000000 42.768997
v -6.000000 -3.800003 38.168999
v -6.000000 3.000000 42.768997
v -6.000000 3.000000 38.168999
v -6.000000 -3.800003 38.168999
v -6.000000 -3.800003 32.768997
v -6.000000 -4.800003 54.938004
v -6.000000 -4.800003 54.938004
v -6.000000 -3.800003 32.768997
v -6.000000 -3.800003 28.168999
v -6.000000 -4.800003 54.938004
v -6.000000 -3.800003 28.168999
v -6.000000 -3.800003 22.768997
v -6.000000 -3.800003 32.768997
v -6.000000 3.000000 32.768997
v -6.000000 -3.800003 28.168999
v -6.000000 -3.800003 28.168999
v -6.000000 3.000000 32.768997
v -6.000000 3.000000 28.168999
v -6.000000 3.000000 22.768997
v -6.000000 3.000000 18.168999
v -6.000000 -3.800003 18.168999
v -2.000000 -1.800003 28.168999
v -4.000000 -3.800003 28.168999
v -2.000000 0.000000 28.168999
v -2.000000 0.000000 28.168999
v -4.000000 -3.800003 28.168999
v -5.000000 3.000000 28.168999
v -5.000000 3.000000 28.168999
v -4.000000 -3.800003 28.168999
v -6.000000 -3.800003 28.168999
v -5.000000 3.000000 28.168999
v -6.000000 -3.800003 28.168999
v -6.000000 3.000000 28.168999
v -2.000000 -1.800003 32.768997
v -2.000000 0.000000 32.768997
v -4.000000 -3.800003 32.768997
v -4.000000 -3.800003 32.768997
v -2.000000 0.000000 32.768997
v -5.000000 3.000000 32.768997
v -4.000000 -3.800003 32.768997
v -5.000000 3.000000 32.768997
v -6.000000 -3.800003 32.768997
v -6.000000 -3.800003 32.768997
v -5.000000 3.000000 32.768997
v -6.000000 3.000000 32.768997
v -2.000000 -1.800003 48.168999
v -4.000000 -3.800003 48.168999
v -2.000000 0.000000 48.168999
v -2.000000 0.000000 48.168999
v -4.000000 -3.800003 48.168999
v -5.000000 3.000000 48.168999
v -5.000000 3.000000 48.168999
v -4.000000 -3.800003 48.168999
v -6.000000 -3.800003 48.168999
v -5.000000 3.000000 48.168999
v -6.000000 -3.800003 48.168999
v -6.000000 3.000000 48.168999
v -2.000000 -1.800003 52.768997
v -2.000000 0.000000 52.768997
v -4.000000 -3.800003 52.768997
v -4.000000 -3.800003 52.768997
v -2.000000 0.000000 52.768997
v -5.000000 3.000000 52.768997
v -4.000000 -3.800003 52.768997
v -5.000000 3.000000 52.768997
v -6.000000 -3.800003 52.768997
v -6.000000 -3.800003 52.768997
v -5.000000 3.000000 52.768997
v -6.000000 3.000000 52.768997
v -5.000000 3.000000 48.168999
v -6.000000 3.000000 48.168999
v -5.000000 3.000000 52.768997
v -5.000000 3.000000 52.768997
v -6.000000 3.000000 48.168999
v -6.000000 3.000000 52.768997
v -2.000000 0.000000 48.168999
v -5.000000 3.000000 48.168999
v -2.000000 0.000000 52.768997
v -2.000000 0.000000 52.768997
v -5.000000 3.000000 48.168999
v -5.000000 3.000000 52.768997
v -2.000000 0.000000 38.168999
v -5.000000 3.000000 38.168999
v -2.000000 0.000000 42.768997
v -2.000000 0.000000 42.768997
v -5.000000 3.000000 38.168999
v -5.000000 3.000000 42.768997
v -5.000000 3.000000 38.168999
v -6.000000 3.000000 38.168999
v -5.000000 3.000000 42.768997
v -5.000000 3.000000 42.768997
v -6.000000 3.000000 38.168999
v -6.000000 3.000000 42.768997
v -5.000000 3.000000 28.168999
v -6.000000 3.000000 28.168999
v -5.000000 3.000000 32.768997
v -5.000000 3.000000 32.768997
v -6.000000 3.000000 28.168999
v -6.000000 3.000000 32.768997
v -5.000000 3.000000 18.168999
v -6.000000 3.000000 18.168999
v -5.000000 3.000000 22.768997
v -5.000000 3.000000 22.768997
v -6.000000 3.000000 18.168999
v -6.000000 3.000000 22.768997
v -5.000000 3.000000 8.168999
v -6.000000 3.000000 8.168999
v -5.000000 3.000000 12.769001
v -5.000000 3.000000 12.769001
v -6.000000 3.000000 8.168999
v -6.000000 3.000000 12.769001
v -5.000000 3.000000 -11.831001
v -6.000000 3.000000 -11.831001
v -5.000000 3.000000 -7.230999
v -5.000000 3.000000 -7.230999
v -6.000000 3.000000 -11.831001
v -6.000000 3.000000 -7.230999
v -2.000000 -1.800003 -7.230999
v -4.000000 -3.800003 -7.230999
v -2.000000 -1.800003 -1.831001
v -2.000000 -1.800003 -1.831001
v -4.000000 -3.800003 -7.230999
v -4.000000 -3.800003 -1.831001
v -5.000000 3.000000 -1.831001
v -6.000000 3.000000 -1.831001
v -5.000000 3.000000 2.769001
v -5.000000 3.000000 2.769001
v -6.000000 3.000000 -1.831001
v -6.000000 3.000000 2.769001
v -2.000000 -1.800003 -1.831001
v -4.000000 -3.800003 -1.831001
v -2.000000 0.000000 -1.831001
v -2.000000 0.000000 -1.831001
v -4.000000 -3.800003 -1.831001
v -5.000000 3.000000 -1.831001
v -5.000000 3.000000 -1.831001
v -4.000000 -3.800003 -1.831001
v -6.000000 -3.800003 -1.831001
v -5.000000 3.000000 -1.831001
v -6.000000 -3.800003 -1.831001
v -6.000000 3.000000 -1.831001
v -2.000000 0.000000 -1.831001
v -5.000000 3.000000 -1.831001
v -2.000000 0.000000 2.769001
v -2.000000 0.000000 2.769001
v -5.000000 3.000000 -1.831001
v -5.000000 3.000000 2.769001
v -2.000000 -1.800003 2.769001
v -2.000000 0.000000 2.769001
v -4.000000 -3.800003 2.769001
v -4.000000 -3.800003 2.769001
v -2.000000 0.000000 2.769001
v -5.000000 3.000000 2.769001
v -4.000000 -3.800003 2.769001
v -5.000000 3.000000 2.769001
v -6.000000 -3.800003 2.769001
v -6.000000 -3.800003 2.769001
v -5.000000 3.000000 2.769001
v -6.000000 3.000000 2.769001
v -2.000000 0.000000 28.168999
v -5.000000 3.000000 28.168999
v -2.000000 0.000000 32.768997
v -2.000000 0.000000 32.768997
v -5.000000 3.000000 28.168999
v -5.000000 3.000000 32.768997
v -2.000000 0.000000 18.168999
v -5.000000 3.000000 18.168999
v -2.000000 0.000000 22.768997
v -2.000000 0.000000 22.768997
v -5.000000 3.000000 18.168999
v -5.000000 3.000000 22.768997
v -2.000000 0.000000 8.168999
v -5.000000 3.000000 8.168999
v -2.000000 0.000000 12.769001
v -2.000000 0.000000 12.769001
v -5.000000 3.000000 8.168999
v -5.000000 3.000000 12.769001
v -2.000000 -1.800003 22.768997
v -4.000000 -3.800003 22.768997
v -2.000000 -1.800003 28.168999
v -2.000000 -1.800003 28.168999
v -4.000000 -3.800003 22.768997
v -4.000000 -3.800003 28.168999
v -2.000000 -1.800003 32.768997
v -4.000000 -3.800003 32.768997
v -2.000000 -1.800003 38.168999
v -2.000000 -1.800003 38.168999
v -4.000000 -3.800003 32.768997
v -4.000000 -3.800003 38.168999
v -2.000000 -1.800003 12.769001
v -4.000000 -3.800003 12.769001
v -2.000000 -1.800003 18.168999
v -2.000000 -1.800003 18.168999
v -4.000000 -3.800003 12.769001
v -4.000000 -3.800003 18.168999
v -2.000000 -1.800003 2.769001
v -4.000000 -3.800003 2.769001
v -2.000000 -1.800003 8.168999
v -2.000000 -1.800003 8.168999
v -4.000000 -3.800003 2.769001
v -4.000000 -3.800003 8.168999
v 2.000000 -1.800003 -42.230999
v 4.000000 -3.800003 -42.230999
v 2.000000 0.000000 -42.230999
v 2.000000 0.000000 -42.230999
v 4.000000 -3.800003 -42.230999
v 5.000000 3.000000 -42.230999
v 5.000000 3.000000 -42.230999
v 4.000000 -3.800003 -42.230999
v 6.000000 -3.800003 -42.230999
v 5.000000 3.000000 -42.230999
v 6.000000 -3.800003 -42.230999
v 6.000000 3.000000 -42.230999
v 2.000000 -1.800003 -46.831001
v 2.000000 0.000000 -46.831001
v 4.000000 -3.800003 -46.831001
v 4.000000 -3.800003 -46.831001
v 2.000000 0.000000 -46.831001
v 5.000000 3.000000 -46.831001
v 4.000000 -3.800003 -46.831001
v 5.000000 3.000000 -46.831001
v 6.000000 -3.800003 -46.831001
v 6.000000 -3.800003 -46.831001
v 5.000000 3.000000 -46.831001
v 6.000000 3.000000 -46.831001
v -2.000000 -1.800003 38.168999
v -4.000000 -3.800003 38.168999
v -2.000000 0.000000 38.168999
v -2.000000 0.000000 38.168999
v -4.000000 -3.800003 38.168999
v -5.000000 3.000000 38.168999
v -5.000000 3.000000 38.168999
v -4.000000 -3.800003 38.168999
v -6.000000 -3.800003 38.168999
v -5.000000 3.000000 38.168999
v -6.000000 -3.800003 38.168999
v -6.000000 3.000000 38.168999
v -2.000000 -1.800003 42.768997
v -2.000000 0.000000 42.768997
v -4.000000 -3.800003 42.768997
v -4.000000 -3.800003 42.768997
v -2.000000 0.000000 42.768997
v -5.000000 3.000000 42.768997
v -4.000000 -3.800003 42.768997
v -5.000000 3.000000 42.768997
v -6.000000 -3.800003 42.768997
v -6.000000 -3.800003 42.768997
v -5.000000 3.000000 42.768997
v -6.000000 3.000000 42.768997
v -2.000000 -1.800003 18.168999
v -4.000000 -3.800003 18.168999
v -2.000000 0.000000 18.168999
v -2.000000 0.000000 18.168999
v -4.000000 -3.800003 18.168999
v -5.000000 3.000000 18.168999
v -5.000000 3.000000 18.168999
v -4.000000 -3.800003 18.168999
v -6.000000 -3.800003 18.168999
v -5.000000 3.000000 18.168999
v -6.000000 -3.800003 18.168999
v -6.000000 3.000000 18.168999
v -2.000000 -1.800003 22.768997
v -2.000000 0.000000 22.768997
v -4.000000 -3.800003 22.768997
v -4.000000 -3.800003 22.768997
v -2.000000 0.000000 22.768997
v -5.000000 3.000000 22.768997
v -4.000000 -3.800003 22.768997
v -5.000000 3.000000 22.768997
v -6.000000 -3.800003 22.768997
v -6.000000 -3.800003 22.768997
v -5.000000 3.000000 22.768997
v -6.000000 3.000000 22.768997
v -2.000000 -1.800003 8.168999
v -4.000000 -3.800003 8.168999
v -2.000000 0.000000 8.168999
v -2.000000 0.000000 8.168999
v -4.000000 -3.800003 8.168999
v -5.000000 3.000000 8.168999
v -5.000000 3.000000 8.168999
v -4.000000 -3.800003 8.168999
v -6.000000 -3.800003 8.168999
v -5.000000 3.000000 8.168999
v -6.000000 -3.800003 8.168999
v -6.000000 3.000000 8.168999
v -2.000000 -1.800003 12.769001
v -2.000000 0.000000 12.769001
v -4.000000 -3.800003 12.769001
v -4.000000 -3.800003 12.769001
v -2.000000 0.000000 12.769001
v -5.000000 3.000000 12.769001
v -4.000000 -3.800003 12.769001
v -5.000000 3.000000 12.769001
v -6.000000 -3.800003 12.769001
v -6.000000 -3.800003 12.769001
v -5.000000 3.000000 12.769001
v -6.000000 3.000000 12.769001
v -4.000000 -3.800003 54.938004
v -2.000000 -1.800003 54.938004
v -4.000000 -3.800003 52.768997
v -4.000000 -3.800003 52.768997
v -2.000000 -1.800003 54.938004
v -2.000000 -1.800003 52.768997
v -2.000000 -1.800003 42.768997
v -4.000000 -3.800003 42.768997
v -2.000000 -1.800003 48.168999
v -2.000000 -1.800003 48.168999
v -4.000000 -3.800003 42.768997
v -4.000000 -3.800003 48.168999
v 2.000000 0.000000 -42.230999
v 5.000000 3.000000 -42.230999
v 2.000000 0.000000 -46.831001
v 2.000000 0.000000 -46.831001
v 5.000000 3.000000 -42.230999
v 5.000000 3.000000 -46.831001
v 2.000000 -1.800003 43.168999
v 2.000000 0.000000 43.168999
v 4.000000 -3.800003 43.168999
v 4.000000 -3.800003 43.168999
v 2.000000 0.000000 43.168999
v 5.000000 3.000000 43.168999
v 4.000000 -3.800003 43.168999
v 5.000000 3.000000 43.168999
v 6.000000 -3.800003 43.168999
v 6.000000 -3.800003 43.168999
v 5.000000 3.000000 43.168999
v 6.000000 3.000000 43.168999
v 2.000000 0.000000 47.768997
v 5.000000 3.000000 47.768997
v 2.000000 0.000000 43.168999
v 2.000000 0.000000 43.168999
v 5.000000 3.000000 47.768997
v 5.000000 3.000000 43.168999
v 4.000000 -3.800003 -49.000000
v 2.000000 -1.800003 -49.000000
v 4.000000 -3.800003 -46.831001
v 4.000000 -3.800003 -46.831001
v 2.000000 -1.800003 -49.000000
v 2.000000 -1.800003 -46.831001
v 2.000000 -1.800003 53.168999
v 2.000000 0.000000 53.168999
v 4.000000 -3.800003 53.168999
v 4.000000 -3.800003 53.168999
v 2.000000 0.000000 53.168999
v 5.000000 3.000000 53.168999
v 4.000000 -3.800003 53.168999
v 5.000000 3.000000 53.168999
v 6.000000 -3.800003 53.168999
v 6.000000 -3.800003 53.168999
v 5.000000 3.000000 53.168999
v 6.000000 3.000000 53.168999
v 2.000000 0.000000 54.938004
v 5.000000 3.000000 54.938004
v 2.000000 0.000000 53.168999
v 2.000000 0.000000 53.168999
v 5.000000 3.000000 54.938004
v 5.000000 3.000000 53.168999
v 2.000000 -1.800003 53.168999
v 4.000000 -3.800003 53.168999
v 2.000000 -1.800003 47.768997
v 2.000000 -1.800003 47.768997
v 4.000000 -3.800003 53.168999
v 4.000000 -3.800003 47.768997
v 5.000000 3.000000 54.938004
v 6.000000 3.000000 54.938004
v 5.000000 3.000000 53.168999
v 5.000000 3.000000 53.168999
v 6.000000 3.000000 54.938004
v 6.000000 3.000000 53.168999
v 5.000000 3.000000 47.768997
v 6.000000 3.000000 47.768997
v 5.000000 3.000000 43.168999
v 5.000000 3.000000 43.168999
v 6.000000 3.000000 47.768997
v 6.000000 3.000000 43.168999
v 2.000000 -1.800003 47.768997
v 4.000000 -3.800003 47.768997
v 2.000000 0.000000 47.768997
v 2.000000 0.000000 47.768997
v 4.000000 -3.800003 47.768997
v 5.000000 3.000000 47.768997
v 5.000000 3.000000 47.768997
v 4.000000 -3.800003 47.768997
v 6.000000 -3.800003 47.768997
v 5.000000 3.000000 47.768997
v 6.000000 -3.800003 47.768997
v 6.000000 3.000000 47.768997
v 2.000000 -1.800003 43.168999
v 4.000000 -3.800003 43.168999
v 2.000000 -1.800003 37.768997
v 2.000000 -1.800003 37.768997
v 4.000000 -3.800003 43.168999
v 4.000000 -3.800003 37.768997
v 2.000000 -1.800003 33.168999
v 2.000000 0.000000 33.168999
v 4.000000 -3.800003 33.168999
v 4.000000 -3.800003 33.168999
v 2.000000 0.000000 33.168999
v 5.000000 3.000000 33.168999
v 4.000000 -3.800003 33.168999
v 5.000000 3.000000 33.168999
v 6.000000 -3.800003 33.168999
v 6.000000 -3.800003 33.168999
v 5.000000 3.000000 33.168999
v 6.000000 3.000000 33.168999
v 2.000000 0.000000 37.768997
v 5.000000 3.000000 37.768997
v 2.000000 0.000000 33.168999
v 2.000000 0.000000 33.168999
v 5.000000 3.000000 37.768997
v 5.000000 3.000000 33.168999
v 2.000000 -1.800003 37.768997
v 4.000000 -3.800003 37.768997
v 2.000000 0.000000 37.768997
v 2.000000 0.000000 37.768997
v 4.000000 -3.800003 37.768997
v 5.000000 3.000000 37.768997
v 5.000000 3.000000 37.768997
v 4.000000 -3.800003 37.768997
v 6.000000 -3.800003 37.768997
v 5.000000 3.000000 37.768997
v 6.000000 -3.800003 37.768997
v 6.000000 3.000000 37.768997
v 2.000000 -1.800003 33.168999
v 4.000000 -3.800003 33.168999
v 2.000000 -1.800003 27.768997
v 2.000000 -1.800003 27.768997
v 4.000000 -3.800003 33.168999
v 4.000000 -3.800003 27.768997
v 2.000000 -1.800003 23.168999
v 2.000000 0.000000 23.168999
v 4.000000 -3.800003 23.168999
v 4.000000 -3.800003 23.168999
v 2.000000 0.000000 23.168999
v 5.000000 3.000000 23.168999
v 4.000000 -3.800003 23.168999
v 5.000000 3.000000 23.168999
v 6.000000 -3.800003 23.168999
v 6.000000 -3.800003 23.168999
v 5.000000 3.000000 23.168999
v 6.000000 3.000000 23.168999
v 2.000000 0.000000 27.768997
v 5.000000 3.000000 27.768997
v 2.000000 0.000000 23.168999
v 2.000000 0.000000 23.168999
v 5.000000 3.000000 27.768997
v 5.000000 3.000000 23.168999
v 2.000000 -1.800003 27.768997
v 4.000000 -3.800003 27.768997
v 2.000000 0.000000 27.768997
v 2.000000 0.000000 27.768997
v 4.000000 -3.800003 27.768997
v 5.000000 3.000000 27.768997
v 5.000000 3.000000 27.768997
v 4.000000 -3.800003 27.768997
v 6.000000 -3.800003 27.768997
v 5.000000 3.000000 27.768997
v 6.000000 -3.800003 27.768997
v 6.000000 3.000000 27.768997
v 5.000000 3.000000 37.768997
v 6.000000 3.000000 37.768997
v 5.000000 3.000000 33.168999
v 5.000000 3.000000 33.168999
v 6.000000 3.000000 37.768997
v 6.000000 3.000000 33.168999
v 5.000000 3.000000 27.768997
v 6.000000 3.000000 27.768997
v 5.000000 3.000000 23.168999
v 5.000000 3.000000 23.168999
v 6.000000 3.000000 27.768997
v 6.000000 3.000000 23.168999
v 2.000000 -1.800003 13.168999
v 2.000000 0.000000 13.168999
v 4.000000 -3.800003 13.168999
v 4.000000 -3.800003 13.168999
v 2.000000 0.000000 13.168999
v 5.000000 3.000000 13.168999
v 4.000000 -3.800003 13.168999
v 5.000000 3.000000 13.168999
v 6.000000 -3.800003 13.168999
v 6.000000 -3.800003 13.168999
v 5.000000 3.000000 13.168999
v 6.000000 3.000000 13.168999
v 2.000000 0.000000 17.768997
v 5.000000 3.000000 17.768997
v 2.000000 0.000000 13.168999
v 2.000000 0.000000 13.168999
v 5.000000 3.000000 17.768997
v 5.000000 3.000000 13.168999
v 2.000000 -1.800003 17.768997
v 4.000000 -3.800003 17.768997
v 2.000000 0.000000 17.768997
v 2.000000 0.000000 17.768997
v 4.000000 -3.800003 17.768997
v 5.000000 3.000000 17.768997
v 5.000000 3.000000 17.768997
v 4.000000 -3.800003 17.768997
v 6.000000 -3.800003 17.768997
v 5.000000 3.000000 17.768997
v 6.000000 -3.800003 17.768997
v 6.000000 3.000000 17.768997
v 2.000000 -1.800003 3.168999
v 2.000000 0.000000 3.168999
v 4.000000 -3.800003 3.168999
v 4.000000 -3.800003 3.168999
v 2.000000 0.000000 3.168999
v 5.000000 3.000000 3.168999
v 4.000000 -3.800003 3.168999
v 5.000000 3.000000 3.168999
v 6.000000 -3.800003 3.168999
v 6.000000 -3.800003 3.168999
v 5.000000 3.000000 3.168999
v 6.000000 3.000000 3.168999
v 2.000000 -1.800003 23.168999
v 4.000000 -3.800003 23.168999
v 2.000000 -1.800003 17.768997
v 2.000000 -1.800003 17.768997
v 4.000000 -3.800003 23.168999
v 4.000000 -3.800003 17.768997
v 2.000000 -1.800003 13.168999
v 4.000000 -3.800003 13.168999
v 2.000000 -1.800003 7.769001
v 2.000000 -1.800003 7.769001
v 4.000000 -3.800003 13.168999
v 4.000000 -3.800003 7.769001
v 2.000000 0.000000 7.769001
v 5.000000 3.000000 7.769001
v 2.000000 0.000000 3.168999
v 2.000000 0.000000 3.168999
v 5.000000 3.000000 7.769001
v 5.000000 3.000000 3.168999
v 2.000000 -1.800003 7.769001
v 4.000000 -3.800003 7.769001
v 2.000000 0.000000 7.769001
v 2.000000 0.000000 7.769001
v 4.000000 -3.800003 7.769001
v 5.000000 3.000000 7.769001
v 5.000000 3.000000 7.769001
v 4.000000 -3.800003 7.769001
v 6.000000 -3.800003 7.769001
v 5.000000 3.000000 7.769001
v 6.000000 -3.800003 7.769001
v 6.000000 3.000000 7.769001
v 5.000000 3.000000 17.768997
v 6.000000 3.000000 17.768997
v 5.000000 3.000000 13.168999
v 5.000000 3.000000 13.168999
v 6.000000 3.000000 17.768997
v 6.000000 3.000000 13.168999
v 5.000000 3.000000 7.769001
v 6.000000 3.000000 7.769001
v 5.000000 3.000000 3.168999
v 5.000000 3.000000 3.168999
v 6.000000 3.000000 7.769001
v 6.000000 3.000000 3.168999
v 6.000000 3.000000 7.769001
v 6.000000 -3.800003 7.769001
v 6.000000 3.000000 3.168999
v 6.000000 3.000000 3.168999
v 6.000000 -3.800003 7.769001
v 6.000000 -3.800003 3.168999
v 6.000000 -3.800003 3.168999
v 6.000000 -3.800003 7.769001
v 6.000000 -4.800003 54.938004
v 6.000000 -3.800003 3.168999
v 6.000000 -4.800003 54.938004
v 6.000000 -4.800003 -49.000000
v 6.000000 -3.800003 7.769001
v 6.000000 -3.800003 13.168999
v 6.000000 -4.800003 54.938004
v 6.000000 -4.800003 54.938004
v 6.000000 -3.800003 13.168999
v 6.000000 -3.800003 17.768997
v 6.000000 -4.800003 54.938004
v 6.000000 -3.800003 17.768997
v 6.000000 -3.800003 23.168999
v 6.000000 -3.800003 13.168999
v 6.000000 3.000000 13.168999
v 6.000000 -3.800003 17.768997
v 6.000000 -3.800003 17.768997
v 6.000000 3.000000 13.168999
v 6.000000 3.000000 17.768997
v 6.000000 -4.800003 54.938004
v 6.000000 -3.800003 23.168999
v 6.000000 -3.800003 27.768997
v 6.000000 -3.800003 27.768997
v 6.000000 -3.800003 23.168999
v 6.000000 3.000000 23.168999
v 6.000000 -3.800003 27.768997
v 6.000000 3.000000 23.168999
v 6.000000 3.000000 27.768997
v 6.000000 -3.800003 27.768997
v 6.000000 -3.800003 33.168999
v 6.000000 -4.800003 54.938004
v 6.000000 -4.800003 54.938004
v 6.000000 -3.800003 33.168999
v 6.000000 -3.800003 37.768997
v 6.000000 -4.800003 54.938004
v 6.000000 -3.800003 37.768997
v 6.000000 -3.800003 43.168999
v 6.000000 -3.800003 33.168999
v 6.000000 3.000000 33.168999
v 6.000000 -3.800003 37.768997
v 6.000000 -3.800003 37.768997
v 6.000000 3.000000 33.168999
v 6.000000 3.000000 37.768997
v 6.000000 -4.800003 54.938004
v 6.000000 -3.800003 43.168999
v 6.000000 -3.800003 47.768997
v 6.000000 -3.800003 47.768997
v 6.000000 -3.800003 43.168999
v 6.000000 3.000000 43.168999
v 6.000000 -3.800003 47.768997
v 6.000000 3.000000 43.168999
v 6.000000 3.000000 47.768997
v 6.000000 -3.800003 47.768997
v 6.000000 -3.800003 53.168999
v 6.000000 -4.800003 54.938004
v 6.000000 -4.800003 54.938004
v 6.000000 -3.800003 53.168999
v 6.000000 3.000000 54.938004
v 6.000000 3.000000 54.938004
v 6.000000 -3.800003 53.168999
v 6.000000 3.000000 53.168999
v 6.000000 -3.800003 -49.000000
v 6.000000 -3.800003 -46.831001
v 6.000000 -4.800003 -49.000000
v 6.000000 -4.800003 -49.000000
v 6.000000 -3.800003 -46.831001
v 6.000000 -3.800003 -42.230999
v 6.000000 -4.800003 -49.000000
v 6.000000 -3.800003 -42.230999
v 6.000000 -3.800003 -36.831001
v 6.000000 -3.800003 -46.831001
v 6.000000 3.000000 -46.831001
v 6.000000 -3.800003 -42.230999
v 6.000000 -3.800003 -42.230999
v 6.000000 3.000000 -46.831001
v 6.000000 3.000000 -42.230999
v 6.000000 -4.800003 -49.000000
v 6.000000 -3.800003 -36.831001
v 6.000000 -3.800003 -32.231003
v 6.000000 -3.800003 -32.231003
v 6.000000 -3.800003 -36.831001
v 6.000000 3.000000 -36.831001
v 6.000000 -3.800003 -32.231003
v 6.000000 3.000000 -36.831001
v 6.000000 3.000000 -32.231003
v 6.000000 -3.800003 -32.231003
v 6.000000 -3.800003 -26.830999
v 6.000000 -4.800003 -49.000000
v 6.000000 -4.800003 -49.000000
v 6.000000 -3.800003 -26.830999
v 6.000000 -3.800003 -22.231001
v 6.000000 -4.800003 -49.000000
v 6.000000 -3.800003 -22.231001
v 6.000000 -3.800003 -16.831001
v 6.000000 -3.800003 -26.830999
v 6.000000 3.000000 -26.830999
v 6.000000 -3.800003 -22.231001
v 6.000000 -3.800003 -22.231001
v 6.000000 3.000000 -26.830999
v 6.000000 3.000000 -22.231001
v 6.000000 -4.800003 -49.000000
v 6.000000 -3.800003 -16.831001
v 6.000000 -3.800003 -12.230999
v 6.000000 -3.800003 -12.230999
v 6.000000 -3.800003 -16.831001
v 6.000000 3.000000 -16.831001
v 6.000000 -3.800003 -12.230999
v 6.000000 3.000000 -16.831001
v 6.000000 3.000000 -12.230999
v 6.000000 -3.800003 -12.230999
v 6.000000 -3.800003 -6.831001
v 6.000000 -4.800003 -49.000000
v 6.000000 -4.800003 -49.000000
v 6.000000 -3.800003 -6.831001
v 6.000000 -3.800003 -2.230999
v 6.000000 -4.800003 -49.000000
v 6.000000 -3.800003 -2.230999
v 6.000000 -3.800003 3.168999
v 6.000000 -3.800003 -6.831001
v 6.000000 3.000000 -6.831001
v 6.000000 -3.800003 -2.230999
v 6.000000 -3.800003 -2.230999
v 6.000000 3.000000 -6.831001
v 6.000000 3.000000 -2.230999
v 2.000000 -1.800003 3.168999
v 4.000000 -3.800003 3.168999
v 2.000000 -1.800003 -2.230999
v 2.000000 -1.800003 -2.230999
v 4.000000 -3.800003 3.168999
v 4.000000 -3.800003 -2.230999
v 2.000000 -1.800003 -6.831001
v 2.000000 0.000000 -6.831001
v 4.000000 -3.800003 -6.831001
v 4.000000 -3.800003 -6.831001
v 2.000000 0.000000 -6.831001
v 5.000000 3.000000 -6.831001
v 4.000000 -3.800003 -6.831001
v 5.000000 3.000000 -6.831001
v 6.000000 -3.800003 -6.831001
v 6.000000 -3.800003 -6.831001
v 5.000000 3.000000 -6.831001
v 6.000000 3.000000 -6.831001
v 2.000000 0.000000 -2.230999
v 5.000000 3.000000 -2.230999
v 2.000000 0.000000 -6.831001
v 2.000000 0.000000 -6.831001
v 5.000000 3.000000 -2.230999
v 5.000000 3.000000 -6.831001
v 2.000000 -1.800003 -2.230999
v 4.000000 -3.800003 -2.230999
v 2.000000 0.000000 -2.230999
v 2.000000 0.000000 -2.230999
v 4.000000 -3.800003 -2.230999
v 5.000000 3.000000 -2.230999
v 5.000000 3.000000 -2.230999
v 4.000000 -3.800003 -2.230999
v 6.000000 -3.800003 -2.230999
v 5.000000 3.000000 -2.230999
v 6.000000 -3.800003 -2.230999
v 6.000000 3.000000 -2.230999
v 2.000000 -1.800003 -6.831001
v 4.000000 -3.800003 -6.831001
v 2.000000 -1.800003 -12.230999
v 2.000000 -1.800003 -12.230999
v 4.000000 -3.800003 -6.831001
v 4.000000 -3.800003 -12.230999
v 2.000000 -1.800003 -16.831001
v 2.000000 0.000000 -16.831001
v 4.000000 -3.800003 -16.831001
v 4.000000 -3.800003 -16.831001
v 2.000000 0.000000 -16.831001
v 5.000000 3.000000 -16.831001
v 4.000000 -3.800003 -16.831001
v 5.000000 3.000000 -16.831001
v 6.000000 -3.800003 -16.831001
v 6.000000 -3.800003 -16.831001
v 5.000000 3.000000 -16.831001
v 6.000000 3.000000 -16.831001
v 2.000000 0.000000 -12.230999
v 5.000000 3.000000 -12.230999
v 2.000000 0.000000 -16.831001
v 2.000000 0.000000 -16.831001
v 5.000000 3.000000 -12.230999
v 5.000000 3.000000 -16.831001
v 2.000000 -1.800003 -12.230999
v 4.000000 -3.800003 -12.230999
v 2.000000 0.000000 -12.230999
v 2.000000 0.000000 -12.230999
v 4.000000 -3.800003 -12.230999
v 5.000000 3.000000 -12.230999
v 5.000000 3.000000 -12.230999
v 4.000000 -3.800003 -12.230999
v 6.000000 -3.800003 -12.230999
v 5.000000 3.000000 -12.230999
v 6.000000 -3.800003 -12.230999
v 6.000000 3.000000 -12.230999
v 2.000000 -1.800003 -16.831001
v 4.000000 -3.800003 -16.831001
v 2.000000 -1.800003 -22.231001
v 2.000000 -1.800003 -22.231001
v 4.000000 -3.800003 -16.831001
v 4.000000 -3.800003 -22.231001
v 5.000000 3.000000 -2.230999
v 6.000000 3.000000 -2.230999
v 5.000000 3.000000 -6.831001
v 5.000000 3.000000 -6.831001
v 6.000000 3.000000 -2.230999
v 6.000000 3.000000 -6.831001
v 5.000000 3.000000 -12.230999
v 6.000000 3.000000 -12.230999
v 5.000000 3.000000 -16.831001
v 5.000000 3.000000 -16.831001
v 6.000000 3.000000 -12.230999
v 6.000000 3.000000 -16.831001
v 2.000000 -1.800003 -26.830999
v 2.000000 0.000000 -26.830999
v 4.000000 -3.800003 -26.830999
v 4.000000 -3.800003 -26.830999
v 2.000000 0.000000 -26.830999
v 5.000000 3.000000 -26.830999
v 4.000000 -3.800003 -26.830999
v 5.000000 3.000000 -26.830999
v 6.000000 -3.800003 -26.830999
v 6.000000 -3.800003 -26.830999
v 5.000000 3.000000 -26.830999
v 6.000000 3.000000 -26.830999
v 2.000000 -1.800003 -26.830999
v 4.000000 -3.800003 -26.830999
v 2.000000 -1.800003 -32.231003
v 2.000000 -1.800003 -32.231003
v 4.000000 -3.800003 -26.830999
v 4.000000 -3.800003 -32.231003
v 2.000000 0.000000 -22.231001
v 5.000000 3.000000 -22.231001
v 2.000000 0.000000 -26.830999
v 2.000000 0.000000 -26.830999
v 5.000000 3.000000 -22.231001
v 5.000000 3.000000 -26.830999
v 2.000000 -1.800003 -22.231001
v 4.000000 -3.800003 -22.231001
v 2.000000 0.000000 -22.231001
v 2.000000 0.000000 -22.231001
v 4.000000 -3.800003 -22.231001
v 5.000000 3.000000 -22.231001
v 5.000000 3.000000 -22.231001
v 4.000000 -3.800003 -22.231001
v 6.000000 -3.800003 -22.231001
v 5.000000 3.000000 -22.231001
v 6.000000 -3.800003 -22.231001
v 6.000000 3.000000 -22.231001
v 2.000000 -1.800003 -36.831001
v 2.000000 0.000000 -36.831001
v 4.000000 -3.800003 -36.831001
v 4.000000 -3.800003 -36.831001
v 2.000000 0.000000 -36.831001
v 5.000000 3.000000 -36.831001
v 4.000000 -3.800003 -36.831001
v 5.000000 3.000000 -36.831001
v 6.000000 -3.800003 -36.831001
v 6.000000 -3.800003 -36.831001
v 5.000000 3.000000 -36.831001
v 6.000000 3.000000 -36.831001
v 2.000000 0.000000 -32.231003
v 5.000000 3.000000 -32.231003
v 2.000000 0.000000 -36.831001
v 2.000000 0.000000 -36.831001
v 5.000000 3.000000 -32.231003
v 5.000000 3.000000 -36.831001
v 2.000000 -1.800003 -32.231003
v 4.000000 -3.800003 -32.231003
v 2.000000 0.000000 -32.231003
v 2.000000 0.000000 -32.231003
v 4.000000 -3.800003 -32.231003
v 5.000000 3.000000 -32.231003
v 5.000000 3.000000 -32.231003
v 4.000000 -3.800003 -32.231003
v 6.000000 -3.800003 -32.231003
v 5.000000 3.000000 -32.231003
v 6.000000 -3.800003 -32.231003
v 6.000000 3.000000 -32.231003
v 2.000000 -1.800003 -36.831001
v 4.000000 -3.800003 -36.831001
v 2.000000 -1.800003 -42.230999
v 2.000000 -1.800003 -42.230999
v 4.000000 -3.800003 -36.831001
v 4.000000 -3.800003 -42.230999
v 5.000000 3.000000 -22.231001
v 6.000000 3.000000 -22.231001
v 5.000000 3.000000 -26.830999
v 5.000000 3.000000 -26.830999
v 6.000000 3.000000 -22.231001
v 6.000000 3.000000 -26.830999
v 5.000000 3.000000 -32.231003
v 6.000000 3.000000 -32.231003
v 5.000000 3.000000 -36.831001
v 5.000000 3.000000 -36.831001
v 6.000000 3.000000 -32.231003
v 6.000000 3.000000 -36.831001
v 5.000000 3.000000 -42.230999
v 6.000000 3.000000 -42.230999
v 5.000000 3.000000 -46.831001
v 5.000000 3.000000 -46.831001
v 6.000000 3.000000 -42.230999
v 6.000000 3.000000 -46.831001
v -2.000000 -1.800003 -41.831001
v -4.000000 -3.800003 -41.831001
v -2.000000 0.000000 -41.831001
v -2.000000 0.000000 -41.831001
v -4.000000 -3.800003 -41.831001
v -5.000000 3.000000 -41.831001
v -5.000000 3.000000 -41.831001
v -4.000000 -3.800003 -41.831001
v -6.000000 -3.800003 -41.831001
v -5.000000 3.000000 -41.831001
v -6.000000 -3.800003 -41.831001
v -6.000000 3.000000 -41.831001
v -2.000000 -1.800003 -37.230999
v -2.000000 0.000000 -37.230999
v -4.000000 -3.800003 -37.230999
v -4.000000 -3.800003 -37.230999
v -2.000000 0.000000 -37.230999
v -5.000000 3.000000 -37.230999
v -4.000000 -3.800003 -37.230999
v -5.000000 3.000000 -37.230999
v -6.000000 -3.800003 -37.230999
v -6.000000 -3.800003 -37.230999
v -5.000000 3.000000 -37.230999
v -6.000000 3.000000 -37.230999
v -2.000000 -1.800003 -47.230999
v -2.000000 0.000000 -47.230999
v -4.000000 -3.800003 -47.230999
v -4.000000 -3.800003 -47.230999
v -2.000000 0.000000 -47.230999
v -5.000000 3.000000 -47.230999
v -4.000000 -3.800003 -47.230999
v -5.000000 3.000000 -47.230999
v -6.000000 -3.800003 -47.230999
v -6.000000 -3.800003 -47.230999
v -5.000000 3.000000 -47.230999
v -6.000000 3.000000 -47.230999
v -2.000000 0.000000 -41.831001
v -5.000000 3.000000 -41.831001
v -2.000000 0.000000 -37.230999
v -2.000000 0.000000 -37.230999
v -5.000000 3.000000 -41.831001
v -5.000000 3.000000 -37.230999
v -2.000000 0.000000 -49.000000
v -5.000000 3.000000 -49.000000
v -2.000000 0.000000 -47.230999
v -2.000000 0.000000 -47.230999
v -5.000000 3.000000 -49.000000
v -5.000000 3.000000 -47.230999
v -5.000000 3.000000 -41.831001
v -6.000000 3.000000 -41.831001
v -5.000000 3.000000 -37.230999
v -5.000000 3.000000 -37.230999
v -6.000000 3.000000 -41.831001
v -6.000000 3.000000 -37.230999
v -5.000000 3.000000 -49.000000
v -6.000000 3.000000 -49.000000
v -5.000000 3.000000 -47.230999
v -5.000000 3.000000 -47.230999
v -6.000000 3.000000 -49.000000
v -6.000000 3.000000 -47.230999
v 4.000000 -3.800003 -46.831001
v 6.000000 -3.800003 -46.831001
v 4.000000 -3.800003 -49.000000
v 4.000000 -3.800003 -49.000000
v 6.000000 -3.800003 -46.831001
v 6.000000 -3.800003 -49.000000
v 6.000000 -3.800003 27.768997
v 4.000000 -3.800003 27.768997
v 6.000000 -3.800003 33.168999
v 6.000000 -3.800003 33.168999
v 4.000000 -3.800003 27.768997
v 4.000000 -3.800003 33.168999
v 4.000000 -3.800003 -36.831001
v 6.000000 -3.800003 -36.831001
v 4.000000 -3.800003 -42.230999
v 4.000000 -3.800003 -42.230999
v 6.000000 -3.800003 -36.831001
v 6.000000 -3.800003 -42.230999
v 6.000000 -3.800003 37.768997
v 4.000000 -3.800003 37.768997
v 6.000000 -3.800003 43.168999
v 6.000000 -3.800003 43.168999
v 4.000000 -3.800003 37.768997
v 4.000000 -3.800003 43.168999
v -4.000000 -3.800003 12.769001
v -6.000000 -3.800003 12.769001
v -4.000000 -3.800003 18.168999
v -4.000000 -3.800003 18.168999
v -6.000000 -3.800003 12.769001
v -6.000000 -3.800003 18.168999
v -4.000000 -3.800003 22.768997
v -6.000000 -3.800003 22.768997
v -4.000000 -3.800003 28.168999
v -4.000000 -3.800003 28.168999
v -6.000000 -3.800003 22.768997
v -6.000000 -3.800003 28.168999
v -6.000000 -3.800003 8.168999
v -4.000000 -3.800003 8.168999
v -6.000000 -3.800003 2.769001
v -6.000000 -3.800003 2.769001
v -4.000000 -3.800003 8.168999
v -4.000000 -3.800003 2.769001
v 6.000000 -3.800003 47.768997
v 4.000000 -3.800003 47.768997
v 6.000000 -3.800003 53.168999
v 6.000000 -3.800003 53.168999
v 4.000000 -3.800003 47.768997
v 4.000000 -3.800003 53.168999
v -4.000000 -3.800003 -47.230999
v -6.000000 -3.800003 -47.230999
v -4.000000 -3.800003 -41.831001
v -4.000000 -3.800003 -41.831001
v -6.000000 -3.800003 -47.230999
v -6.000000 -3.800003 -41.831001
v -2.000000 -1.800003 -1.831001
v -2.000000 0.000000 -1.831001
v -2.000000 -1.800003 -7.230999
v -2.000000 -1.800003 -7.230999
v -2.000000 0.000000 -1.831001
v -2.000000 0.000000 -7.230999
v -2.000000 -1.800003 -11.831001
v -2.000000 0.000000 -11.831001
v -2.000000 -1.800003 -17.230999
v -2.000000 -1.800003 -17.230999
v -2.000000 0.000000 -11.831001
v -2.000000 0.000000 -17.230999
v -2.000000 0.000000 2.769001
v -2.000000 -1.800003 2.769001
v -2.000000 0.000000 8.168999
v -2.000000 0.000000 8.168999
v -2.000000 -1.800003 2.769001
v -2.000000 -1.800003 8.168999
v -2.000000 -1.800003 -21.830999
v -2.000000 0.000000 -21.830999
v -2.000000 -1.800003 -27.231001
v -2.000000 -1.800003 -27.231001
v -2.000000 0.000000 -21.830999
v -2.000000 0.000000 -27.231001
v -2.000000 0.000000 -49.000000
v -2.000000 0.000000 -47.230999
v 2.000000 0.000000 -49.000000
v 2.000000 0.000000 -49.000000
v -2.000000 0.000000 -47.230999
v 2.000000 0.000000 -46.831001
v 2.000000 0.000000 -46.831001
v -2.000000 0.000000 -47.230999
v 2.000000 0.000000 -42.230999
v 2.000000 0.000000 -42.230999
v -2.000000 0.000000 -47.230999
v -2.000000 0.000000 -41.831001
v 2.000000 0.000000 -42.230999
v -2.000000 0.000000 -41.831001
v -2.000000 0.000000 -37.230999
v -2.000000 0.000000 -31.830999
v 2.000000 0.000000 -32.231003
v -2.000000 0.000000 -37.230999
v -2.000000 0.000000 -37.230999
v 2.000000 0.000000 -32.231003
v 2.000000 0.000000 -36.831001
v -2.000000 0.000000 -37.230999
v 2.000000 0.000000 -36.831001
v 2.000000 0.000000 -42.230999
v -2.000000 0.000000 -31.830999
v -2.000000 0.000000 -27.231001
v 2.000000 0.000000 -32.231003
v 2.000000 0.000000 -32.231003
v -2.000000 0.000000 -27.231001
v 2.000000 0.000000 -26.830999
v 2.000000 0.000000 -26.830999
v -2.000000 0.000000 -27.231001
v 2.000000 0.000000 -22.231001
v 2.000000 0.000000 -22.231001
v -2.000000 0.000000 -27.231001
v -2.000000 0.000000 -21.830999
v 2.000000 0.000000 -22.231001
v -2.000000 0.000000 -21.830999
v -2.000000 0.000000 -17.230999
v -2.000000 0.000000 -11.831001
v 2.000000 0.000000 -12.230999
v -2.000000 0.000000 -17.230999
v -2.000000 0.000000 -17.230999
v 2.000000 0.000000 -12.230999
v 2.000000 0.000000 -16.831001
v -2.000000 0.000000 -17.230999
v 2.000000 0.000000 -16.831001
v 2.000000 0.000000 -22.231001
v -2.000000 0.000000 -11.831001
v -2.000000 0.000000 -7.230999
v 2.000000 0.000000 -12.230999
v 2.000000 0.000000 -12.230999
v -2.000000 0.000000 -7.230999
v 2.000000 0.000000 -6.831001
v 2.000000 0.000000 -6.831001
v -2.000000 0.000000 -7.230999
v 2.000000 0.000000 -2.230999
v 2.000000 0.000000 -2.230999
v -2.000000 0.000000 -7.230999
v -2.000000 0.000000 -1.831001
v 2.000000 0.000000 -2.230999
v -2.000000 0.000000 -1.831001
v -2.000000 0.000000 2.769001
v -2.000000 0.000000 8.168999
v 2.000000 0.000000 7.769001
v -2.000000 0.000000 2.769001
v -2.000000 0.000000 2.769001
v 2.000000 0.000000 7.769001
v 2.000000 0.000000 3.168999
v -2.000000 0.000000 2.769001
v 2.000000 0.000000 3.168999
v 2.000000 0.000000 -2.230999
v -2.000000 0.000000 8.168999
v -2.000000 0.000000 12.769001
v 2.000000 0.000000 7.769001
v 2.000000 0.000000 7.769001
v -2.000000 0.000000 12.769001
v 2.000000 0.000000 13.168999
v 2.000000 0.000000 13.168999
v -2.000000 0.000000 12.769001
v 2.000000 0.000000 17.768997
v 2.000000 0.000000 17.768997
v -2.000000 0.000000 12.769001
v -2.000000 0.000000 18.168999
v 2.000000 0.000000 17.768997
v -2.000000 0.000000 18.168999
v -2.000000 0.000000 22.768997
v -2.000000 0.000000 28.168999
v 2.000000 0.000000 27.768997
v -2.000000 0.000000 22.768997
v -2.000000 0.000000 22.768997
v 2.000000 0.000000 27.768997
v 2.000000 0.000000 23.168999
v -2.000000 0.000000 22.768997
v 2.000000 0.000000 23.168999
v 2.000000 0.000000 17.768997
v -2.000000 0.000000 28.168999
v -2.000000 0.000000 32.768997
v 2.000000 0.000000 27.768997
v 2.000000 0.000000 27.768997
v -2.000000 0.000000 32.768997
v 2.000000 0.000000 33.168999
v 2.000000 0.000000 33.168999
v -2.000000 0.000000 32.768997
v 2.000000 0.000000 37.768997
v 2.000000 0.000000 37.768997
v -2.000000 0.000000 32.768997
v -2.000000 0.000000 38.168999
v 2.000000 0.000000 37.768997
v -2.000000 0.000000 38.168999
v -2.000000 0.000000 42.768997
v -2.000000 0.000000 48.168999
v 2.000000 0.000000 47.768997
v -2.000000 0.000000 42.768997
v -2.000000 0.000000 42.768997
v 2.000000 0.000000 47.768997
v 2.000000 0.000000 43.168999
v -2.000000 0.000000 42.768997
v 2.000000 0.000000 43.168999
v 2.000000 0.000000 37.768997
v -2.000000 0.000000 48.168999
v -2.000000 0.000000 52.768997
v 2.000000 0.000000 47.768997
v 2.000000 0.000000 47.768997
v -2.000000 0.000000 52.768997
v 2.000000 0.000000 53.168999
v 2.000000 0.000000 53.168999
v -2.000000 0.000000 52.768997
v -2.000000 0.000000 54.938004
v 2.000000 0.000000 53.168999
v -2.000000 0.000000 54.938004
v 2.000000 0.000000 54.938004
v 2.000000 0.000000 3.168999
v 2.000000 -1.800003 3.168999
v 2.000000 0.000000 -2.230999
v 2.000000 0.000000 -2.230999
v 2.000000 -1.800003 3.168999
v 2.000000 -1.800003 -2.230999
v 2.000000 -1.800003 7.769001
v 2.000000 0.000000 7.769001
v 2.000000 -1.800003 13.168999
v 2.000000 -1.800003 13.168999
v 2.000000 0.000000 7.769001
v 2.000000 0.000000 13.168999
v 2.000000 -1.800003 17.768997
v 2.000000 0.000000 17.768997
v 2.000000 -1.800003 23.168999
v 2.000000 -1.800003 23.168999
v 2.000000 0.000000 17.768997
v 2.000000 0.000000 23.168999
v 2.000000 -1.800003 27.768997
v 2.000000 0.000000 27.768997
v 2.000000 -1.800003 33.168999
v 2.000000 -1.800003 33.168999
v 2.000000 0.000000 27.768997
v 2.000000 0.000000 33.168999
v 2.000000 -1.800003 37.768997
v 2.000000 0.000000 37.768997
v 2.000000 -1.800003 43.168999
v 2.000000 -1.800003 43.168999
v 2.000000 0.000000 37.768997
v 2.000000 0.000000 43.168999
v 2.000000 -1.800003 47.768997
v 2.000000 0.000000 47.768997
v 2.000000 -1.800003 53.168999
v 2.000000 -1.800003 53.168999
v 2.000000 0.000000 47.768997
v 2.000000 0.000000 53.168999
v 2.000000 0.000000 -46.831001
v 2.000000 -1.800003 -46.831001
v 2.000000 0.000000 -49.000000
v 2.000000 0.000000 -49.000000
v 2.000000 -1.800003 -46.831001
v 2.000000 -1.800003 -49.000000
v 2.000000 0.000000 -36.831001
v 2.000000 -1.800003 -36.831001
v 2.000000 0.000000 -42.230999
v 2.000000 0.000000 -42.230999
v 2.000000 -1.800003 -36.831001
v 2.000000 -1.800003 -42.230999
v 2.000000 0.000000 -26.830999
v 2.000000 -1.800003 -26.830999
v 2.000000 0.000000 -32.231003
v 2.000000 0.000000 -32.231003
v 2.000000 -1.800003 -26.830999
v 2.000000 -1.800003 -32.231003
v 2.000000 0.000000 -16.831001
v 2.000000 -1.800003 -16.831001
v 2.000000 0.000000 -22.231001
v 2.000000 0.000000 -22.231001
v 2.000000 -1.800003 -16.831001
v 2.000000 -1.800003 -22.231001
v 2.000000 0.000000 -6.831001
v 2.000000 -1.800003 -6.831001
v 2.000000 0.000000 -12.230999
v 2.000000 0.000000 -12.230999
v 2.000000 -1.800003 -6.831001
v 2.000000 -1.800003 -12.230999
v 4.000000 -3.800003 3.168999
v 6.000000 -3.800003 3.168999
v 4.000000 -3.800003 -2.230999
v 4.000000 -3.800003 -2.230999
v 6.000000 -3.800003 3.168999
v 6.000000 -3.800003 -2.230999
v 4.000000 -3.800003 -6.831001
v 6.000000 -3.800003 -6.831001
v 4.000000 -3.800003 -12.230999
v 4.000000 -3.800003 -12.230999
v 6.000000 -3.800003 -6.831001
v 6.000000 -3.800003 -12.230999
v 6.000000 -3.800003 7.769001
v 4.000000 -3.800003 7.769001
v 6.000000 -3.800003 13.168999
v 6.000000 -3.800003 13.168999
v 4.000000 -3.800003 7.769001
v 4.000000 -3.800003 13.168999
v 4.000000 -3.800003 -16.831001
v 6.000000 -3.800003 -16.831001
v 4.000000 -3.800003 -22.231001
v 4.000000 -3.800003 -22.231001
v 6.000000 -3.800003 -16.831001
v 6.000000 -3.800003 -22.231001
v 6.000000 -3.800003 17.768997
v 4.000000 -3.800003 17.768997
v 6.000000 -3.800003 23.168999
v 6.000000 -3.800003 23.168999
v 4.000000 -3.800003 17.768997
v 4.000000 -3.800003 23.168999
v 4.000000 -3.800003 -26.830999
v 6.000000 -3.800003 -26.830999
v 4.000000 -3.800003 -32.231003
v 4.000000 -3.800003 -32.231003
v 6.000000 -3.800003 -26.830999
v 6.000000 -3.800003 -32.231003
v -2.000000 -1.800003 -47.230999
v -4.000000 -3.800003 -47.230999
v -2.000000 -1.800003 -41.831001
v -2.000000 -1.800003 -41.831001
v -4.000000 -3.800003 -47.230999
v -4.000000 -3.800003 -41.831001
v -2.000000 0.000000 12.769001
v -2.000000 -1.800003 12.769001
v -2.000000 0.000000 18.168999
v -2.000000 0.000000 18.168999
v -2.000000 -1.800003 12.769001
v -2.000000 -1.800003 18.168999
v -2.000000 -1.800003 -31.830999
v -2.000000 0.000000 -31.830999
v -2.000000 -1.800003 -37.230999
v -2.000000 -1.800003 -37.230999
v -2.000000 0.000000 -31.830999
v -2.000000 0.000000 -37.230999
v -2.000000 0.000000 22.768997
v -2.000000 -1.800003 22.768997
v -2.000000 0.000000 28.168999
v -2.000000 0.000000 28.168999
v -2.000000 -1.800003 22.768997
v -2.000000 -1.800003 28.168999
v -2.000000 -1.800003 -41.831001
v -2.000000 0.000000 -41.831001
v -2.000000 -1.800003 -47.230999
v -2.000000 -1.800003 -47.230999
v -2.000000 0.000000 -41.831001
v -2.000000 0.000000 -47.230999
v -2.000000 0.000000 32.768997
v -2.000000 -1.800003 32.768997
v -2.000000 0.000000 38.168999
v -2.000000 0.000000 38.168999
v -2.000000 -1.800003 32.768997
v -2.000000 -1.800003 38.168999
v -2.000000 -1.800003 54.938004
v -2.000000 0.000000 54.938004
v -2.000000 -1.800003 52.768997
v -2.000000 -1.800003 52.768997
v -2.000000 0.000000 54.938004
v -2.000000 0.000000 52.768997
v -2.000000 0.000000 42.768997
v -2.000000 -1.800003 42.768997
v -2.000000 0.000000 48.168999
v -2.000000 0.000000 48.168999
v -2.000000 -1.800003 42.768997
v -2.000000 -1.800003 48.168999
v -2.000000 -1.800003 -17.230999
v -2.000000 0.000000 -17.230999
v -4.000000 -3.800003 -17.230999
v -4.000000 -3.800003 -17.230999
v -2.000000 0.000000 -17.230999
v -5.000000 3.000000 -17.230999
v -4.000000 -3.800003 -17.230999
v -5.000000 3.000000 -17.230999
v -6.000000 -3.800003 -17.230999
v -6.000000 -3.800003 -17.230999
v -5.000000 3.000000 -17.230999
v -6.000000 3.000000 -17.230999
v -2.000000 -1.800003 -27.231001
v -4.000000 -3.800003 -27.231001
v -2.000000 -1.800003 -21.830999
v -2.000000 -1.800003 -21.830999
v -4.000000 -3.800003 -27.231001
v -4.000000 -3.800003 -21.830999
v -2.000000 -1.800003 -31.830999
v -4.000000 -3.800003 -31.830999
v -2.000000 0.000000 -31.830999
v -2.000000 0.000000 -31.830999
v -4.000000 -3.800003 -31.830999
v -5.000000 3.000000 -31.830999
v -5.000000 3.000000 -31.830999
v -4.000000 -3.800003 -31.830999
v -6.000000 -3.800003 -31.830999
v -5.000000 3.000000 -31.830999
v -6.000000 -3.800003 -31.830999
v -6.000000 3.000000 -31.830999
v -2.000000 -1.800003 -27.231001
v -2.000000 0.000000 -27.231001
v -4.000000 -3.800003 -27.231001
v -4.000000 -3.800003 -27.231001
v -2.000000 0.000000 -27.231001
v -5.000000 3.000000 -27.231001
v -4.000000 -3.800003 -27.231001
v -5.000000 3.000000 -27.231001
v -6.000000 -3.800003 -27.231001
v -6.000000 -3.800003 -27.231001
v -5.000000 3.000000 -27.231001
v -6.000000 3.000000 -27.231001
v -2.000000 -1.800003 -37.230999
v -4.000000 -3.800003 -37.230999
v -2.000000 -1.800003 -31.830999
v -2.000000 -1.800003 -31.830999
v -4.000000 -3.800003 -37.230999
v -4.000000 -3.800003 -31.830999
v -2.000000 0.000000 -31.830999
v -5.000000 3.000000 -31.830999
v -2.000000 0.000000 -27.231001
v -2.000000 0.000000 -27.231001
v -5.000000 3.000000 -31.830999
v -5.000000 3.000000 -27.231001
v -5.000000 3.000000 -31.830999
v -6.000000 3.000000 -31.830999
v -5.000000 3.000000 -27.231001
v -5.000000 3.000000 -27.231001
v -6.000000 3.000000 -31.830999
v -6.000000 3.000000 -27.231001
v -4.000000 -3.800003 52.768997
v -6.000000 -3.800003 52.768997
v -4.000000 -3.800003 54.938004
v -4.000000 -3.800003 54.938004
v -6.000000 -3.800003 52.768997
v -6.000000 -3.800003 54.938004
v -4.000000 -3.800003 32.768997
v -6.000000 -3.800003 32.768997
v -4.000000 -3.800003 38.168999
v -4.000000 -3.800003 38.168999
v -6.000000 -3.800003 32.768997
v -6.000000 -3.800003 38.168999
v -6.000000 -3.800003 -1.831001
v -4.000000 -3.800003 -1.831001
v -6.000000 -3.800003 -7.230999
v -6.000000 -3.800003 -7.230999
v -4.000000 -3.800003 -1.831001
v -4.000000 -3.800003 -7.230999
v -4.000000 -3.800003 42.768997
v -6.000000 -3.800003 42.768997
v -4.000000 -3.800003 48.168999
v -4.000000 -3.800003 48.168999
v -6.000000 -3.800003 42.768997
v -6.000000 -3.800003 48.168999
v -6.000000 -3.800003 -11.831001
v -4.000000 -3.800003 -11.831001
v -6.000000 -3.800003 -17.230999
v -6.000000 -3.800003 -17.230999
v -4.000000 -3.800003 -11.831001
v -4.000000 -3.800003 -17.230999
v -6.000000 -3.800003 -21.830999
v -4.000000 -3.800003 -21.830999
v -6.000000 -3.800003 -27.231001
v -6.000000 -3.800003 -27.231001
v -4.000000 -3.800003 -21.830999
v -4.000000 -3.800003 -27.231001
v -6.000000 -3.800003 -31.830999
v -4.000000 -3.800003 -31.830999
v -6.000000 -3.800003 -37.230999
v -6.000000 -3.800003 -37.230999
v -4.000000 -3.800003 -31.830999
v -4.000000 -3.800003 -37.230999
v -2.000000 -1.800003 -11.831001
v -4.000000 -3.800003 -11.831001
v -2.000000 0.000000 -11.831001
v -2.000000 0.000000 -11.831001
v -4.000000 -3.800003 -11.831001
v -5.000000 3.000000 -11.831001
v -5.000000 3.000000 -11.831001
v -4.000000 -3.800003 -11.831001
v -6.000000 -3.800003 -11.831001
v -5.000000 3.000000 -11.831001
v -6.000000 -3.800003 -11.831001
v -6.000000 3.000000 -11.831001
v -2.000000 -1.800003 -7.230999
v -2.000000 0.000000 -7.230999
v -4.000000 -3.800003 -7.230999
v -4.000000 -3.800003 -7.230999
v -2.000000 0.000000 -7.230999
v -5.000000 3.000000 -7.230999
v -4.000000 -3.800003 -7.230999
v -5.000000 3.000000 -7.230999
v -6.000000 -3.800003 -7.230999
v -6.000000 -3.800003 -7.230999
v -5.000000 3.000000 -7.230999
v -6.000000 3.000000 -7.230999
v -2.000000 -1.800003 -17.230999
v -4.000000 -3.800003 -17.230999
v -2.000000 -1.800003 -11.831001
v -2.000000 -1.800003 -11.831001
v -4.000000 -3.800003 -17.230999
v -4.000000 -3.800003 -11.831001
v -2.000000 -1.800003 -21.830999
v -4.000000 -3.800003 -21.830999
v -2.000000 0.000000 -21.830999
v -2.000000 0.000000 -21.830999
v -4.000000 -3.800003 -21.830999
v -5.000000 3.000000 -21.830999
v -5.000000 3.000000 -21.830999
v -4.000000 -3.800003 -21.830999
v -6.000000 -3.800003 -21.830999
v -5.000000 3.000000 -21.830999
v -6.000000 -3.800003 -21.830999
v -6.000000 3.000000 -21.830999
v -2.000000 0.000000 -11.831001
v -5.000000 3.000000 -11.831001
v -2.000000 0.000000 -7.230999
v -2.000000 0.000000 -7.230999
v -5.000000 3.000000 -11.831001
v -5.000000 3.000000 -7.230999
v -2.000000 0.000000 -21.830999
v -5.000000 3.000000 -21.830999
v -2.000000 0.000000 -17.230999
v -2.000000 0.000000 -17.230999
v -5.000000 3.000000 -21.830999
v -5.000000 3.000000 -17.230999
v -5.000000 3.000000 -21.830999
v -6.000000 3.000000 -21.830999
v -5.000000 3.000000 -17.230999
v -5.000000 3.000000 -17.230999
v -6.000000 3.000000 -21.830999
v -6.000000 3.000000 -17.230999
vn -1.0000 -0.0000 -0.0000
vn -0.0000 -0.0000 -1.0000
vn -0.0000 -0.0000 1.0000
vn -0.0000 1.0000 -0.0000
vn 0.7071 0.7071 -0.0000
vn -0.7071 0.7071 -0.0000
vn 1.0000 -0.0000 -0.0000
vt 0.427618 0.574599
vt 0.427618 0.443751
vt 0.339104 0.574599
vt 0.339104 0.443751
vt -0.472322 0.424509
vt 0.235196 0.443751
vt 0.146681 0.443751
vt 0.146681 0.574599
vt 0.531526 0.443751
vt 1.527678 0.424509
vt 0.620041 0.443751
vt 0.723949 0.443751
vt 0.531526 0.574599
vt 0.620041 0.574599
vt 0.812463 0.443751
vt 0.723949 0.574599
vt 0.812463 0.574599
vt 0.916371 0.443751
vt 1.004885 0.443751
vt 1.108793 0.443751
vt 0.916371 0.574599
vt 1.004885 0.574599
vt 1.197308 0.443751
vt 1.108793 0.574599
vt 1.197308 0.574599
vt 1.301216 0.443751
vt 1.389730 0.443751
vt 1.493638 0.443751
vt 1.301216 0.574599
vt 1.389730 0.574599
vt 1.493638 0.574599
vt 1.527678 0.574599
vt -0.472322 0.443751
vt -0.430586 0.443751
vt -0.342071 0.443751
vt -0.238163 0.443751
vt -0.430586 0.574599
vt -0.342071 0.574599
vt -0.149649 0.443751
vt -0.238163 0.574599
vt -0.149649 0.574599
vt -0.045741 0.443751
vt 0.042773 0.443751
vt -0.045741 0.574599
vt 0.042773 0.574599
vt 0.235196 0.574599
vt 0.489291 0.482236
vt 0.450806 0.443751
vt 0.489291 0.516872
vt 0.431564 0.574599
vt 0.412322 0.443751
vt 0.412322 0.574599
vt 0.431564 -0.369846
vt 0.412322 -0.369846
vt 0.431564 -0.458361
vt 0.412322 -0.458361
vt 0.489291 -0.369846
vt 0.489291 -0.458361
vt 0.489291 -0.177424
vt 0.431564 -0.177424
vt 0.489291 -0.265938
vt 0.431564 -0.265938
vt 0.412322 -0.177424
vt 0.412322 -0.265938
vt 0.431564 0.014998
vt 0.412322 0.014998
vt 0.431564 -0.073516
vt 0.412322 -0.073516
vt 0.431564 0.207421
vt 0.412322 0.207421
vt 0.431564 0.118907
vt 0.412322 0.118907
vt 0.431564 0.399843
vt 0.412322 0.399843
vt 0.431564 0.311329
vt 0.412322 0.311329
vt 0.431564 0.784688
vt 0.412322 0.784688
vt 0.431564 0.696174
vt 0.412322 0.696174
vt 0.489291 0.696174
vt 0.450806 0.696174
vt 0.489291 0.592266
vt 0.450806 0.592266
vt 0.431564 0.592266
vt 0.412322 0.592266
vt 0.431564 0.503751
vt 0.412322 0.503751
vt 0.489291 0.503751
vt 0.489291 0.014998
vt 0.489291 -0.073516
vt 0.489291 0.207421
vt 0.489291 0.118907
vt 0.489291 0.399843
vt 0.489291 0.311329
vt 0.450806 0.118907
vt 0.450806 0.014998
vt 0.450806 -0.073516
vt 0.450806 -0.177424
vt 0.450806 0.311329
vt 0.450806 0.207421
vt 0.450806 0.503751
vt 0.450806 0.399843
vt 0.566260 0.482236
vt 0.604744 0.443751
vt 0.566260 0.516872
vt 0.623986 0.574599
vt 0.643229 0.443751
vt 0.643229 0.574599
vt 0.450806 -0.500097
vt 0.489291 -0.500097
vt 0.450806 -0.458361
vt 0.450806 -0.265938
vt 0.450806 -0.369846
vt 0.566260 1.369652
vt 0.623986 1.369652
vt 0.566260 1.458166
vt 0.623986 1.458166
vt 0.566260 -0.362149
vt 0.623986 -0.362149
vt 0.566260 -0.273635
vt 0.623986 -0.273635
vt 0.604744 1.499903
vt 0.566260 1.499903
vt 0.604744 1.458166
vt 0.566260 -0.500097
vt 0.623986 -0.500097
vt 0.566260 -0.466058
vt 0.623986 -0.466058
vt 0.604744 -0.466058
vt 0.604744 -0.362149
vt 0.643229 -0.500097
vt 0.643229 -0.466058
vt 0.643229 -0.362149
vt 0.643229 -0.273635
vt 0.604744 -0.273635
vt 0.566260 -0.169727
vt 0.604744 -0.169727
vt 0.623986 -0.169727
vt 0.566260 -0.081213
vt 0.623986 -0.081213
vt 0.604744 -0.081213
vt 0.566260 0.022695
vt 0.604744 0.022695
vt 0.623986 0.022695
vt 0.566260 0.111210
vt 0.623986 0.111210
vt 0.643229 -0.169727
vt 0.643229 -0.081213
vt 0.643229 0.022695
vt 0.643229 0.111210
vt 0.566260 0.215118
vt 0.623986 0.215118
vt 0.566260 0.303632
vt 0.623986 0.303632
vt 0.604744 0.111210
vt 0.604744 0.215118
vt 0.604744 0.303632
vt 0.566260 0.407540
vt 0.604744 0.407540
vt 0.623986 0.407540
vt 0.566260 0.496055
vt 0.623986 0.496055
vt 0.643229 0.215118
vt 0.643229 0.303632
vt 0.643229 0.407540
vt 0.643229 0.496055
vt 0.435315 0.574599
vt 0.435315 0.443751
vt 0.523829 0.574599
vt 0.523829 0.443751
vt 0.331407 0.443751
vt 0.242893 0.443751
vt 0.138985 0.443751
vt 0.331407 0.574599
vt 0.242893 0.574599
vt 0.050470 0.443751
vt 0.138985 0.574599
vt 0.050470 0.574599
vt -0.053438 0.443751
vt -0.141952 0.443751
vt -0.245860 0.443751
vt -0.053438 0.574599
vt -0.141952 0.574599
vt -0.334374 0.443751
vt -0.245860 0.574599
vt -0.334374 0.574599
vt -0.438283 0.443751
vt -0.472322 0.574599
vt -0.438283 0.574599
vt 1.527678 0.443751
vt 1.485941 0.443751
vt 1.397427 0.443751
vt 1.293519 0.443751
vt 1.485941 0.574599
vt 1.397427 0.574599
vt 1.205005 0.443751
vt 1.293519 0.574599
vt 1.205005 0.574599
vt 1.101097 0.443751
vt 1.012582 0.443751
vt 0.908674 0.443751
vt 1.101097 0.574599
vt 1.012582 0.574599
vt 0.820160 0.443751
vt 0.908674 0.574599
vt 0.820160 0.574599
vt 0.716252 0.443751
vt 0.627737 0.443751
vt 0.716252 0.574599
vt 0.627737 0.574599
vt 0.604744 0.496055
vt 0.566260 0.599962
vt 0.604744 0.599962
vt 0.623986 0.599962
vt 0.566260 0.688477
vt 0.623986 0.688477
vt 0.604744 0.688477
vt 0.566260 0.792385
vt 0.604744 0.792385
vt 0.623986 0.792385
vt 0.566260 0.880899
vt 0.623986 0.880899
vt 0.604744 0.880899
vt 0.566260 0.984807
vt 0.604744 0.984807
vt 0.643229 0.599962
vt 0.643229 0.688477
vt 0.643229 0.792385
vt 0.643229 0.880899
vt 0.566260 1.073322
vt 0.604744 1.073322
vt 0.566260 1.177230
vt 0.604744 1.177230
vt 0.623986 0.984807
vt 0.623986 1.073322
vt 0.623986 1.177230
vt 0.566260 1.265744
vt 0.623986 1.265744
vt 0.604744 1.265744
vt 0.604744 1.369652
vt 0.643229 0.984807
vt 0.643229 1.073322
vt 0.643229 1.177230
vt 0.643229 1.265744
vt 0.643229 1.369652
vt 0.643229 1.458166
vt 0.489291 1.361955
vt 0.431564 1.361955
vt 0.489291 1.273441
vt 0.431564 1.273441
vt 0.489291 1.499903
vt 0.431564 1.499903
vt 0.489291 1.465863
vt 0.431564 1.465863
vt 0.412322 1.361955
vt 0.412322 1.273441
vt 0.412322 1.499903
vt 0.412322 1.465863
vt 0.643229 1.499903
vt 0.450806 1.465863
vt 0.450806 1.361955
vt 0.620041 0.482236
vt 0.620041 0.516872
vt 0.723949 0.482236
vt 0.723949 0.516872
vt 0.812463 0.482236
vt 0.812463 0.516872
vt 0.916371 0.482236
vt 0.916371 0.516872
vt 0.531526 0.516872
vt 0.531526 0.482236
vt 0.427618 0.516872
vt 0.427618 0.482236
vt 1.004885 0.482236
vt 1.004885 0.516872
vt 1.108793 0.482236
vt 1.108793 0.516872
vt 0.489291 1.169533
vt 0.489291 1.081018
vt 0.489291 0.977110
vt 0.489291 0.888596
vt 0.489291 0.784688
vt 0.523829 0.516872
vt 0.523829 0.482236
vt 0.627737 0.516872
vt 0.627737 0.482236
vt 0.435315 0.482236
vt 0.435315 0.516872
vt 0.331407 0.482236
vt 0.331407 0.516872
vt 0.242893 0.482236
vt 0.242893 0.516872
vt 0.138985 0.482236
vt 0.138985 0.516872
vt 0.050470 0.482236
vt 0.050470 0.516872
vt -0.053438 0.482236
vt -0.053438 0.516872
vt -0.141952 0.482236
vt -0.141952 0.516872
vt -0.245860 0.482236
vt -0.245860 0.516872
vt -0.334374 0.482236
vt -0.334374 0.516872
vt -0.438283 0.482236
vt -0.438283 0.516872
vt 1.485941 0.516872
vt 1.485941 0.482236
vt 1.527678 0.516872
vt 1.527678 0.482236
vt 1.293519 0.516872
vt 1.293519 0.482236
vt 1.397427 0.516872
vt 1.397427 0.482236
vt 1.101097 0.516872
vt 1.101097 0.482236
vt 1.205005 0.516872
vt 1.205005 0.482236
vt 0.908674 0.516872
vt 0.908674 0.482236
vt 1.012582 0.516872
vt 1.012582 0.482236
vt 0.716252 0.516872
vt 0.716252 0.482236
vt 0.820160 0.516872
vt 0.820160 0.482236
vt 0.339104 0.516872
vt 0.339104 0.482236
vt 0.235196 0.516872
vt 0.235196 0.482236
vt 1.197308 0.482236
vt 1.197308 0.516872
vt 1.301216 0.482236
vt 1.301216 0.516872
vt 0.146681 0.516872
vt 0.146681 0.482236
vt 0.042773 0.516872
vt 0.042773 0.482236
vt 1.389730 0.482236
vt 1.389730 0.516872
vt 1.493638 0.482236
vt 1.493638 0.516872
vt -0.045741 0.516872
vt -0.045741 0.482236
vt -0.149649 0.516872
vt -0.149649 0.482236
vt -0.472322 0.482236
vt -0.472322 0.516872
vt -0.430586 0.482236
vt -0.430586 0.516872
vt -0.238163 0.516872
vt -0.238163 0.482236
vt -0.342071 0.516872
vt -0.342071 0.482236
vt 0.450806 1.081018
vt 0.450806 0.977110
vt 0.450806 1.273441
vt 0.450806 1.169533
vt 0.431564 1.169533
vt 0.431564 1.081018
vt 0.412322 1.169533
vt 0.412322 1.081018
vt 0.412322 -0.500097
vt 0.450806 0.784688
vt 0.412322 0.888596
vt 0.450806 0.888596
vt 0.412322 0.977110
vt 0.431564 0.977110
vt 0.431564 0.888596
s 0
f 1/1/1 2/2/1 3/3/1
f 4/3/1 5/2/1 6/4/1
f 7/4/1 8/2/1 9/5/1
f 10/4/1 11/5/1 12/6/1
f 13/6/1 14/5/1 15/7/1
f 16/6/1 17/7/1 18/8/1
f 19/2/1 20/9/1 21/5/1
f 22/5/1 23/9/1 24/10/1
f 25/10/1 26/9/1 27/11/1
f 28/10/1 29/11/1 30/12/1
f 31/9/1 32/13/1 33/11/1
f 34/11/1 35/13/1 36/14/1
f 37/10/1 38/12/1 39/15/1
f 40/15/1 41/12/1 42/16/1
f 43/15/1 44/16/1 45/17/1
f 46/15/1 47/18/1 48/10/1
f 49/10/1 50/18/1 51/19/1
f 52/10/1 53/19/1 54/20/1
f 55/18/1 56/21/1 57/19/1
f 58/19/1 59/21/1 60/22/1
f 61/10/1 62/20/1 63/23/1
f 64/23/1 65/20/1 66/24/1
f 67/23/1 68/24/1 69/25/1
f 70/23/1 71/26/1 72/10/1
f 73/10/1 74/26/1 75/27/1
f 76/10/1 77/27/1 78/28/1
f 79/26/1 80/29/1 81/27/1
f 82/27/1 83/29/1 84/30/1
f 85/31/1 86/32/1 87/28/1
f 88/28/1 89/32/1 90/10/1
f 91/33/1 92/34/1 93/5/1
f 94/5/1 95/34/1 96/35/1
f 97/5/1 98/35/1 99/36/1
f 100/34/1 101/37/1 102/35/1
f 103/35/1 104/37/1 105/38/1
f 106/5/1 107/36/1 108/39/1
f 109/39/1 110/36/1 111/40/1
f 112/39/1 113/40/1 114/41/1
f 115/39/1 116/42/1 117/5/1
f 118/5/1 119/42/1 120/43/1
f 121/5/1 122/43/1 123/7/1
f 124/42/1 125/44/1 126/43/1
f 127/43/1 128/44/1 129/45/1
f 130/8/1 131/46/1 132/6/1
f 133/47/2 134/48/2 135/49/2
f 136/49/2 137/48/2 138/50/2
f 139/50/2 140/48/2 141/51/2
f 142/50/2 143/51/2 144/52/2
f 145/47/3 146/49/3 147/48/3
f 148/48/3 149/49/3 150/50/3
f 151/48/3 152/50/3 153/51/3
f 154/51/3 155/50/3 156/52/3
f 157/47/2 158/48/2 159/49/2
f 160/49/2 161/48/2 162/50/2
f 163/50/2 164/48/2 165/51/2
f 166/50/2 167/51/2 168/52/2
f 169/47/3 170/49/3 171/48/3
f 172/48/3 173/49/3 174/50/3
f 175/48/3 176/50/3 177/51/3
f 178/51/3 179/50/3 180/52/3
f 181/53/4 182/54/4 183/55/4
f 184/55/4 185/54/4 186/56/4
f 187/57/5 188/53/5 189/58/5
f 190/58/5 191/53/5 192/55/5
f 193/59/5 194/60/5 195/61/5
f 196/61/5 197/60/5 198/62/5
f 199/60/4 200/63/4 201/62/4
f 202/62/4 203/63/4 204/64/4
f 205/65/4 206/66/4 207/67/4
f 208/67/4 209/66/4 210/68/4
f 211/69/4 212/70/4 213/71/4
f 214/71/4 215/70/4 216/72/4
f 217/73/4 218/74/4 219/75/4
f 220/75/4 221/74/4 222/76/4
f 223/77/4 224/78/4 225/79/4
f 226/79/4 227/78/4 228/80/4
f 229/81/6 230/82/6 231/83/6
f 232/83/6 233/82/6 234/84/6
f 235/85/4 236/86/4 237/87/4
f 238/87/4 239/86/4 240/88/4
f 241/47/2 242/48/2 243/49/2
f 244/49/2 245/48/2 246/50/2
f 247/50/2 248/48/2 249/51/2
f 250/50/2 251/51/2 252/52/2
f 253/83/5 254/85/5 255/89/5
f 256/89/5 257/85/5 258/87/5
f 259/47/3 260/49/3 261/48/3
f 262/48/3 263/49/3 264/50/3
f 265/48/3 266/50/3 267/51/3
f 268/51/3 269/50/3 270/52/3
f 271/90/5 272/65/5 273/91/5
f 274/91/5 275/65/5 276/67/5
f 277/92/5 278/69/5 279/93/5
f 280/93/5 281/69/5 282/71/5
f 283/94/5 284/73/5 285/95/5
f 286/95/5 287/73/5 288/75/5
f 289/93/6 290/96/6 291/90/6
f 292/90/6 293/96/6 294/97/6
f 295/91/6 296/98/6 297/59/6
f 298/59/6 299/98/6 300/99/6
f 301/95/6 302/100/6 303/92/6
f 304/92/6 305/100/6 306/101/6
f 307/89/6 308/102/6 309/94/6
f 310/94/6 311/102/6 312/103/6
f 313/104/3 314/105/3 315/106/3
f 316/106/3 317/105/3 318/107/3
f 319/107/3 320/105/3 321/108/3
f 322/107/3 323/108/3 324/109/3
f 325/104/2 326/106/2 327/105/2
f 328/105/2 329/106/2 330/107/2
f 331/105/2 332/107/2 333/108/2
f 334/108/2 335/107/2 336/109/2
f 337/47/2 338/48/2 339/49/2
f 340/49/2 341/48/2 342/50/2
f 343/50/2 344/48/2 345/51/2
f 346/50/2 347/51/2 348/52/2
f 349/47/3 350/49/3 351/48/3
f 352/48/3 353/49/3 354/50/3
f 355/48/3 356/50/3 357/51/3
f 358/51/3 359/50/3 360/52/3
f 361/47/2 362/48/2 363/49/2
f 364/49/2 365/48/2 366/50/2
f 367/50/2 368/48/2 369/51/2
f 370/50/2 371/51/2 372/52/2
f 373/47/3 374/49/3 375/48/3
f 376/48/3 377/49/3 378/50/3
f 379/48/3 380/50/3 381/51/3
f 382/51/3 383/50/3 384/52/3
f 385/47/2 386/48/2 387/49/2
f 388/49/2 389/48/2 390/50/2
f 391/50/2 392/48/2 393/51/2
f 394/50/2 395/51/2 396/52/2
f 397/47/3 398/49/3 399/48/3
f 400/48/3 401/49/3 402/50/3
f 403/48/3 404/50/3 405/51/3
f 406/51/3 407/50/3 408/52/3
f 409/110/6 410/111/6 411/112/6
f 412/112/6 413/111/6 414/58/6
f 415/61/6 416/113/6 417/57/6
f 418/57/6 419/113/6 420/114/6
f 421/115/6 422/116/6 423/117/6
f 424/117/6 425/116/6 426/118/6
f 427/104/2 428/106/2 429/105/2
f 430/105/2 431/106/2 432/107/2
f 433/105/2 434/107/2 435/108/2
f 436/108/2 437/107/2 438/109/2
f 439/119/6 440/120/6 441/121/6
f 442/121/6 443/120/6 444/122/6
f 445/123/5 446/124/5 447/125/5
f 448/125/5 449/124/5 450/117/5
f 451/104/2 452/106/2 453/105/2
f 454/105/2 455/106/2 456/107/2
f 457/105/2 458/107/2 459/108/2
f 460/108/2 461/107/2 462/109/2
f 463/126/6 464/127/6 465/128/6
f 466/128/6 467/127/6 468/129/6
f 469/128/5 470/130/5 471/119/5
f 472/119/5 473/130/5 474/131/5
f 475/127/4 476/132/4 477/129/4
f 478/129/4 479/132/4 480/133/4
f 481/120/4 482/134/4 483/122/4
f 484/122/4 485/134/4 486/135/4
f 487/104/3 488/105/3 489/106/3
f 490/106/3 491/105/3 492/107/3
f 493/107/3 494/105/3 495/108/3
f 496/107/3 497/108/3 498/109/3
f 499/121/5 500/136/5 501/137/5
f 502/137/5 503/136/5 504/138/5
f 505/104/2 506/106/2 507/105/2
f 508/105/2 509/106/2 510/107/2
f 511/105/2 512/107/2 513/108/2
f 514/108/2 515/107/2 516/109/2
f 517/137/6 518/139/6 519/140/6
f 520/140/6 521/139/6 522/141/6
f 523/104/3 524/105/3 525/106/3
f 526/106/3 527/105/3 528/107/3
f 529/107/3 530/105/3 531/108/3
f 532/107/3 533/108/3 534/109/3
f 535/140/5 536/142/5 537/143/5
f 538/143/5 539/142/5 540/144/5
f 541/104/2 542/106/2 543/105/2
f 544/105/2 545/106/2 546/107/2
f 547/105/2 548/107/2 549/108/2
f 550/108/2 551/107/2 552/109/2
f 553/143/6 554/145/6 555/146/6
f 556/146/6 557/145/6 558/147/6
f 559/104/3 560/105/3 561/106/3
f 562/106/3 563/105/3 564/107/3
f 565/107/3 566/105/3 567/108/3
f 568/107/3 569/108/3 570/109/3
f 571/139/4 572/148/4 573/141/4
f 574/141/4 575/148/4 576/149/4
f 577/145/4 578/150/4 579/147/4
f 580/147/4 581/150/4 582/151/4
f 583/104/2 584/106/2 585/105/2
f 586/105/2 587/106/2 588/107/2
f 589/105/2 590/107/2 591/108/2
f 592/108/2 593/107/2 594/109/2
f 595/152/6 596/153/6 597/154/6
f 598/154/6 599/153/6 600/155/6
f 601/104/3 602/105/3 603/106/3
f 604/106/3 605/105/3 606/107/3
f 607/107/3 608/105/3 609/108/3
f 610/107/3 611/108/3 612/109/3
f 613/104/2 614/106/2 615/105/2
f 616/105/2 617/106/2 618/107/2
f 619/105/2 620/107/2 621/108/2
f 622/108/2 623/107/2 624/109/2
f 625/146/5 626/156/5 627/152/5
f 628/152/5 629/156/5 630/157/5
f 631/154/5 632/158/5 633/159/5
f 634/159/5 635/158/5 636/160/5
f 637/159/6 638/161/6 639/162/6
f 640/162/6 641/161/6 642/163/6
f 643/104/3 644/105/3 645/106/3
f 646/106/3 647/105/3 648/107/3
f 649/107/3 650/105/3 651/108/3
f 652/107/3 653/108/3 654/109/3
f 655/153/4 656/164/4 657/155/4
f 658/155/4 659/164/4 660/165/4
f 661/161/4 662/166/4 663/163/4
f 664/163/4 665/166/4 666/167/4
f 667/168/7 668/169/7 669/170/7
f 670/170/7 671/169/7 672/171/7
f 673/171/7 674/169/7 675/5/7
f 676/171/7 677/5/7 678/10/7
f 679/169/7 680/172/7 681/5/7
f 682/5/7 683/172/7 684/173/7
f 685/5/7 686/173/7 687/174/7
f 688/172/7 689/175/7 690/173/7
f 691/173/7 692/175/7 693/176/7
f 694/5/7 695/174/7 696/177/7
f 697/177/7 698/174/7 699/178/7
f 700/177/7 701/178/7 702/179/7
f 703/177/7 704/180/7 705/5/7
f 706/5/7 707/180/7 708/181/7
f 709/5/7 710/181/7 711/182/7
f 712/180/7 713/183/7 714/181/7
f 715/181/7 716/183/7 717/184/7
f 718/5/7 719/182/7 720/185/7
f 721/185/7 722/182/7 723/186/7
f 724/185/7 725/186/7 726/187/7
f 727/185/7 728/188/7 729/5/7
f 730/5/7 731/188/7 732/189/7
f 733/189/7 734/188/7 735/190/7
f 736/191/7 737/192/7 738/10/7
f 739/10/7 740/192/7 741/193/7
f 742/10/7 743/193/7 744/194/7
f 745/192/7 746/195/7 747/193/7
f 748/193/7 749/195/7 750/196/7
f 751/10/7 752/194/7 753/197/7
f 754/197/7 755/194/7 756/198/7
f 757/197/7 758/198/7 759/199/7
f 760/197/7 761/200/7 762/10/7
f 763/10/7 764/200/7 765/201/7
f 766/10/7 767/201/7 768/202/7
f 769/200/7 770/203/7 771/201/7
f 772/201/7 773/203/7 774/204/7
f 775/10/7 776/202/7 777/205/7
f 778/205/7 779/202/7 780/206/7
f 781/205/7 782/206/7 783/207/7
f 784/205/7 785/208/7 786/10/7
f 787/10/7 788/208/7 789/209/7
f 790/10/7 791/209/7 792/171/7
f 793/208/7 794/210/7 795/209/7
f 796/209/7 797/210/7 798/211/7
f 799/162/5 800/212/5 801/213/5
f 802/213/5 803/212/5 804/214/5
f 805/104/2 806/106/2 807/105/2
f 808/105/2 809/106/2 810/107/2
f 811/105/2 812/107/2 813/108/2
f 814/108/2 815/107/2 816/109/2
f 817/213/6 818/215/6 819/216/6
f 820/216/6 821/215/6 822/217/6
f 823/104/3 824/105/3 825/106/3
f 826/106/3 827/105/3 828/107/3
f 829/107/3 830/105/3 831/108/3
f 832/107/3 833/108/3 834/109/3
f 835/216/5 836/218/5 837/219/5
f 838/219/5 839/218/5 840/220/5
f 841/104/2 842/106/2 843/105/2
f 844/105/2 845/106/2 846/107/2
f 847/105/2 848/107/2 849/108/2
f 850/108/2 851/107/2 852/109/2
f 853/219/6 854/221/6 855/222/6
f 856/222/6 857/221/6 858/223/6
f 859/104/3 860/105/3 861/106/3
f 862/106/3 863/105/3 864/107/3
f 865/107/3 866/105/3 867/108/3
f 868/107/3 869/108/3 870/109/3
f 871/222/5 872/224/5 873/225/5
f 874/225/5 875/224/5 876/226/5
f 877/215/4 878/227/4 879/217/4
f 880/217/4 881/227/4 882/228/4
f 883/221/4 884/229/4 885/223/4
f 886/223/4 887/229/4 888/230/4
f 889/104/2 890/106/2 891/105/2
f 892/105/2 893/106/2 894/107/2
f 895/105/2 896/107/2 897/108/2
f 898/108/2 899/107/2 900/109/2
f 901/231/5 902/232/5 903/233/5
f 904/233/5 905/232/5 906/234/5
f 907/225/6 908/235/6 909/231/6
f 910/231/6 911/235/6 912/236/6
f 913/104/3 914/105/3 915/106/3
f 916/106/3 917/105/3 918/107/3
f 919/107/3 920/105/3 921/108/3
f 922/107/3 923/108/3 924/109/3
f 925/104/2 926/106/2 927/105/2
f 928/105/2 929/106/2 930/107/2
f 931/105/2 932/107/2 933/108/2
f 934/108/2 935/107/2 936/109/2
f 937/233/6 938/237/6 939/238/6
f 940/238/6 941/237/6 942/239/6
f 943/104/3 944/105/3 945/106/3
f 946/106/3 947/105/3 948/107/3
f 949/107/3 950/105/3 951/108/3
f 952/107/3 953/108/3 954/109/3
f 955/238/5 956/240/5 957/115/5
f 958/115/5 959/240/5 960/241/5
f 961/235/4 962/242/4 963/236/4
f 964/236/4 965/242/4 966/243/4
f 967/237/4 968/244/4 969/239/4
f 970/239/4 971/244/4 972/245/4
f 973/116/4 974/246/4 975/118/4
f 976/118/4 977/246/4 978/247/4
f 979/47/2 980/48/2 981/49/2
f 982/49/2 983/48/2 984/50/2
f 985/50/2 986/48/2 987/51/2
f 988/50/2 989/51/2 990/52/2
f 991/47/3 992/49/3 993/48/3
f 994/48/3 995/49/3 996/50/3
f 997/48/3 998/50/3 999/51/3
f 1000/51/3 1001/50/3 1002/52/3
f 1003/47/3 1004/49/3 1005/48/3
f 1006/48/3 1007/49/3 1008/50/3
f 1009/48/3 1010/50/3 1011/51/3
f 1012/51/3 1013/50/3 1014/52/3
f 1015/248/5 1016/249/5 1017/250/5
f 1018/250/5 1019/249/5 1020/251/5
f 1021/252/5 1022/253/5 1023/254/5
f 1024/254/5 1025/253/5 1026/255/5
f 1027/249/4 1028/256/4 1029/251/4
f 1030/251/4 1031/256/4 1032/257/4
f 1033/253/4 1034/258/4 1035/255/4
f 1036/255/4 1037/258/4 1038/259/4
f 1039/125/4 1040/247/4 1041/123/4
f 1042/123/4 1043/247/4 1044/260/4
f 1045/150/4 1046/144/4 1047/149/4
f 1048/149/4 1049/144/4 1050/142/4
f 1051/240/4 1052/245/4 1053/241/4
f 1054/241/4 1055/245/4 1056/246/4
f 1057/148/4 1058/138/4 1059/135/4
f 1060/135/4 1061/138/4 1062/136/4
f 1063/100/4 1064/76/4 1065/101/4
f 1066/101/4 1067/76/4 1068/70/4
f 1069/96/4 1070/72/4 1071/97/4
f 1072/97/4 1073/72/4 1074/66/4
f 1075/74/4 1076/103/4 1077/88/4
f 1078/88/4 1079/103/4 1080/102/4
f 1081/134/4 1082/131/4 1083/133/4
f 1084/133/4 1085/131/4 1086/130/4
f 1087/261/4 1088/259/4 1089/262/4
f 1090/262/4 1091/259/4 1092/256/4
f 1093/263/1 1094/264/1 1095/265/1
f 1096/265/1 1097/264/1 1098/266/1
f 1099/267/1 1100/268/1 1101/269/1
f 1102/269/1 1103/268/1 1104/270/1
f 1105/271/1 1106/272/1 1107/273/1
f 1108/273/1 1109/272/1 1110/274/1
f 1111/275/1 1112/276/1 1113/277/1
f 1114/277/1 1115/276/1 1116/278/1
f 1117/252/4 1118/254/4 1119/124/4
f 1120/124/4 1121/254/4 1122/117/4
f 1123/117/4 1124/254/4 1125/115/4
f 1126/115/4 1127/254/4 1128/248/4
f 1129/115/4 1130/248/4 1131/250/4
f 1132/279/4 1133/233/4 1134/250/4
f 1135/250/4 1136/233/4 1137/238/4
f 1138/250/4 1139/238/4 1140/115/4
f 1141/279/4 1142/280/4 1143/233/4
f 1144/233/4 1145/280/4 1146/231/4
f 1147/231/4 1148/280/4 1149/225/4
f 1150/225/4 1151/280/4 1152/281/4
f 1153/225/4 1154/281/4 1155/282/4
f 1156/283/4 1157/219/4 1158/282/4
f 1159/282/4 1160/219/4 1161/222/4
f 1162/282/4 1163/222/4 1164/225/4
f 1165/283/4 1166/81/4 1167/219/4
f 1168/219/4 1169/81/4 1170/216/4
f 1171/216/4 1172/81/4 1173/213/4
f 1174/213/4 1175/81/4 1176/83/4
f 1177/213/4 1178/83/4 1179/89/4
f 1180/94/4 1181/159/4 1182/89/4
f 1183/89/4 1184/159/4 1185/162/4
f 1186/89/4 1187/162/4 1188/213/4
f 1189/94/4 1190/95/4 1191/159/4
f 1192/159/4 1193/95/4 1194/154/4
f 1195/154/4 1196/95/4 1197/152/4
f 1198/152/4 1199/95/4 1200/92/4
f 1201/152/4 1202/92/4 1203/93/4
f 1204/90/4 1205/143/4 1206/93/4
f 1207/93/4 1208/143/4 1209/146/4
f 1210/93/4 1211/146/4 1212/152/4
f 1213/90/4 1214/91/4 1215/143/4
f 1216/143/4 1217/91/4 1218/140/4
f 1219/140/4 1220/91/4 1221/137/4
f 1222/137/4 1223/91/4 1224/59/4
f 1225/137/4 1226/59/4 1227/61/4
f 1228/57/4 1229/119/4 1230/61/4
f 1231/61/4 1232/119/4 1233/121/4
f 1234/61/4 1235/121/4 1236/137/4
f 1237/57/4 1238/58/4 1239/119/4
f 1240/119/4 1241/58/4 1242/128/4
f 1243/128/4 1244/58/4 1245/111/4
f 1246/128/4 1247/111/4 1248/126/4
f 1249/284/7 1250/285/7 1251/286/7
f 1252/286/7 1253/285/7 1254/287/7
f 1255/288/7 1256/289/7 1257/290/7
f 1258/290/7 1259/289/7 1260/291/7
f 1261/292/7 1262/293/7 1263/294/7
f 1264/294/7 1265/293/7 1266/295/7
f 1267/296/7 1268/297/7 1269/298/7
f 1270/298/7 1271/297/7 1272/299/7
f 1273/300/7 1274/301/7 1275/302/7
f 1276/302/7 1277/301/7 1278/303/7
f 1279/304/7 1280/305/7 1281/306/7
f 1282/306/7 1283/305/7 1284/307/7
f 1285/308/7 1286/309/7 1287/310/7
f 1288/310/7 1289/309/7 1290/311/7
f 1291/312/7 1292/313/7 1293/314/7
f 1294/314/7 1295/313/7 1296/315/7
f 1297/316/7 1298/317/7 1299/318/7
f 1300/318/7 1301/317/7 1302/319/7
f 1303/320/7 1304/321/7 1305/322/7
f 1306/322/7 1307/321/7 1308/323/7
f 1309/324/7 1310/325/7 1311/326/7
f 1312/326/7 1313/325/7 1314/327/7
f 1315/212/4 1316/167/4 1317/214/4
f 1318/214/4 1319/167/4 1320/227/4
f 1321/218/4 1322/228/4 1323/220/4
f 1324/220/4 1325/228/4 1326/229/4
f 1327/166/4 1328/160/4 1329/165/4
f 1330/165/4 1331/160/4 1332/158/4
f 1333/224/4 1334/230/4 1335/226/4
f 1336/226/4 1337/230/4 1338/242/4
f 1339/164/4 1340/157/4 1341/151/4
f 1342/151/4 1343/157/4 1344/156/4
f 1345/232/4 1346/243/4 1347/234/4
f 1348/234/4 1349/243/4 1350/244/4
f 1351/254/6 1352/261/6 1353/248/6
f 1354/248/6 1355/261/6 1356/262/6
f 1357/328/1 1358/329/1 1359/330/1
f 1360/330/1 1361/329/1 1362/331/1
f 1363/332/1 1364/333/1 1365/334/1
f 1366/334/1 1367/333/1 1368/335/1
f 1369/336/1 1370/337/1 1371/338/1
f 1372/338/1 1373/337/1 1374/339/1
f 1375/340/1 1376/341/1 1377/342/1
f 1378/342/1 1379/341/1 1380/343/1
f 1381/344/1 1382/345/1 1383/346/1
f 1384/346/1 1385/345/1 1386/347/1
f 1387/348/1 1388/349/1 1389/350/1
f 1390/350/1 1391/349/1 1392/351/1
f 1393/352/1 1394/353/1 1395/354/1
f 1396/354/1 1397/353/1 1398/355/1
f 1399/47/3 1400/49/3 1401/48/3
f 1402/48/3 1403/49/3 1404/50/3
f 1405/48/3 1406/50/3 1407/51/3
f 1408/51/3 1409/50/3 1410/52/3
f 1411/280/6 1412/356/6 1413/281/6
f 1414/281/6 1415/356/6 1416/357/6
f 1417/47/2 1418/48/2 1419/49/2
f 1420/49/2 1421/48/2 1422/50/2
f 1423/50/2 1424/48/2 1425/51/2
f 1426/50/2 1427/51/2 1428/52/2
f 1429/47/3 1430/49/3 1431/48/3
f 1432/48/3 1433/49/3 1434/50/3
f 1435/48/3 1436/50/3 1437/51/3
f 1438/51/3 1439/50/3 1440/52/3
f 1441/250/6 1442/358/6 1443/279/6
f 1444/279/6 1445/358/6 1446/359/6
f 1447/279/5 1448/360/5 1449/280/5
f 1450/280/5 1451/360/5 1452/361/5
f 1453/360/4 1454/362/4 1455/361/4
f 1456/361/4 1457/362/4 1458/363/4
f 1459/112/4 1460/56/4 1461/110/4
f 1462/110/4 1463/56/4 1464/364/4
f 1465/98/4 1466/68/4 1467/99/4
f 1468/99/4 1469/68/4 1470/63/4
f 1471/86/4 1472/84/4 1473/80/4
f 1474/80/4 1475/84/4 1476/82/4
f 1477/113/4 1478/64/4 1479/114/4
f 1480/114/4 1481/64/4 1482/54/4
f 1483/78/4 1484/365/4 1485/366/4
f 1486/366/4 1487/365/4 1488/367/4
f 1489/368/4 1490/357/4 1491/363/4
f 1492/363/4 1493/357/4 1494/356/4
f 1495/362/4 1496/359/4 1497/257/4
f 1498/257/4 1499/359/4 1500/358/4
f 1501/47/2 1502/48/2 1503/49/2
f 1504/49/2 1505/48/2 1506/50/2
f 1507/50/2 1508/48/2 1509/51/2
f 1510/50/2 1511/51/2 1512/52/2
f 1513/47/3 1514/49/3 1515/48/3
f 1516/48/3 1517/49/3 1518/50/3
f 1519/48/3 1520/50/3 1521/51/3
f 1522/51/3 1523/50/3 1524/52/3
f 1525/282/6 1526/367/6 1527/283/6
f 1528/283/6 1529/367/6 1530/365/6
f 1531/47/2 1532/48/2 1533/49/2
f 1534/49/2 1535/48/2 1536/50/2
f 1537/50/2 1538/48/2 1539/51/2
f 1540/50/2 1541/51/2 1542/52/2
f 1543/283/5 1544/77/5 1545/81/5
f 1546/81/5 1547/77/5 1548/79/5
f 1549/281/5 1550/369/5 1551/282/5
f 1552/282/5 1553/369/5 1554/370/5
f 1555/369/4 1556/368/4 1557/370/4
f 1558/370/4 1559/368/4 1560/366/4
