# Blender 5.2.0 LTS
# www.blender.org
o D3
v -6.000000 -18.500000 2.000000
v -6.000000 -26.000000 1.500000
v -6.000000 -25.500000 2.000000
v -6.000000 -25.500000 2.000000
v -6.000000 -26.000000 1.500000
v -6.000000 -25.933014 1.750000
v -6.000000 -25.500000 2.000000
v -6.000000 -25.933014 1.750000
v -6.000000 -25.750000 1.933014
v -6.000000 -18.250000 1.933014
v -6.000000 -18.066990 1.750000
v -6.000000 -18.500000 2.000000
v -6.000000 -18.500000 2.000000
v -6.000000 -18.066990 1.750000
v -6.000000 -18.000000 1.500000
v -6.000000 -18.500000 2.000000
v -6.000000 -18.000000 1.500000
v -6.000000 -26.000000 1.500000
v -6.000000 -26.000000 1.500000
v -6.000000 -18.000000 1.500000
v -6.000000 -26.000000 -1.500000
v -6.000000 -26.000000 -1.500000
v -6.000000 -18.000000 1.500000
v -6.000000 -18.000000 -1.500000
v -6.000000 -26.000000 -1.500000
v -6.000000 -18.000000 -1.500000
v -6.000000 -25.500000 -2.000000
v -6.000000 -25.500000 -2.000000
v -6.000000 -18.000000 -1.500000
v -6.000000 -18.500000 -2.000000
v -6.000000 -18.500000 -2.000000
v -6.000000 -18.000000 -1.500000
v -6.000000 -18.066990 -1.750000
v -6.000000 -18.500000 -2.000000
v -6.000000 -18.066990 -1.750000
v -6.000000 -18.250000 -1.933014
v -6.000000 -25.750000 -1.933014
v -6.000000 -25.933014 -1.750000
v -6.000000 -25.500000 -2.000000
v -6.000000 -25.500000 -2.000000
v -6.000000 -25.933014 -1.750000
v -6.000000 -26.000000 -1.500000
v -2.000000 -25.500000 2.000000
v -6.000000 -25.500000 2.000000
v -2.000000 -25.750000 1.933014
v -2.000000 -25.750000 1.933014
v -6.000000 -25.500000 2.000000
v -6.000000 -25.750000 1.933014
v -2.000000 -25.750000 1.933014
v -6.000000 -25.750000 1.933014
v -6.000000 -25.933014 1.750000
v -6.000000 -26.000000 1.500000
v -2.000000 -26.000000 1.500000
v -6.000000 -25.933014 1.750000
v -6.000000 -25.933014 1.750000
v -2.000000 -26.000000 1.500000
v -2.000000 -25.933014 1.750000
v -6.000000 -25.933014 1.750000
v -2.000000 -25.933014 1.750000
v -2.000000 -25.750000 1.933014
v -6.000000 -26.000000 1.500000
v -6.000000 -26.000000 -1.500000
v -2.000000 -26.000000 1.500000
v -2.000000 -26.000000 1.500000
v -6.000000 -26.000000 -1.500000
v -2.000000 -26.000000 -1.500000
v -2.000000 -26.000000 -1.500000
v -6.000000 -26.000000 -1.500000
v -2.000000 -25.933014 -1.750000
v -2.000000 -25.933014 -1.750000
v -6.000000 -26.000000 -1.500000
v -6.000000 -25.933014 -1.750000
v -2.000000 -25.933014 -1.750000
v -6.000000 -25.933014 -1.750000
v -6.000000 -25.750000 -1.933014
v -6.000000 -25.500000 -2.000000
v -2.000000 -25.500000 -2.000000
v -6.000000 -25.750000 -1.933014
v -6.000000 -25.750000 -1.933014
v -2.000000 -25.500000 -2.000000
v -2.000000 -25.750000 -1.933014
v -6.000000 -25.750000 -1.933014
v -2.000000 -25.750000 -1.933014
v -2.000000 -25.933014 -1.750000
v -6.000000 -18.500000 2.000000
v -6.000000 -25.500000 2.000000
v -2.000000 -18.500000 2.000000
v -2.000000 -18.500000 2.000000
v -6.000000 -25.500000 2.000000
v -2.000000 -25.500000 2.000000
v -6.000000 -25.500000 -2.000000
v -6.000000 -18.500000 -2.000000
v -2.000000 -25.500000 -2.000000
v -2.000000 -25.500000 -2.000000
v -6.000000 -18.500000 -2.000000
v -2.000000 -18.500000 -2.000000
v -2.000000 -18.500000 -2.000000
v -6.000000 -18.500000 -2.000000
v -2.000000 -18.250000 -1.933014
v -2.000000 -18.250000 -1.933014
v -6.000000 -18.500000 -2.000000
v -6.000000 -18.250000 -1.933014
v -2.000000 -18.250000 -1.933014
v -6.000000 -18.250000 -1.933014
v -6.000000 -18.066990 -1.750000
v -6.000000 -18.000000 -1.500000
v -2.000000 -18.000000 -1.500000
v -6.000000 -18.066990 -1.750000
v -6.000000 -18.066990 -1.750000
v -2.000000 -18.000000 -1.500000
v -2.000000 -18.066990 -1.750000
v -6.000000 -18.066990 -1.750000
v -2.000000 -18.066990 -1.750000
v -2.000000 -18.250000 -1.933014
v -2.000000 -18.000000 1.500000
v -6.000000 -18.000000 1.500000
v -2.000000 -18.066990 1.750000
v -2.000000 -18.066990 1.750000
v -6.000000 -18.000000 1.500000
v -6.000000 -18.066990 1.750000
v -2.000000 -18.066990 1.750000
v -6.000000 -18.066990 1.750000
v -6.000000 -18.250000 1.933014
v -6.000000 -18.500000 2.000000
v -2.000000 -18.500000 2.000000
v -6.000000 -18.250000 1.933014
v -6.000000 -18.250000 1.933014
v -2.000000 -18.500000 2.000000
v -2.000000 -18.250000 1.933014
v -6.000000 -18.250000 1.933014
v -2.000000 -18.250000 1.933014
v -2.000000 -18.066990 1.750000
v -6.000000 -18.000000 -1.500000
v -6.000000 -18.000000 1.500000
v -2.000000 -18.000000 -1.500000
v -2.000000 -18.000000 -1.500000
v -6.000000 -18.000000 1.500000
v -2.000000 -18.000000 1.500000
v 6.000000 -25.500000 2.000000
v 6.000000 -18.000000 1.500000
v 6.000000 -18.500000 2.000000
v 6.000000 -18.500000 2.000000
v 6.000000 -18.000000 1.500000
v 6.000000 -18.066990 1.750000
v 6.000000 -18.500000 2.000000
v 6.000000 -18.066990 1.750000
v 6.000000 -18.250000 1.933014
v 6.000000 -25.750000 1.933014
v 6.000000 -25.933014 1.750000
v 6.000000 -25.500000 2.000000
v 6.000000 -25.500000 2.000000
v 6.000000 -25.933014 1.750000
v 6.000000 -26.000000 1.500000
v 6.000000 -25.500000 2.000000
v 6.000000 -26.000000 1.500000
v 6.000000 -18.000000 1.500000
v 6.000000 -18.000000 1.500000
v 6.000000 -26.000000 1.500000
v 6.000000 -18.000000 -1.500000
v 6.000000 -18.000000 -1.500000
v 6.000000 -26.000000 1.500000
v 6.000000 -26.000000 -1.500000
v 6.000000 -18.000000 -1.500000
v 6.000000 -26.000000 -1.500000
v 6.000000 -18.500000 -2.000000
v 6.000000 -18.500000 -2.000000
v 6.000000 -26.000000 -1.500000
v 6.000000 -25.500000 -2.000000
v 6.000000 -25.500000 -2.000000
v 6.000000 -26.000000 -1.500000
v 6.000000 -25.933014 -1.750000
v 6.000000 -25.500000 -2.000000
v 6.000000 -25.933014 -1.750000
v 6.000000 -25.750000 -1.933014
v 6.000000 -18.250000 -1.933014
v 6.000000 -18.066990 -1.750000
v 6.000000 -18.500000 -2.000000
v 6.000000 -18.500000 -2.000000
v 6.000000 -18.066990 -1.750000
v 6.000000 -18.000000 -1.500000
v 6.000000 -25.500000 2.000000
v 6.000000 -18.500000 2.000000
v 2.000000 -25.500000 2.000000
v 2.000000 -25.500000 2.000000
v 6.000000 -18.500000 2.000000
v 2.000000 -18.500000 2.000000
v 2.000000 -26.000000 1.500000
v 6.000000 -26.000000 1.500000
v 2.000000 -25.933014 1.750000
v 2.000000 -25.933014 1.750000
v 6.000000 -26.000000 1.500000
v 6.000000 -25.933014 1.750000
v 2.000000 -25.933014 1.750000
v 6.000000 -25.933014 1.750000
v 6.000000 -25.750000 1.933014
v 6.000000 -25.500000 2.000000
v 2.000000 -25.500000 2.000000
v 6.000000 -25.750000 1.933014
v 6.000000 -25.750000 1.933014
v 2.000000 -25.500000 2.000000
v 2.000000 -25.750000 1.933014
v 6.000000 -25.750000 1.933014
v 2.000000 -25.750000 1.933014
v 2.000000 -25.933014 1.750000
v 6.000000 -26.000000 -1.500000
v 6.000000 -26.000000 1.500000
v 2.000000 -26.000000 -1.500000
v 2.000000 -26.000000 -1.500000
v 6.000000 -26.000000 1.500000
v 2.000000 -26.000000 1.500000
v 2.000000 -25.500000 -2.000000
v 6.000000 -25.500000 -2.000000
v 2.000000 -25.750000 -1.933014
v 2.000000 -25.750000 -1.933014
v 6.000000 -25.500000 -2.000000
v 6.000000 -25.750000 -1.933014
v 2.000000 -25.750000 -1.933014
v 6.000000 -25.750000 -1.933014
v 6.000000 -25.933014 -1.750000
v 6.000000 -26.000000 -1.500000
v 2.000000 -26.000000 -1.500000
v 6.000000 -25.933014 -1.750000
v 6.000000 -25.933014 -1.750000
v 2.000000 -26.000000 -1.500000
v 2.000000 -25.933014 -1.750000
v 6.000000 -25.933014 -1.750000
v 2.000000 -25.933014 -1.750000
v 2.000000 -25.750000 -1.933014
v 6.000000 -18.500000 -2.000000
v 6.000000 -25.500000 -2.000000
v 2.000000 -18.500000 -2.000000
v 2.000000 -18.500000 -2.000000
v 6.000000 -25.500000 -2.000000
v 2.000000 -25.500000 -2.000000
v 2.000000 -18.000000 -1.500000
v 6.000000 -18.000000 -1.500000
v 2.000000 -18.066990 -1.750000
v 2.000000 -18.066990 -1.750000
v 6.000000 -18.000000 -1.500000
v 6.000000 -18.066990 -1.750000
v 2.000000 -18.066990 -1.750000
v 6.000000 -18.066990 -1.750000
v 6.000000 -18.250000 -1.933014
v 6.000000 -18.500000 -2.000000
v 2.000000 -18.500000 -2.000000
v 6.000000 -18.250000 -1.933014
v 6.000000 -18.250000 -1.933014
v 2.000000 -18.500000 -2.000000
v 2.000000 -18.250000 -1.933014
v 6.000000 -18.250000 -1.933014
v 2.000000 -18.250000 -1.933014
v 2.000000 -18.066990 -1.750000
v 6.000000 -18.000000 1.500000
v 6.000000 -18.000000 -1.500000
v 2.000000 -18.000000 1.500000
v 2.000000 -18.000000 1.500000
v 6.000000 -18.000000 -1.500000
v 2.000000 -18.000000 -1.500000
v 2.000000 -18.500000 2.000000
v 6.000000 -18.500000 2.000000
v 2.000000 -18.250000 1.933014
v 2.000000 -18.250000 1.933014
v 6.000000 -18.500000 2.000000
v 6.000000 -18.250000 1.933014
v 2.000000 -18.250000 1.933014
v 6.000000 -18.250000 1.933014
v 6.000000 -18.066990 1.750000
v 6.000000 -18.000000 1.500000
v 2.000000 -18.000000 1.500000
v 6.000000 -18.066990 1.750000
v 6.000000 -18.066990 1.750000
v 2.000000 -18.000000 1.500000
v 2.000000 -18.066990 1.750000
v 6.000000 -18.066990 1.750000
v 2.000000 -18.066990 1.750000
v 2.000000 -18.250000 1.933014
v 4.998792 -18.000000 -0.625465
v 5.300000 -16.400002 0.000000
v 5.300000 -18.000000 0.000000
v 5.300000 -18.000000 0.000000
v 5.300000 -16.400002 0.000000
v 4.998792 -16.400002 0.625465
v 5.300000 -18.000000 0.000000
v 4.998792 -16.400002 0.625465
v 4.998792 -18.000000 0.625465
v 4.998792 -18.000000 0.625465
v 4.998792 -16.400002 0.625465
v 4.321983 -16.400002 0.779942
v 4.998792 -18.000000 0.625465
v 4.321983 -16.400002 0.779942
v 4.321983 -18.000000 0.779942
v 4.321983 -18.000000 0.779942
v 4.321983 -16.400002 0.779942
v 3.779225 -16.400002 0.347107
v 4.321983 -18.000000 0.779942
v 3.779225 -16.400002 0.347107
v 3.779225 -18.000000 0.347107
v 3.779225 -18.000000 0.347107
v 3.779225 -16.400002 0.347107
v 3.779225 -16.400002 -0.347107
v 3.779225 -18.000000 0.347107
v 3.779225 -16.400002 -0.347107
v 3.779225 -18.000000 -0.347107
v 3.779225 -18.000000 -0.347107
v 3.779225 -16.400002 -0.347107
v 4.321983 -16.400002 -0.779942
v 3.779225 -18.000000 -0.347107
v 4.321983 -16.400002 -0.779942
v 4.321983 -18.000000 -0.779942
v 4.321983 -18.000000 -0.779942
v 4.321983 -16.400002 -0.779942
v 4.998792 -16.400002 -0.625465
v 4.321983 -18.000000 -0.779942
v 4.998792 -16.400002 -0.625465
v 4.998792 -18.000000 -0.625465
v 4.998792 -18.000000 -0.625465
v 4.998792 -16.400002 -0.625465
v 5.300000 -16.400002 0.000000
v 4.998792 -18.000000 0.625465
v 3.779225 -18.000000 0.347107
v 5.300000 -18.000000 0.000000
v 5.300000 -18.000000 0.000000
v 3.779225 -18.000000 0.347107
v 3.779225 -18.000000 -0.347107
v 5.300000 -18.000000 0.000000
v 3.779225 -18.000000 -0.347107
v 4.998792 -18.000000 -0.625465
v 4.998792 -18.000000 -0.625465
v 3.779225 -18.000000 -0.347107
v 4.321983 -18.000000 -0.779942
v 4.998792 -18.000000 0.625465
v 4.321983 -18.000000 0.779942
v 3.779225 -18.000000 0.347107
v 4.998792 -16.400002 -0.625465
v 3.779225 -16.400002 -0.347107
v 5.300000 -16.400002 0.000000
v 5.300000 -16.400002 0.000000
v 3.779225 -16.400002 -0.347107
v 3.779225 -16.400002 0.347107
v 5.300000 -16.400002 0.000000
v 3.779225 -16.400002 0.347107
v 4.998792 -16.400002 0.625465
v 4.998792 -16.400002 0.625465
v 3.779225 -16.400002 0.347107
v 4.321983 -16.400002 0.779942
v 4.998792 -16.400002 -0.625465
v 4.321983 -16.400002 -0.779942
v 3.779225 -16.400002 -0.347107
v 4.998792 -26.000000 0.625465
v 5.300000 -27.600002 0.000000
v 5.300000 -26.000000 0.000000
v 5.300000 -26.000000 0.000000
v 5.300000 -27.600002 0.000000
v 4.998792 -27.600002 -0.625465
v 5.300000 -26.000000 0.000000
v 4.998792 -27.600002 -0.625465
v 4.998792 -26.000000 -0.625465
v 4.998792 -26.000000 -0.625465
v 4.998792 -27.600002 -0.625465
v 4.321983 -27.600002 -0.779942
v 4.998792 -26.000000 -0.625465
v 4.321983 -27.600002 -0.779942
v 4.321983 -26.000000 -0.779942
v 4.321983 -26.000000 -0.779942
v 4.321983 -27.600002 -0.779942
v 3.779225 -27.600002 -0.347107
v 4.321983 -26.000000 -0.779942
v 3.779225 -27.600002 -0.347107
v 3.779225 -26.000000 -0.347107
v 3.779225 -26.000000 -0.347107
v 3.779225 -27.600002 -0.347107
v 3.779225 -27.600002 0.347107
v 3.779225 -26.000000 -0.347107
v 3.779225 -27.600002 0.347107
v 3.779225 -26.000000 0.347107
v 3.779225 -26.000000 0.347107
v 3.779225 -27.600002 0.347107
v 4.321983 -27.600002 0.779942
v 3.779225 -26.000000 0.347107
v 4.321983 -27.600002 0.779942
v 4.321983 -26.000000 0.779942
v 4.321983 -26.000000 0.779942
v 4.321983 -27.600002 0.779942
v 4.998792 -27.600002 0.625465
v 4.321983 -26.000000 0.779942
v 4.998792 -27.600002 0.625465
v 4.998792 -26.000000 0.625465
v 4.998792 -26.000000 0.625465
v 4.998792 -27.600002 0.625465
v 5.300000 -27.600002 0.000000
v 4.998792 -26.000000 -0.625465
v 3.779225 -26.000000 -0.347107
v 5.300000 -26.000000 0.000000
v 5.300000 -26.000000 0.000000
v 3.779225 -26.000000 -0.347107
v 3.779225 -26.000000 0.347107
v 5.300000 -26.000000 0.000000
v 3.779225 -26.000000 0.347107
v 4.998792 -26.000000 0.625465
v 4.998792 -26.000000 0.625465
v 3.779225 -26.000000 0.347107
v 4.321983 -26.000000 0.779942
v 4.998792 -26.000000 -0.625465
v 4.321983 -26.000000 -0.779942
v 3.779225 -26.000000 -0.347107
v 4.998792 -27.600002 0.625465
v 3.779225 -27.600002 0.347107
v 5.300000 -27.600002 0.000000
v 5.300000 -27.600002 0.000000
v 3.779225 -27.600002 0.347107
v 3.779225 -27.600002 -0.347107
v 5.300000 -27.600002 0.000000
v 3.779225 -27.600002 -0.347107
v 4.998792 -27.600002 -0.625465
v 4.998792 -27.600002 -0.625465
v 3.779225 -27.600002 -0.347107
v 4.321983 -27.600002 -0.779942
v 4.998792 -27.600002 0.625465
v 4.321983 -27.600002 0.779942
v 3.779225 -27.600002 0.347107
v -4.998792 -18.000000 0.625465
v -5.300000 -16.400002 0.000000
v -5.300000 -18.000000 0.000000
v -5.300000 -18.000000 0.000000
v -5.300000 -16.400002 0.000000
v -4.998792 -16.400002 -0.625465
v -5.300000 -18.000000 0.000000
v -4.998792 -16.400002 -0.625465
v -4.998792 -18.000000 -0.625465
v -4.998792 -18.000000 -0.625465
v -4.998792 -16.400002 -0.625465
v -4.321983 -16.400002 -0.779942
v -4.998792 -18.000000 -0.625465
v -4.321983 -16.400002 -0.779942
v -4.321983 -18.000000 -0.779942
v -4.321983 -18.000000 -0.779942
v -4.321983 -16.400002 -0.779942
v -3.779225 -16.400002 -0.347107
v -4.321983 -18.000000 -0.779942
v -3.779225 -16.400002 -0.347107
v -3.779225 -18.000000 -0.347107
v -3.779225 -18.000000 -0.347107
v -3.779225 -16.400002 -0.347107
v -3.779225 -16.400002 0.347107
v -3.779225 -18.000000 -0.347107
v -3.779225 -16.400002 0.347107
v -3.779225 -18.000000 0.347107
v -3.779225 -18.000000 0.347107
v -3.779225 -16.400002 0.347107
v -4.321983 -16.400002 0.779942
v -3.779225 -18.000000 0.347107
v -4.321983 -16.400002 0.779942
v -4.321983 -18.000000 0.779942
v -4.321983 -18.000000 0.779942
v -4.321983 -16.400002 0.779942
v -4.998792 -16.400002 0.625465
v -4.321983 -18.000000 0.779942
v -4.998792 -16.400002 0.625465
v -4.998792 -18.000000 0.625465
v -4.998792 -18.000000 0.625465
v -4.998792 -16.400002 0.625465
v -5.300000 -16.400002 0.000000
v -4.998792 -18.000000 -0.625465
v -3.779225 -18.000000 -0.347107
v -5.300000 -18.000000 0.000000
v -5.300000 -18.000000 0.000000
v -3.779225 -18.000000 -0.347107
v -3.779225 -18.000000 0.347107
v -5.300000 -18.000000 0.000000
v -3.779225 -18.000000 0.347107
v -4.998792 -18.000000 0.625465
v -4.998792 -18.000000 0.625465
v -3.779225 -18.000000 0.347107
v -4.321983 -18.000000 0.779942
v -4.998792 -18.000000 -0.625465
v -4.321983 -18.000000 -0.779942
v -3.779225 -18.000000 -0.347107
v -4.998792 -16.400002 0.625465
v -3.779225 -16.400002 0.347107
v -5.300000 -16.400002 0.000000
v -5.300000 -16.400002 0.000000
v -3.779225 -16.400002 0.347107
v -3.779225 -16.400002 -0.347107
v -5.300000 -16.400002 0.000000
v -3.779225 -16.400002 -0.347107
v -4.998792 -16.400002 -0.625465
v -4.998792 -16.400002 -0.625465
v -3.779225 -16.400002 -0.347107
v -4.321983 -16.400002 -0.779942
v -4.998792 -16.400002 0.625465
v -4.321983 -16.400002 0.779942
v -3.779225 -16.400002 0.347107
v -4.998792 -26.000000 -0.625465
v -5.300000 -27.600002 0.000000
v -5.300000 -26.000000 0.000000
v -5.300000 -26.000000 0.000000
v -5.300000 -27.600002 0.000000
v -4.998792 -27.600002 0.625465
v -5.300000 -26.000000 0.000000
v -4.998792 -27.600002 0.625465
v -4.998792 -26.000000 0.625465
v -4.998792 -26.000000 0.625465
v -4.998792 -27.600002 0.625465
v -4.321983 -27.600002 0.779942
v -4.998792 -26.000000 0.625465
v -4.321983 -27.600002 0.779942
v -4.321983 -26.000000 0.779942
v -4.321983 -26.000000 0.779942
v -4.321983 -27.600002 0.779942
v -3.779225 -27.600002 0.347107
v -4.321983 -26.000000 0.779942
v -3.779225 -27.600002 0.347107
v -3.779225 -26.000000 0.347107
v -3.779225 -26.000000 0.347107
v -3.779225 -27.600002 0.347107
v -3.779225 -27.600002 -0.347107
v -3.779225 -26.000000 0.347107
v -3.779225 -27.600002 -0.347107
v -3.779225 -26.000000 -0.347107
v -3.779225 -26.000000 -0.347107
v -3.779225 -27.600002 -0.347107
v -4.321983 -27.600002 -0.779942
v -3.779225 -26.000000 -0.347107
v -4.321983 -27.600002 -0.779942
v -4.321983 -26.000000 -0.779942
v -4.321983 -26.000000 -0.779942
v -4.321983 -27.600002 -0.779942
v -4.998792 -27.600002 -0.625465
v -4.321983 -26.000000 -0.779942
v -4.998792 -27.600002 -0.625465
v -4.998792 -26.000000 -0.625465
v -4.998792 -26.000000 -0.625465
v -4.998792 -27.600002 -0.625465
v -5.300000 -27.600002 0.000000
v -4.998792 -26.000000 0.625465
v -3.779225 -26.000000 0.347107
v -5.300000 -26.000000 0.000000
v -5.300000 -26.000000 0.000000
v -3.779225 -26.000000 0.347107
v -3.779225 -26.000000 -0.347107
v -5.300000 -26.000000 0.000000
v -3.779225 -26.000000 -0.347107
v -4.998792 -26.000000 -0.625465
v -4.998792 -26.000000 -0.625465
v -3.779225 -26.000000 -0.347107
v -4.321983 -26.000000 -0.779942
v -4.998792 -26.000000 0.625465
v -4.321983 -26.000000 0.779942
v -3.779225 -26.000000 0.347107
v -4.998792 -27.600002 -0.625465
v -3.779225 -27.600002 -0.347107
v -5.300000 -27.600002 0.000000
v -5.300000 -27.600002 0.000000
v -3.779225 -27.600002 -0.347107
v -3.779225 -27.600002 0.347107
v -5.300000 -27.600002 0.000000
v -3.779225 -27.600002 0.347107
v -4.998792 -27.600002 0.625465
v -4.998792 -27.600002 0.625465
v -3.779225 -27.600002 0.347107
v -4.321983 -27.600002 0.779942
v -4.998792 -27.600002 -0.625465
v -4.321983 -27.600002 -0.779942
v -3.779225 -27.600002 -0.347107
v 5.300000 -17.400002 5.799999
v 5.300000 -16.900002 5.666027
v 3.700000 -17.400002 5.799999
v 3.700000 -17.400002 5.799999
v 5.300000 -16.900002 5.666027
v 3.700000 -16.900002 5.666027
v 3.700000 -16.900002 5.666027
v 5.300000 -16.900002 5.666027
v 3.700000 -16.533978 5.299999
v 3.700000 -16.533978 5.299999
v 5.300000 -16.900002 5.666027
v 5.300000 -16.533978 5.299999
v 3.700000 -16.533978 5.299999
v 5.300000 -16.533978 5.299999
v 5.300000 -16.400002 4.799999
v 5.300000 -16.400002 4.799999
v 3.700000 -16.400002 4.799999
v 3.700000 -16.533978 5.299999
v 5.300000 -16.400002 4.799999
v 5.300000 -16.400002 0.000000
v 3.700000 -16.400002 4.799999
v 3.700000 -16.400002 4.799999
v 5.300000 -16.400002 0.000000
v 3.700000 -16.400002 0.000000
v 3.700000 -16.900002 5.666027
v 3.700000 -17.600002 4.599998
v 3.700000 -17.400002 5.799999
v 3.700000 -17.400002 5.799999
v 3.700000 -17.600002 4.599998
v 3.700000 -26.400002 4.599998
v 3.700000 -17.400002 5.799999
v 3.700000 -26.400002 4.599998
v 3.700000 -26.600002 5.799999
v 3.700000 -26.600002 5.799999
v 3.700000 -26.400002 4.599998
v 3.700000 -27.100002 5.666027
v 3.700000 -27.100002 5.666027
v 3.700000 -26.400002 4.599998
v 3.700000 -27.466026 5.299999
v 3.700000 -27.466026 5.299999
v 3.700000 -26.400002 4.599998
v 3.700000 -27.600002 4.799999
v 3.700000 -27.600002 4.799999
v 3.700000 -26.400002 4.599998
v 3.700000 -26.500000 4.573204
v 3.700000 -27.600002 4.799999
v 3.700000 -26.500000 4.573204
v 3.700000 -26.573208 4.500000
v 3.700000 -16.900002 5.666027
v 3.700000 -16.533978 5.299999
v 3.700000 -17.600002 4.599998
v 3.700000 -17.600002 4.599998
v 3.700000 -16.533978 5.299999
v 3.700000 -16.400002 4.799999
v 3.700000 -17.600002 4.599998
v 3.700000 -16.400002 4.799999
v 3.700000 -17.500000 4.573204
v 3.700000 -17.500000 4.573204
v 3.700000 -16.400002 4.799999
v 3.700000 -17.426796 4.500000
v 3.700000 -17.426796 4.500000
v 3.700000 -16.400002 4.799999
v 3.700000 -17.400002 4.400002
v 3.700000 -17.400002 4.400002
v 3.700000 -16.400002 4.799999
v 3.700000 -16.400002 0.000000
v 3.700000 -17.400002 4.400002
v 3.700000 -16.400002 0.000000
v 3.700000 -17.400002 0.000000
v 3.700000 -26.573208 4.500000
v 3.700000 -26.600002 4.400002
v 3.700000 -27.600002 4.799999
v 3.700000 -27.600002 4.799999
v 3.700000 -26.600002 4.400002
v 3.700000 -27.600002 0.000000
v 3.700000 -27.600002 0.000000
v 3.700000 -26.600002 4.400002
v 3.700000 -26.600002 0.000000
v 3.700000 -26.600002 5.799999
v 3.700000 -27.100002 5.666027
v 5.300000 -26.600002 5.799999
v 5.300000 -26.600002 5.799999
v 3.700000 -27.100002 5.666027
v 5.300000 -27.100002 5.666027
v 5.300000 -27.100002 5.666027
v 3.700000 -27.100002 5.666027
v 5.300000 -27.466026 5.299999
v 5.300000 -27.466026 5.299999
v 3.700000 -27.100002 5.666027
v 3.700000 -27.466026 5.299999
v 5.300000 -27.466026 5.299999
v 3.700000 -27.466026 5.299999
v 3.700000 -27.600002 4.799999
v 3.700000 -27.600002 4.799999
v 5.300000 -27.600002 4.799999
v 5.300000 -27.466026 5.299999
v 3.700000 -27.600002 4.799999
v 3.700000 -27.600002 0.000000
v 5.300000 -27.600002 4.799999
v 5.300000 -27.600002 4.799999
v 3.700000 -27.600002 0.000000
v 5.300000 -27.600002 0.000000
v 3.700000 -26.400002 4.599998
v 5.300000 -26.400002 4.599998
v 3.700000 -26.500000 4.573204
v 3.700000 -26.500000 4.573204
v 5.300000 -26.400002 4.599998
v 5.300000 -26.500000 4.573204
v 3.700000 -26.500000 4.573204
v 5.300000 -26.500000 4.573204
v 5.300000 -26.573208 4.500000
v 5.300000 -26.600002 4.400002
v 3.700000 -26.600002 4.400002
v 5.300000 -26.573208 4.500000
v 5.300000 -26.573208 4.500000
v 3.700000 -26.600002 4.400002
v 3.700000 -26.573208 4.500000
v 5.300000 -26.573208 4.500000
v 3.700000 -26.573208 4.500000
v 3.700000 -26.500000 4.573204
v 3.700000 -26.400002 4.599998
v 3.700000 -17.600002 4.599998
v 5.300000 -26.400002 4.599998
v 5.300000 -26.400002 4.599998
v 3.700000 -17.600002 4.599998
v 5.300000 -17.600002 4.599998
v 3.700000 -17.400002 4.400002
v 5.300000 -17.400002 4.400002
v 3.700000 -17.426796 4.500000
v 3.700000 -17.426796 4.500000
v 5.300000 -17.400002 4.400002
v 5.300000 -17.426796 4.500000
v 3.700000 -17.426796 4.500000
v 5.300000 -17.426796 4.500000
v 5.300000 -17.500000 4.573204
v 5.300000 -17.600002 4.599998
v 3.700000 -17.600002 4.599998
v 5.300000 -17.500000 4.573204
v 5.300000 -17.500000 4.573204
v 3.700000 -17.600002 4.599998
v 3.700000 -17.500000 4.573204
v 5.300000 -17.500000 4.573204
v 3.700000 -17.500000 4.573204
v 3.700000 -17.426796 4.500000
v 3.700000 -17.400002 4.400002
v 3.700000 -17.400002 0.000000
v 5.300000 -17.400002 4.400002
v 5.300000 -17.400002 4.400002
v 3.700000 -17.400002 0.000000
v 5.300000 -17.400002 0.000000
v 3.700000 -17.400002 5.799999
v 3.700000 -26.600002 5.799999
v 5.300000 -17.400002 5.799999
v 5.300000 -17.400002 5.799999
v 3.700000 -26.600002 5.799999
v 5.300000 -26.600002 5.799999
v 5.300000 -26.600002 4.400002
v 5.300000 -26.600002 0.000000
v 3.700000 -26.600002 4.400002
v 3.700000 -26.600002 4.400002
v 5.300000 -26.600002 0.000000
v 3.700000 -26.600002 0.000000
v 5.300000 -16.400002 0.000000
v 5.300000 -17.400002 0.000000
v 3.700000 -16.400002 0.000000
v 3.700000 -16.400002 0.000000
v 5.300000 -17.400002 0.000000
v 3.700000 -17.400002 0.000000
v 5.300000 -26.600002 0.000000
v 5.300000 -27.600002 0.000000
v 3.700000 -26.600002 0.000000
v 3.700000 -26.600002 0.000000
v 5.300000 -27.600002 0.000000
v 3.700000 -27.600002 0.000000
v 5.300000 -16.533978 5.299999
v 5.300000 -17.600002 4.599998
v 5.300000 -16.400002 4.799999
v 5.300000 -16.400002 4.799999
v 5.300000 -17.600002 4.599998
v 5.300000 -17.500000 4.573204
v 5.300000 -16.400002 4.799999
v 5.300000 -17.500000 4.573204
v 5.300000 -17.426796 4.500000
v 5.300000 -16.533978 5.299999
v 5.300000 -16.900002 5.666027
v 5.300000 -17.600002 4.599998
v 5.300000 -17.600002 4.599998
v 5.300000 -16.900002 5.666027
v 5.300000 -17.400002 5.799999
v 5.300000 -17.600002 4.599998
v 5.300000 -17.400002 5.799999
v 5.300000 -26.600002 5.799999
v 5.300000 -17.600002 4.599998
v 5.300000 -26.600002 5.799999
v 5.300000 -26.400002 4.599998
v 5.300000 -26.400002 4.599998
v 5.300000 -26.600002 5.799999
v 5.300000 -27.100002 5.666027
v 5.300000 -26.400002 4.599998
v 5.300000 -27.100002 5.666027
v 5.300000 -27.466026 5.299999
v 5.300000 -27.466026 5.299999
v 5.300000 -27.600002 4.799999
v 5.300000 -26.400002 4.599998
v 5.300000 -26.400002 4.599998
v 5.300000 -27.600002 4.799999
v 5.300000 -26.500000 4.573204
v 5.300000 -26.500000 4.573204
v 5.300000 -27.600002 4.799999
v 5.300000 -26.573208 4.500000
v 5.300000 -26.573208 4.500000
v 5.300000 -27.600002 4.799999
v 5.300000 -26.600002 4.400002
v 5.300000 -26.600002 4.400002
v 5.300000 -27.600002 4.799999
v 5.300000 -27.600002 0.000000
v 5.300000 -26.600002 4.400002
v 5.300000 -27.600002 0.000000
v 5.300000 -26.600002 0.000000
v 5.300000 -17.426796 4.500000
v 5.300000 -17.400002 4.400002
v 5.300000 -16.400002 4.799999
v 5.300000 -16.400002 4.799999
v 5.300000 -17.400002 4.400002
v 5.300000 -16.400002 0.000000
v 5.300000 -16.400002 0.000000
v 5.300000 -17.400002 4.400002
v 5.300000 -17.400002 0.000000
v -5.300000 -16.400002 4.799999
v -5.300000 -16.533978 5.299999
v -3.700000 -16.400002 4.799999
v -3.700000 -16.400002 4.799999
v -5.300000 -16.533978 5.299999
v -3.700000 -16.533978 5.299999
v -3.700000 -16.533978 5.299999
v -5.300000 -16.533978 5.299999
v -3.700000 -16.900002 5.666027
v -3.700000 -16.900002 5.666027
v -5.300000 -16.533978 5.299999
v -5.300000 -16.900002 5.666027
v -3.700000 -16.900002 5.666027
v -5.300000 -16.900002 5.666027
v -5.300000 -17.400002 5.799999
v -5.300000 -17.400002 5.799999
v -3.700000 -17.400002 5.799999
v -3.700000 -16.900002 5.666027
v -3.700000 -16.400002 4.799999
v -3.700000 -16.400002 0.000000
v -5.300000 -16.400002 4.799999
v -5.300000 -16.400002 4.799999
v -3.700000 -16.400002 0.000000
v -5.300000 -16.400002 0.000000
v -3.700000 -16.533978 5.299999
v -3.700000 -17.600002 4.599998
v -3.700000 -16.400002 4.799999
v -3.700000 -16.400002 4.799999
v -3.700000 -17.600002 4.599998
v -3.700000 -17.500000 4.573204
v -3.700000 -16.400002 4.799999
v -3.700000 -17.500000 4.573204
v -3.700000 -17.426796 4.500000
v -3.700000 -16.533978 5.299999
v -3.700000 -16.900002 5.666027
v -3.700000 -17.600002 4.599998
v -3.700000 -17.600002 4.599998
v -3.700000 -16.900002 5.666027
v -3.700000 -17.400002 5.799999
v -3.700000 -17.600002 4.599998
v -3.700000 -17.400002 5.799999
v -3.700000 -26.600002 5.799999
v -3.700000 -17.600002 4.599998
v -3.700000 -26.600002 5.799999
v -3.700000 -26.400002 4.599998
v -3.700000 -26.400002 4.599998
v -3.700000 -26.600002 5.799999
v -3.700000 -27.100002 5.666027
v -3.700000 -26.400002 4.599998
v -3.700000 -27.100002 5.666027
v -3.700000 -27.466026 5.299999
v -3.700000 -27.466026 5.299999
v -3.700000 -27.600002 4.799999
v -3.700000 -26.400002 4.599998
v -3.700000 -26.400002 4.599998
v -3.700000 -27.600002 4.799999
v -3.700000 -26.500000 4.573204
v -3.700000 -26.500000 4.573204
v -3.700000 -27.600002 4.799999
v -3.700000 -26.573208 4.500000
v -3.700000 -26.573208 4.500000
v -3.700000 -27.600002 4.799999
v -3.700000 -26.600002 4.400002
v -3.700000 -26.600002 4.400002
v -3.700000 -27.600002 4.799999
v -3.700000 -27.600002 0.000000
v -3.700000 -26.600002 4.400002
v -3.700000 -27.600002 0.000000
v -3.700000 -26.600002 0.000000
v -3.700000 -17.426796 4.500000
v -3.700000 -17.400002 4.400002
v -3.700000 -16.400002 4.799999
v -3.700000 -16.400002 4.799999
v -3.700000 -17.400002 4.400002
v -3.700000 -16.400002 0.000000
v -3.700000 -16.400002 0.000000
v -3.700000 -17.400002 4.400002
v -3.700000 -17.400002 0.000000
v -3.700000 -27.600002 4.799999
v -3.700000 -27.466026 5.299999
v -5.300000 -27.600002 4.799999
v -5.300000 -27.600002 4.799999
v -3.700000 -27.466026 5.299999
v -5.300000 -27.466026 5.299999
v -5.300000 -27.466026 5.299999
v -3.700000 -27.466026 5.299999
v -5.300000 -27.100002 5.666027
v -5.300000 -27.100002 5.666027
v -3.700000 -27.466026 5.299999
v -3.700000 -27.100002 5.666027
v -5.300000 -27.100002 5.666027
v -3.700000 -27.100002 5.666027
v -3.700000 -26.600002 5.799999
v -3.700000 -26.600002 5.799999
v -5.300000 -26.600002 5.799999
v -5.300000 -27.100002 5.666027
v -5.300000 -27.600002 4.799999
v -5.300000 -27.600002 0.000000
v -3.700000 -27.600002 4.799999
v -3.700000 -27.600002 4.799999
v -5.300000 -27.600002 0.000000
v -3.700000 -27.600002 0.000000
v -3.700000 -26.600002 4.400002
v -5.300000 -26.600002 4.400002
v -3.700000 -26.573208 4.500000
v -3.700000 -26.573208 4.500000
v -5.300000 -26.600002 4.400002
v -5.300000 -26.573208 4.500000
v -3.700000 -26.573208 4.500000
v -5.300000 -26.573208 4.500000
v -5.300000 -26.500000 4.573204
v -5.300000 -26.400002 4.599998
v -3.700000 -26.400002 4.599998
v -5.300000 -26.500000 4.573204
v -5.300000 -26.500000 4.573204
v -3.700000 -26.400002 4.599998
v -3.700000 -26.500000 4.573204
v -5.300000 -26.500000 4.573204
v -3.700000 -26.500000 4.573204
v -3.700000 -26.573208 4.500000
v -5.300000 -26.400002 4.599998
v -5.300000 -17.600002 4.599998
v -3.700000 -26.400002 4.599998
v -3.700000 -26.400002 4.599998
v -5.300000 -17.600002 4.599998
v -3.700000 -17.600002 4.599998
v -3.700000 -17.600002 4.599998
v -5.300000 -17.600002 4.599998
v -3.700000 -17.500000 4.573204
v -3.700000 -17.500000 4.573204
v -5.300000 -17.600002 4.599998
v -5.300000 -17.500000 4.573204
v -3.700000 -17.500000 4.573204
v -5.300000 -17.500000 4.573204
v -5.300000 -17.426796 4.500000
v -5.300000 -17.400002 4.400002
v -3.700000 -17.400002 4.400002
v -5.300000 -17.426796 4.500000
v -5.300000 -17.426796 4.500000
v -3.700000 -17.400002 4.400002
v -3.700000 -17.426796 4.500000
v -5.300000 -17.426796 4.500000
v -3.700000 -17.426796 4.500000
v -3.700000 -17.500000 4.573204
v -5.300000 -17.400002 4.400002
v -5.300000 -17.400002 0.000000
v -3.700000 -17.400002 4.400002
v -3.700000 -17.400002 4.400002
v -5.300000 -17.400002 0.000000
v -3.700000 -17.400002 0.000000
v -5.300000 -17.400002 5.799999
v -5.300000 -26.600002 5.799999
v -3.700000 -17.400002 5.799999
v -3.700000 -17.400002 5.799999
v -5.300000 -26.600002 5.799999
v -3.700000 -26.600002 5.799999
v -3.700000 -26.600002 4.400002
v -3.700000 -26.600002 0.000000
v -5.300000 -26.600002 4.400002
v -5.300000 -26.600002 4.400002
v -3.700000 -26.600002 0.000000
v -5.300000 -26.600002 0.000000
v -5.300000 -17.400002 0.000000
v -5.300000 -16.400002 0.000000
v -3.700000 -17.400002 0.000000
v -3.700000 -17.400002 0.000000
v -5.300000 -16.400002 0.000000
v -3.700000 -16.400002 0.000000
v -5.300000 -27.600002 0.000000
v -5.300000 -26.600002 0.000000
v -3.700000 -27.600002 0.000000
v -3.700000 -27.600002 0.000000
v -5.300000 -26.600002 0.000000
v -3.700000 -26.600002 0.000000
v -5.300000 -16.900002 5.666027
v -5.300000 -17.600002 4.599998
v -5.300000 -17.400002 5.799999
v -5.300000 -17.400002 5.799999
v -5.300000 -17.600002 4.599998
v -5.300000 -26.400002 4.599998
v -5.300000 -17.400002 5.799999
v -5.300000 -26.400002 4.599998
v -5.300000 -26.600002 5.799999
v -5.300000 -26.600002 5.799999
v -5.300000 -26.400002 4.599998
v -5.300000 -27.100002 5.666027
v -5.300000 -27.100002 5.666027
v -5.300000 -26.400002 4.599998
v -5.300000 -27.466026 5.299999
v -5.300000 -27.466026 5.299999
v -5.300000 -26.400002 4.599998
v -5.300000 -27.600002 4.799999
v -5.300000 -27.600002 4.799999
v -5.300000 -26.400002 4.599998
v -5.300000 -26.500000 4.573204
v -5.300000 -27.600002 4.799999
v -5.300000 -26.500000 4.573204
v -5.300000 -26.573208 4.500000
v -5.300000 -16.900002 5.666027
v -5.300000 -16.533978 5.299999
v -5.300000 -17.600002 4.599998
v -5.300000 -17.600002 4.599998
v -5.300000 -16.533978 5.299999
v -5.300000 -16.400002 4.799999
v -5.300000 -17.600002 4.599998
v -5.300000 -16.400002 4.799999
v -5.300000 -17.500000 4.573204
v -5.300000 -17.500000 4.573204
v -5.300000 -16.400002 4.799999
v -5.300000 -17.426796 4.500000
v -5.300000 -17.426796 4.500000
v -5.300000 -16.400002 4.799999
v -5.300000 -17.400002 4.400002
v -5.300000 -17.400002 4.400002
v -5.300000 -16.400002 4.799999
v -5.300000 -16.400002 0.000000
v -5.300000 -17.400002 4.400002
v -5.300000 -16.400002 0.000000
v -5.300000 -17.400002 0.000000
v -5.300000 -26.573208 4.500000
v -5.300000 -26.600002 4.400002
v -5.300000 -27.600002 4.799999
v -5.300000 -27.600002 4.799999
v -5.300000 -26.600002 4.400002
v -5.300000 -27.600002 0.000000
v -5.300000 -27.600002 0.000000
v -5.300000 -26.600002 4.400002
v -5.300000 -26.600002 0.000000
vn -1.0000 -0.0000 -0.0000
vn -0.0000 -0.2588 0.9659
vn -0.0000 -0.7071 0.7071
vn -0.0000 -0.9659 0.2588
vn -0.0000 -1.0000 -0.0000
vn -0.0000 -0.9659 -0.2588
vn -0.0000 -0.7071 -0.7071
vn -0.0000 -0.2588 -0.9659
vn -0.0000 -0.0000 1.0000
vn -0.0000 -0.0000 -1.0000
vn -0.0000 0.2588 -0.9659
vn -0.0000 0.7071 -0.7071
vn -0.0000 0.9659 -0.2588
vn -0.0000 0.9659 0.2588
vn -0.0000 0.7071 0.7071
vn -0.0000 0.2588 0.9659
vn -0.0000 1.0000 -0.0000
vn 1.0000 -0.0000 -0.0000
vn 0.9010 -0.0000 -0.4339
vn 0.9010 -0.0000 0.4339
vn 0.2225 -0.0000 0.9749
vn -0.6235 -0.0000 0.7818
vn -0.6235 -0.0000 -0.7818
vn 0.2225 -0.0000 -0.9749
vn -0.9010 -0.0000 0.4339
vn -0.9010 -0.0000 -0.4339
vn -0.2225 -0.0000 -0.9749
vn 0.6235 -0.0000 -0.7818
vn 0.6235 -0.0000 0.7818
vn -0.2225 -0.0000 0.9749
vn -0.0000 0.2589 -0.9659
vt 0.524907 0.567348
vt 0.534529 0.423031
vt 0.524907 0.432652
vt 0.529718 0.424320
vt 0.526196 0.427842
vt 0.526196 0.572158
vt 0.529718 0.575680
vt 0.534529 0.576969
vt 0.592255 0.423031
vt 0.592255 0.576969
vt 0.601876 0.432652
vt 0.601876 0.567348
vt 0.597066 0.575680
vt 0.600587 0.572158
vt 0.600587 0.427842
vt 0.597066 0.424320
vt 0.489291 0.432652
vt 0.412322 0.432652
vt 0.489291 0.427842
vt 0.412322 0.427842
vt 0.489291 0.498422
vt 0.412322 0.498422
vt 0.412322 0.501943
vt 0.412322 0.506754
vt 0.489291 0.506754
vt 0.489291 0.501943
vt 0.412322 0.564480
vt 0.489291 0.564480
vt 0.489291 0.569291
vt 0.412322 0.569291
vt 0.412322 0.572813
vt 0.489291 0.572813
vt 0.412322 0.567348
vt 0.489291 0.567348
vt 0.489291 0.572158
vt 0.412322 0.572158
vt 0.643229 0.432652
vt 0.643229 0.567348
vt 0.566260 0.432652
vt 0.566260 0.567348
vt 0.566260 0.506754
vt 0.643229 0.506754
vt 0.566260 0.501943
vt 0.643229 0.501943
vt 0.643229 0.498422
vt 0.643229 0.427842
vt 0.566260 0.427842
vt 0.566260 0.498422
vt 0.643229 0.564480
vt 0.566260 0.564480
vt 0.566260 0.572813
vt 0.643229 0.572813
vt 0.643229 0.569291
vt 0.566260 0.569291
vt 0.643229 0.572158
vt 0.566260 0.572158
vt 0.575427 0.576969
vt 0.563392 0.607756
vt 0.563392 0.576969
vt 0.551357 0.607756
vt 0.551357 0.576969
vt 0.623963 0.576969
vt 0.623963 0.607756
vt 0.610940 0.607756
vt 0.610940 0.576969
vt 0.600496 0.607756
vt 0.600496 0.576969
vt 0.556713 0.576969
vt 0.556713 0.607756
vt 0.570071 0.607756
vt 0.570071 0.576969
vt 0.575427 0.607756
vt 0.623963 0.523582
vt 0.600496 0.528938
vt 0.629759 0.535617
vt 0.600496 0.542296
vt 0.623963 0.547652
vt 0.610940 0.550625
vt 0.610940 0.520609
vt 0.551357 0.423031
vt 0.563392 0.392243
vt 0.563392 0.423031
vt 0.575427 0.392243
vt 0.575427 0.423031
vt 0.623963 0.423031
vt 0.623963 0.392243
vt 0.610940 0.392243
vt 0.610940 0.423031
vt 0.600496 0.392243
vt 0.600496 0.423031
vt 0.570071 0.423031
vt 0.570071 0.392243
vt 0.556713 0.392243
vt 0.556713 0.423031
vt 0.551357 0.392243
vt 0.431587 0.576969
vt 0.431587 0.607756
vt 0.444611 0.607756
vt 0.444611 0.576969
vt 0.455054 0.607756
vt 0.455054 0.576969
vt 0.431587 0.547652
vt 0.455054 0.542296
vt 0.425791 0.535617
vt 0.455054 0.528938
vt 0.431587 0.523582
vt 0.444611 0.520609
vt 0.444611 0.550625
vt 0.431587 0.423031
vt 0.431587 0.392243
vt 0.444611 0.392243
vt 0.444611 0.423031
vt 0.455054 0.392243
vt 0.455054 0.423031
vt 0.629759 0.588514
vt 0.629759 0.598135
vt 0.598971 0.588514
vt 0.598971 0.598135
vt 0.598971 0.426590
vt 0.629759 0.426590
vt 0.598971 0.433633
vt 0.629759 0.433633
vt 0.629759 0.443254
vt 0.598971 0.443254
vt 0.598971 0.535617
vt 0.454365 0.598135
vt 0.474878 0.584666
vt 0.451787 0.588514
vt 0.474878 0.415334
vt 0.451787 0.411486
vt 0.454365 0.401864
vt 0.461408 0.394821
vt 0.471029 0.392243
vt 0.475393 0.413410
vt 0.476802 0.412001
vt 0.461408 0.605178
vt 0.471029 0.607756
vt 0.475393 0.586590
vt 0.476802 0.587999
vt 0.478726 0.588514
vt 0.563392 0.588514
vt 0.478726 0.411486
vt 0.563392 0.411486
vt 0.598971 0.411486
vt 0.598971 0.401864
vt 0.629759 0.411486
vt 0.629759 0.401864
vt 0.598971 0.415334
vt 0.629759 0.415334
vt 0.598971 0.413410
vt 0.629759 0.413410
vt 0.629759 0.412001
vt 0.629759 0.450951
vt 0.598971 0.450951
vt 0.629759 0.449027
vt 0.598971 0.449027
vt 0.598971 0.412001
vt 0.598971 0.584666
vt 0.629759 0.584666
vt 0.629759 0.447618
vt 0.629759 0.586590
vt 0.598971 0.586590
vt 0.598971 0.447618
vt 0.629759 0.607756
vt 0.598971 0.607756
vt 0.629759 0.392243
vt 0.598971 0.392243
vt 0.425791 0.443254
vt 0.425791 0.433633
vt 0.456579 0.443254
vt 0.456579 0.433633
vt 0.456579 0.426590
vt 0.425791 0.426590
vt 0.456579 0.598135
vt 0.425791 0.598135
vt 0.425791 0.588514
vt 0.456579 0.588514
vt 0.456579 0.535617
vt 0.425791 0.401864
vt 0.456579 0.401864
vt 0.456579 0.411486
vt 0.425791 0.411486
vt 0.456579 0.450951
vt 0.425791 0.450951
vt 0.456579 0.449027
vt 0.425791 0.449027
vt 0.456579 0.412001
vt 0.425791 0.412001
vt 0.425791 0.413410
vt 0.425791 0.415334
vt 0.456579 0.415334
vt 0.456579 0.413410
vt 0.425791 0.584666
vt 0.456579 0.584666
vt 0.456579 0.586590
vt 0.425791 0.586590
vt 0.456579 0.447618
vt 0.425791 0.447618
vt 0.425791 0.607756
vt 0.456579 0.607756
vt 0.425791 0.392243
vt 0.456579 0.392243
s 0
f 1/1/1 2/2/1 3/3/1
f 4/3/1 5/2/1 6/4/1
f 7/3/1 8/4/1 9/5/1
f 10/6/1 11/7/1 12/1/1
f 13/1/1 14/7/1 15/8/1
f 16/1/1 17/8/1 18/2/1
f 19/2/1 20/8/1 21/9/1
f 22/9/1 23/8/1 24/10/1
f 25/9/1 26/10/1 27/11/1
f 28/11/1 29/10/1 30/12/1
f 31/12/1 32/10/1 33/13/1
f 34/12/1 35/13/1 36/14/1
f 37/15/1 38/16/1 39/11/1
f 40/11/1 41/16/1 42/9/1
f 43/17/2 44/18/2 45/19/2
f 46/19/2 47/18/2 48/20/2
f 49/21/3 50/22/3 51/23/3
f 52/24/4 53/25/4 54/23/4
f 55/23/4 56/25/4 57/26/4
f 58/23/3 59/26/3 60/21/3
f 61/24/5 62/27/5 63/25/5
f 64/25/5 65/27/5 66/28/5
f 67/28/6 68/27/6 69/29/6
f 70/29/6 71/27/6 72/30/6
f 73/29/7 74/30/7 75/31/7
f 76/18/8 77/17/8 78/20/8
f 79/20/8 80/17/8 81/19/8
f 82/31/7 83/32/7 84/29/7
f 85/33/9 86/18/9 87/34/9
f 88/34/9 89/18/9 90/17/9
f 91/18/10 92/33/10 93/17/10
f 94/17/10 95/33/10 96/34/10
f 97/34/11 98/33/11 99/35/11
f 100/35/11 101/33/11 102/36/11
f 103/32/12 104/31/12 105/30/12
f 106/27/13 107/28/13 108/30/13
f 109/30/13 110/28/13 111/29/13
f 112/30/12 113/29/12 114/32/12
f 115/25/14 116/24/14 117/26/14
f 118/26/14 119/24/14 120/23/14
f 121/26/15 122/23/15 123/22/15
f 124/33/16 125/34/16 126/36/16
f 127/36/16 128/34/16 129/35/16
f 130/22/15 131/21/15 132/26/15
f 133/27/17 134/24/17 135/28/17
f 136/28/17 137/24/17 138/25/17
f 139/3/18 140/8/18 141/1/18
f 142/1/18 143/8/18 144/7/18
f 145/1/18 146/7/18 147/6/18
f 148/5/18 149/4/18 150/3/18
f 151/3/18 152/4/18 153/2/18
f 154/3/18 155/2/18 156/8/18
f 157/8/18 158/2/18 159/10/18
f 160/10/18 161/2/18 162/9/18
f 163/10/18 164/9/18 165/12/18
f 166/12/18 167/9/18 168/11/18
f 169/11/18 170/9/18 171/16/18
f 172/11/18 173/16/18 174/15/18
f 175/14/18 176/13/18 177/12/18
f 178/12/18 179/13/18 180/10/18
f 181/37/9 182/38/9 183/39/9
f 184/39/9 185/38/9 186/40/9
f 187/41/4 188/42/4 189/43/4
f 190/43/4 191/42/4 192/44/4
f 193/43/3 194/44/3 195/45/3
f 196/37/2 197/39/2 198/46/2
f 199/46/2 200/39/2 201/47/2
f 202/45/3 203/48/3 204/43/3
f 205/49/5 206/42/5 207/50/5
f 208/50/5 209/42/5 210/41/5
f 211/39/8 212/37/8 213/47/8
f 214/47/8 215/37/8 216/46/8
f 217/51/7 218/52/7 219/53/7
f 220/49/6 221/50/6 222/53/6
f 223/53/6 224/50/6 225/54/6
f 226/53/7 227/54/7 228/51/7
f 229/38/10 230/37/10 231/40/10
f 232/40/10 233/37/10 234/39/10
f 235/50/13 236/49/13 237/54/13
f 238/54/13 239/49/13 240/53/13
f 241/54/12 242/53/12 243/52/12
f 244/38/11 245/40/11 246/55/11
f 247/55/11 248/40/11 249/56/11
f 250/52/12 251/51/12 252/54/12
f 253/42/17 254/49/17 255/41/17
f 256/41/17 257/49/17 258/50/17
f 259/40/16 260/38/16 261/56/16
f 262/56/16 263/38/16 264/55/16
f 265/48/15 266/45/15 267/44/15
f 268/42/14 269/41/14 270/44/14
f 271/44/14 272/41/14 273/43/14
f 274/44/15 275/43/15 276/48/15
f 277/57/19 278/58/19 279/59/19
f 280/59/20 281/58/20 282/60/20
f 283/59/20 284/60/20 285/61/20
f 286/62/21 287/63/21 288/64/21
f 289/62/21 290/64/21 291/65/21
f 292/65/22 293/64/22 294/66/22
f 295/65/22 296/66/22 297/67/22
f 298/68/1 299/69/1 300/70/1
f 301/68/1 302/70/1 303/71/1
f 304/67/23 305/66/23 306/64/23
f 307/67/23 308/64/23 309/65/23
f 310/65/24 311/64/24 312/63/24
f 313/65/24 314/63/24 315/62/24
f 316/57/19 317/72/19 318/58/19
f 319/73/5 320/74/5 321/75/5
f 322/75/5 323/74/5 324/76/5
f 325/75/5 326/76/5 327/77/5
f 328/77/5 329/76/5 330/78/5
f 331/73/5 332/79/5 333/74/5
f 334/77/17 335/76/17 336/75/17
f 337/75/17 338/76/17 339/74/17
f 340/75/17 341/74/17 342/73/17
f 343/73/17 344/74/17 345/79/17
f 346/77/17 347/78/17 348/76/17
f 349/80/20 350/81/20 351/82/20
f 352/82/19 353/81/19 354/83/19
f 355/82/19 356/83/19 357/84/19
f 358/85/24 359/86/24 360/87/24
f 361/85/24 362/87/24 363/88/24
f 364/88/23 365/87/23 366/89/23
f 367/88/23 368/89/23 369/90/23
f 370/91/1 371/92/1 372/93/1
f 373/91/1 374/93/1 375/94/1
f 376/90/22 377/89/22 378/87/22
f 379/90/22 380/87/22 381/88/22
f 382/88/21 383/87/21 384/86/21
f 385/88/21 386/86/21 387/85/21
f 388/80/20 389/95/20 390/81/20
f 391/77/17 392/76/17 393/75/17
f 394/75/17 395/76/17 396/74/17
f 397/75/17 398/74/17 399/73/17
f 400/73/17 401/74/17 402/79/17
f 403/77/17 404/78/17 405/76/17
f 406/73/5 407/74/5 408/75/5
f 409/75/5 410/74/5 411/76/5
f 412/75/5 413/76/5 414/77/5
f 415/77/5 416/76/5 417/78/5
f 418/73/5 419/79/5 420/74/5
f 421/61/25 422/58/25 423/59/25
f 424/59/26 425/58/26 426/72/26
f 427/59/26 428/72/26 429/57/26
f 430/96/27 431/97/27 432/98/27
f 433/96/27 434/98/27 435/99/27
f 436/99/28 437/98/28 438/100/28
f 439/99/28 440/100/28 441/101/28
f 442/71/18 443/70/18 444/69/18
f 445/71/18 446/69/18 447/68/18
f 448/101/29 449/100/29 450/98/29
f 451/101/29 452/98/29 453/99/29
f 454/99/30 455/98/30 456/97/30
f 457/99/30 458/97/30 459/96/30
f 460/61/25 461/60/25 462/58/25
f 463/102/5 464/103/5 465/104/5
f 466/104/5 467/103/5 468/105/5
f 469/104/5 470/105/5 471/106/5
f 472/106/5 473/105/5 474/107/5
f 475/102/5 476/108/5 477/103/5
f 478/106/17 479/105/17 480/104/17
f 481/104/17 482/105/17 483/103/17
f 484/104/17 485/103/17 486/102/17
f 487/102/17 488/103/17 489/108/17
f 490/106/17 491/107/17 492/105/17
f 493/84/26 494/81/26 495/82/26
f 496/82/25 497/81/25 498/95/25
f 499/82/25 500/95/25 501/80/25
f 502/109/30 503/110/30 504/111/30
f 505/109/30 506/111/30 507/112/30
f 508/112/29 509/111/29 510/113/29
f 511/112/29 512/113/29 513/114/29
f 514/94/18 515/93/18 516/92/18
f 517/94/18 518/92/18 519/91/18
f 520/114/28 521/113/28 522/111/28
f 523/114/28 524/111/28 525/112/28
f 526/112/27 527/111/27 528/110/27
f 529/112/27 530/110/27 531/109/27
f 532/84/26 533/83/26 534/81/26
f 535/106/17 536/105/17 537/104/17
f 538/104/17 539/105/17 540/103/17
f 541/104/17 542/103/17 543/102/17
f 544/102/17 545/103/17 546/108/17
f 547/106/17 548/107/17 549/105/17
f 550/102/5 551/103/5 552/104/5
f 553/104/5 554/103/5 555/105/5
f 556/104/5 557/105/5 558/106/5
f 559/106/5 560/105/5 561/107/5
f 562/102/5 563/108/5 564/103/5
f 565/115/16 566/116/16 567/117/16
f 568/117/16 569/116/16 570/118/16
f 571/119/15 572/120/15 573/121/15
f 574/121/15 575/120/15 576/122/15
f 577/121/14 578/122/14 579/123/14
f 580/123/14 581/124/14 582/121/14
f 583/123/17 584/75/17 585/124/17
f 586/124/17 587/75/17 588/125/17
f 589/126/1 590/127/1 591/128/1
f 592/128/1 593/127/1 594/129/1
f 595/128/1 596/129/1 597/130/1
f 598/130/1 599/129/1 600/131/1
f 601/131/1 602/129/1 603/132/1
f 604/132/1 605/129/1 606/133/1
f 607/133/1 608/129/1 609/134/1
f 610/133/1 611/134/1 612/135/1
f 613/126/1 614/136/1 615/127/1
f 616/127/1 617/136/1 618/137/1
f 619/127/1 620/137/1 621/138/1
f 622/138/1 623/137/1 624/139/1
f 625/139/1 626/137/1 627/140/1
f 628/140/1 629/137/1 630/58/1
f 631/140/1 632/58/1 633/141/1
f 634/135/1 635/142/1 636/133/1
f 637/133/1 638/142/1 639/81/1
f 640/81/1 641/142/1 642/143/1
f 643/144/2 644/145/2 645/146/2
f 646/146/2 647/145/2 648/147/2
f 649/120/3 650/119/3 651/122/3
f 652/122/3 653/119/3 654/121/3
f 655/122/4 656/121/4 657/124/4
f 658/124/4 659/123/4 660/122/4
f 661/124/5 662/125/5 663/123/5
f 664/123/5 665/125/5 666/75/5
f 667/148/31 668/149/31 669/150/31
f 670/150/31 671/149/31 672/151/31
f 673/150/12 674/151/12 675/152/12
f 676/153/13 677/154/13 678/155/13
f 679/155/13 680/154/13 681/156/13
f 682/152/12 683/157/12 684/150/12
f 685/148/10 686/158/10 687/149/10
f 688/149/10 689/158/10 690/159/10
f 691/154/6 692/153/6 693/156/6
f 694/156/6 695/153/6 696/155/6
f 697/156/7 698/155/7 699/160/7
f 700/159/8 701/158/8 702/161/8
f 703/161/8 704/158/8 705/162/8
f 706/160/7 707/163/7 708/156/7
f 709/154/5 710/125/5 711/153/5
f 712/153/5 713/125/5 714/75/5
f 715/117/9 716/144/9 717/115/9
f 718/115/9 719/144/9 720/146/9
f 721/153/17 722/75/17 723/154/17
f 724/154/17 725/75/17 726/125/17
f 727/164/10 728/115/10 729/165/10
f 730/165/10 731/115/10 732/117/10
f 733/146/10 734/166/10 735/144/10
f 736/144/10 737/166/10 738/167/10
f 739/136/18 740/127/18 741/137/18
f 742/137/18 743/127/18 744/138/18
f 745/137/18 746/138/18 747/139/18
f 748/136/18 749/126/18 750/127/18
f 751/127/18 752/126/18 753/128/18
f 754/127/18 755/128/18 756/130/18
f 757/127/18 758/130/18 759/129/18
f 760/129/18 761/130/18 762/131/18
f 763/129/18 764/131/18 765/132/18
f 766/132/18 767/133/18 768/129/18
f 769/129/18 770/133/18 771/134/18
f 772/134/18 773/133/18 774/135/18
f 775/135/18 776/133/18 777/142/18
f 778/142/18 779/133/18 780/81/18
f 781/142/18 782/81/18 783/143/18
f 784/139/18 785/140/18 786/137/18
f 787/137/18 788/140/18 789/58/18
f 790/58/18 791/140/18 792/141/18
f 793/168/14 794/169/14 795/170/14
f 796/170/14 797/169/14 798/171/14
f 799/171/15 800/169/15 801/172/15
f 802/172/15 803/169/15 804/173/15
f 805/174/16 806/175/16 807/176/16
f 808/176/16 809/177/16 810/174/16
f 811/170/17 812/178/17 813/168/17
f 814/168/17 815/178/17 816/104/17
f 817/136/18 818/127/18 819/137/18
f 820/137/18 821/127/18 822/138/18
f 823/137/18 824/138/18 825/139/18
f 826/136/18 827/126/18 828/127/18
f 829/127/18 830/126/18 831/128/18
f 832/127/18 833/128/18 834/130/18
f 835/127/18 836/130/18 837/129/18
f 838/129/18 839/130/18 840/131/18
f 841/129/18 842/131/18 843/132/18
f 844/132/18 845/133/18 846/129/18
f 847/129/18 848/133/18 849/134/18
f 850/134/18 851/133/18 852/135/18
f 853/135/18 854/133/18 855/142/18
f 856/142/18 857/133/18 858/81/18
f 859/142/18 860/81/18 861/143/18
f 862/139/18 863/140/18 864/137/18
f 865/137/18 866/140/18 867/58/18
f 868/58/18 869/140/18 870/141/18
f 871/170/4 872/171/4 873/168/4
f 874/168/4 875/171/4 876/169/4
f 877/169/3 878/171/3 879/173/3
f 880/173/3 881/171/3 882/172/3
f 883/179/2 884/180/2 885/181/2
f 886/181/2 887/182/2 888/179/2
f 889/168/5 890/104/5 891/170/5
f 892/170/5 893/104/5 894/178/5
f 895/183/13 896/184/13 897/185/13
f 898/185/13 899/184/13 900/186/13
f 901/187/12 902/188/12 903/189/12
f 904/190/31 905/191/31 906/189/31
f 907/189/31 908/191/31 909/192/31
f 910/189/12 911/192/12 912/187/12
f 913/190/10 914/193/10 915/191/10
f 916/191/10 917/193/10 918/194/10
f 919/194/8 920/193/8 921/195/8
f 922/195/8 923/193/8 924/196/8
f 925/197/7 926/198/7 927/186/7
f 928/184/6 929/183/6 930/186/6
f 931/186/6 932/183/6 933/185/6
f 934/186/7 935/185/7 936/197/7
f 937/184/5 938/104/5 939/183/5
f 940/183/5 941/104/5 942/178/5
f 943/176/9 944/182/9 945/177/9
f 946/177/9 947/182/9 948/181/9
f 949/183/17 950/178/17 951/184/17
f 952/184/17 953/178/17 954/104/17
f 955/176/10 956/199/10 957/177/10
f 958/177/10 959/199/10 960/200/10
f 961/201/10 962/182/10 963/202/10
f 964/202/10 965/182/10 966/181/10
f 967/126/1 968/127/1 969/128/1
f 970/128/1 971/127/1 972/129/1
f 973/128/1 974/129/1 975/130/1
f 976/130/1 977/129/1 978/131/1
f 979/131/1 980/129/1 981/132/1
f 982/132/1 983/129/1 984/133/1
f 985/133/1 986/129/1 987/134/1
f 988/133/1 989/134/1 990/135/1
f 991/126/1 992/136/1 993/127/1
f 994/127/1 995/136/1 996/137/1
f 997/127/1 998/137/1 999/138/1
f 1000/138/1 1001/137/1 1002/139/1
f 1003/139/1 1004/137/1 1005/140/1
f 1006/140/1 1007/137/1 1008/58/1
f 1009/140/1 1010/58/1 1011/141/1
f 1012/135/1 1013/142/1 1014/133/1
f 1015/133/1 1016/142/1 1017/81/1
f 1018/81/1 1019/142/1 1020/143/1
