# Blender 5.2.0 LTS
# www.blender.org
o D4
v 2.000000 -28.200001 -5.000000
v 2.000000 -28.200001 5.000000
v 6.000000 -28.200001 -5.000000
v 6.000000 -28.200001 -5.000000
v 2.000000 -28.200001 5.000000
v 6.000000 -28.200001 5.000000
v -2.000000 -28.200001 5.000000
v -2.000000 -28.200001 -5.000000
v -6.000000 -28.200001 5.000000
v -6.000000 -28.200001 5.000000
v -2.000000 -28.200001 -5.000000
v -6.000000 -28.200001 -5.000000
v -2.000000 -27.971642 6.148048
v -2.000000 -27.321323 7.121319
v -2.000000 -28.200001 5.000000
v -2.000000 -28.200001 5.000000
v -2.000000 -27.321323 7.121319
v -2.000000 -26.348053 7.771637
v -2.000000 -28.200001 5.000000
v -2.000000 -26.348053 7.771637
v -2.000000 -25.200001 8.000000
v -2.000000 -18.800003 8.000000
v -2.000000 -25.200001 -8.000000
v -2.000000 -25.200001 8.000000
v -2.000000 -25.200001 8.000000
v -2.000000 -25.200001 -8.000000
v -2.000000 -28.200001 -5.000000
v -2.000000 -25.200001 8.000000
v -2.000000 -28.200001 -5.000000
v -2.000000 -28.200001 5.000000
v -2.000000 -17.651951 7.771637
v -2.000000 -15.800003 5.000000
v -2.000000 -18.800003 8.000000
v -2.000000 -18.800003 8.000000
v -2.000000 -15.800003 5.000000
v -2.000000 -18.800003 -8.000000
v -2.000000 -18.800003 8.000000
v -2.000000 -18.800003 -8.000000
v -2.000000 -25.200001 -8.000000
v -2.000000 -17.651951 7.771637
v -2.000000 -16.678680 7.121319
v -2.000000 -15.800003 5.000000
v -2.000000 -15.800003 5.000000
v -2.000000 -16.678680 7.121319
v -2.000000 -16.028362 6.148048
v -2.000000 -15.800003 5.000000
v -2.000000 -15.800003 -5.000000
v -2.000000 -18.800003 -8.000000
v -2.000000 -18.800003 -8.000000
v -2.000000 -15.800003 -5.000000
v -2.000000 -17.651951 -7.771637
v -2.000000 -17.651951 -7.771637
v -2.000000 -15.800003 -5.000000
v -2.000000 -16.678680 -7.121319
v -2.000000 -16.678680 -7.121319
v -2.000000 -15.800003 -5.000000
v -2.000000 -16.028362 -6.148048
v -2.000000 -25.200001 -8.000000
v -2.000000 -26.348053 -7.771637
v -2.000000 -28.200001 -5.000000
v -2.000000 -28.200001 -5.000000
v -2.000000 -26.348053 -7.771637
v -2.000000 -27.321323 -7.121319
v -2.000000 -28.200001 -5.000000
v -2.000000 -27.321323 -7.121319
v -2.000000 -27.971642 -6.148048
v 2.000000 -27.971642 -6.148048
v 2.000000 -27.321323 -7.121319
v 2.000000 -28.200001 -5.000000
v 2.000000 -28.200001 -5.000000
v 2.000000 -27.321323 -7.121319
v 2.000000 -26.348053 -7.771637
v 2.000000 -28.200001 -5.000000
v 2.000000 -26.348053 -7.771637
v 2.000000 -25.200001 -8.000000
v 2.000000 -18.800003 -8.000000
v 2.000000 -25.200001 8.000000
v 2.000000 -25.200001 -8.000000
v 2.000000 -25.200001 -8.000000
v 2.000000 -25.200001 8.000000
v 2.000000 -28.200001 5.000000
v 2.000000 -25.200001 -8.000000
v 2.000000 -28.200001 5.000000
v 2.000000 -28.200001 -5.000000
v 2.000000 -17.651951 -7.771637
v 2.000000 -15.800003 -5.000000
v 2.000000 -18.800003 -8.000000
v 2.000000 -18.800003 -8.000000
v 2.000000 -15.800003 -5.000000
v 2.000000 -18.800003 8.000000
v 2.000000 -18.800003 -8.000000
v 2.000000 -18.800003 8.000000
v 2.000000 -25.200001 8.000000
v 2.000000 -17.651951 -7.771637
v 2.000000 -16.678680 -7.121319
v 2.000000 -15.800003 -5.000000
v 2.000000 -15.800003 -5.000000
v 2.000000 -16.678680 -7.121319
v 2.000000 -16.028362 -6.148048
v 2.000000 -15.800003 -5.000000
v 2.000000 -15.800003 5.000000
v 2.000000 -18.800003 8.000000
v 2.000000 -18.800003 8.000000
v 2.000000 -15.800003 5.000000
v 2.000000 -17.651951 7.771637
v 2.000000 -17.651951 7.771637
v 2.000000 -15.800003 5.000000
v 2.000000 -16.678680 7.121319
v 2.000000 -16.678680 7.121319
v 2.000000 -15.800003 5.000000
v 2.000000 -16.028362 6.148048
v 2.000000 -25.200001 8.000000
v 2.000000 -26.348053 7.771637
v 2.000000 -28.200001 5.000000
v 2.000000 -28.200001 5.000000
v 2.000000 -26.348053 7.771637
v 2.000000 -27.321323 7.121319
v 2.000000 -28.200001 5.000000
v 2.000000 -27.321323 7.121319
v 2.000000 -27.971642 6.148048
v 2.000000 -25.200001 8.000000
v 2.000000 -18.800003 8.000000
v 6.000000 -25.200001 8.000000
v 6.000000 -25.200001 8.000000
v 2.000000 -18.800003 8.000000
v 6.000000 -18.800003 8.000000
v -6.000000 -25.200001 8.000000
v -6.000000 -18.800003 8.000000
v -2.000000 -25.200001 8.000000
v -2.000000 -25.200001 8.000000
v -6.000000 -18.800003 8.000000
v -2.000000 -18.800003 8.000000
v 6.000000 -25.200001 -8.000000
v 6.000000 -18.800003 -8.000000
v 2.000000 -25.200001 -8.000000
v 2.000000 -25.200001 -8.000000
v 6.000000 -18.800003 -8.000000
v 2.000000 -18.800003 -8.000000
v -2.000000 -25.200001 -8.000000
v -2.000000 -18.800003 -8.000000
v -6.000000 -25.200001 -8.000000
v -6.000000 -25.200001 -8.000000
v -2.000000 -18.800003 -8.000000
v -6.000000 -18.800003 -8.000000
v 2.000000 -15.800003 5.000000
v 2.000000 -15.800003 -5.000000
v 6.000000 -15.800003 5.000000
v 6.000000 -15.800003 5.000000
v 2.000000 -15.800003 -5.000000
v 6.000000 -15.800003 -5.000000
v -2.000000 -15.800003 -5.000000
v -2.000000 -15.800003 5.000000
v -6.000000 -15.800003 -5.000000
v -6.000000 -15.800003 -5.000000
v -2.000000 -15.800003 5.000000
v -6.000000 -15.800003 5.000000
v 2.000000 -15.800003 -5.000000
v 2.000000 -16.028362 -6.148048
v 6.000000 -15.800003 -5.000000
v 6.000000 -15.800003 -5.000000
v 2.000000 -16.028362 -6.148048
v 6.000000 -16.028362 -6.148048
v 6.000000 -16.028362 -6.148048
v 2.000000 -16.028362 -6.148048
v 2.000000 -16.678680 -7.121319
v 6.000000 -16.028362 -6.148048
v 2.000000 -16.678680 -7.121319
v 6.000000 -16.678680 -7.121319
v 6.000000 -16.678680 -7.121319
v 2.000000 -16.678680 -7.121319
v 2.000000 -17.651951 -7.771637
v 6.000000 -16.678680 -7.121319
v 2.000000 -17.651951 -7.771637
v 6.000000 -17.651951 -7.771637
v 6.000000 -17.651951 -7.771637
v 2.000000 -17.651951 -7.771637
v 2.000000 -18.800003 -8.000000
v 6.000000 -17.651951 -7.771637
v 2.000000 -18.800003 -8.000000
v 6.000000 -18.800003 -8.000000
v 2.000000 -25.200001 -8.000000
v 2.000000 -26.348053 -7.771637
v 6.000000 -25.200001 -8.000000
v 6.000000 -25.200001 -8.000000
v 2.000000 -26.348053 -7.771637
v 6.000000 -26.348053 -7.771637
v 6.000000 -26.348053 -7.771637
v 2.000000 -26.348053 -7.771637
v 2.000000 -27.321323 -7.121319
v 6.000000 -26.348053 -7.771637
v 2.000000 -27.321323 -7.121319
v 6.000000 -27.321323 -7.121319
v 6.000000 -27.321323 -7.121319
v 2.000000 -27.321323 -7.121319
v 2.000000 -27.971642 -6.148048
v 6.000000 -27.321323 -7.121319
v 2.000000 -27.971642 -6.148048
v 6.000000 -27.971642 -6.148048
v 6.000000 -27.971642 -6.148048
v 2.000000 -27.971642 -6.148048
v 2.000000 -28.200001 -5.000000
v 6.000000 -27.971642 -6.148048
v 2.000000 -28.200001 -5.000000
v 6.000000 -28.200001 -5.000000
v -2.000000 -18.800003 -8.000000
v -2.000000 -17.651951 -7.771637
v -6.000000 -18.800003 -8.000000
v -6.000000 -18.800003 -8.000000
v -2.000000 -17.651951 -7.771637
v -6.000000 -17.651951 -7.771637
v -6.000000 -17.651951 -7.771637
v -2.000000 -17.651951 -7.771637
v -2.000000 -16.678680 -7.121319
v -6.000000 -17.651951 -7.771637
v -2.000000 -16.678680 -7.121319
v -6.000000 -16.678680 -7.121319
v -6.000000 -16.678680 -7.121319
v -2.000000 -16.678680 -7.121319
v -2.000000 -16.028362 -6.148048
v -6.000000 -16.678680 -7.121319
v -2.000000 -16.028362 -6.148048
v -6.000000 -16.028362 -6.148048
v -6.000000 -16.028362 -6.148048
v -2.000000 -16.028362 -6.148048
v -2.000000 -15.800003 -5.000000
v -6.000000 -16.028362 -6.148048
v -2.000000 -15.800003 -5.000000
v -6.000000 -15.800003 -5.000000
v -2.000000 -28.200001 -5.000000
v -2.000000 -27.971642 -6.148048
v -6.000000 -28.200001 -5.000000
v -6.000000 -28.200001 -5.000000
v -2.000000 -27.971642 -6.148048
v -6.000000 -27.971642 -6.148048
v -6.000000 -27.971642 -6.148048
v -2.000000 -27.971642 -6.148048
v -2.000000 -27.321323 -7.121319
v -6.000000 -27.971642 -6.148048
v -2.000000 -27.321323 -7.121319
v -6.000000 -27.321323 -7.121319
v -6.000000 -27.321323 -7.121319
v -2.000000 -27.321323 -7.121319
v -2.000000 -26.348053 -7.771637
v -6.000000 -27.321323 -7.121319
v -2.000000 -26.348053 -7.771637
v -6.000000 -26.348053 -7.771637
v -6.000000 -26.348053 -7.771637
v -2.000000 -26.348053 -7.771637
v -2.000000 -25.200001 -8.000000
v -6.000000 -26.348053 -7.771637
v -2.000000 -25.200001 -8.000000
v -6.000000 -25.200001 -8.000000
v 2.000000 -18.800003 8.000000
v 2.000000 -17.651951 7.771637
v 6.000000 -18.800003 8.000000
v 6.000000 -18.800003 8.000000
v 2.000000 -17.651951 7.771637
v 6.000000 -17.651951 7.771637
v 6.000000 -17.651951 7.771637
v 2.000000 -17.651951 7.771637
v 2.000000 -16.678680 7.121319
v 6.000000 -17.651951 7.771637
v 2.000000 -16.678680 7.121319
v 6.000000 -16.678680 7.121319
v 6.000000 -16.678680 7.121319
v 2.000000 -16.678680 7.121319
v 2.000000 -16.028362 6.148048
v 6.000000 -16.678680 7.121319
v 2.000000 -16.028362 6.148048
v 6.000000 -16.028362 6.148048
v 6.000000 -16.028362 6.148048
v 2.000000 -16.028362 6.148048
v 2.000000 -15.800003 5.000000
v 6.000000 -16.028362 6.148048
v 2.000000 -15.800003 5.000000
v 6.000000 -15.800003 5.000000
v 2.000000 -28.200001 5.000000
v 2.000000 -27.971642 6.148048
v 6.000000 -28.200001 5.000000
v 6.000000 -28.200001 5.000000
v 2.000000 -27.971642 6.148048
v 6.000000 -27.971642 6.148048
v 6.000000 -27.971642 6.148048
v 2.000000 -27.971642 6.148048
v 2.000000 -27.321323 7.121319
v 6.000000 -27.971642 6.148048
v 2.000000 -27.321323 7.121319
v 6.000000 -27.321323 7.121319
v 6.000000 -27.321323 7.121319
v 2.000000 -27.321323 7.121319
v 2.000000 -26.348053 7.771637
v 6.000000 -27.321323 7.121319
v 2.000000 -26.348053 7.771637
v 6.000000 -26.348053 7.771637
v 6.000000 -26.348053 7.771637
v 2.000000 -26.348053 7.771637
v 2.000000 -25.200001 8.000000
v 6.000000 -26.348053 7.771637
v 2.000000 -25.200001 8.000000
v 6.000000 -25.200001 8.000000
v -2.000000 -15.800003 5.000000
v -2.000000 -16.028362 6.148048
v -6.000000 -15.800003 5.000000
v -6.000000 -15.800003 5.000000
v -2.000000 -16.028362 6.148048
v -6.000000 -16.028362 6.148048
v -6.000000 -16.028362 6.148048
v -2.000000 -16.028362 6.148048
v -2.000000 -16.678680 7.121319
v -6.000000 -16.028362 6.148048
v -2.000000 -16.678680 7.121319
v -6.000000 -16.678680 7.121319
v -6.000000 -16.678680 7.121319
v -2.000000 -16.678680 7.121319
v -2.000000 -17.651951 7.771637
v -6.000000 -16.678680 7.121319
v -2.000000 -17.651951 7.771637
v -6.000000 -17.651951 7.771637
v -6.000000 -17.651951 7.771637
v -2.000000 -17.651951 7.771637
v -2.000000 -18.800003 8.000000
v -6.000000 -17.651951 7.771637
v -2.000000 -18.800003 8.000000
v -6.000000 -18.800003 8.000000
v -2.000000 -25.200001 8.000000
v -2.000000 -26.348053 7.771637
v -6.000000 -25.200001 8.000000
v -6.000000 -25.200001 8.000000
v -2.000000 -26.348053 7.771637
v -6.000000 -26.348053 7.771637
v -6.000000 -26.348053 7.771637
v -2.000000 -26.348053 7.771637
v -2.000000 -27.321323 7.121319
v -6.000000 -26.348053 7.771637
v -2.000000 -27.321323 7.121319
v -6.000000 -27.321323 7.121319
v -6.000000 -27.321323 7.121319
v -2.000000 -27.321323 7.121319
v -2.000000 -27.971642 6.148048
v -6.000000 -27.321323 7.121319
v -2.000000 -27.971642 6.148048
v -6.000000 -27.971642 6.148048
v -6.000000 -27.971642 6.148048
v -2.000000 -27.971642 6.148048
v -2.000000 -28.200001 5.000000
v -6.000000 -27.971642 6.148048
v -2.000000 -28.200001 5.000000
v -6.000000 -28.200001 5.000000
vn -0.0000 1.0000 -0.0000
vn -1.0000 -0.0000 -0.0000
vn 1.0000 -0.0000 -0.0000
vn -0.0000 -0.0000 -1.0000
vn -0.0000 -0.0000 1.0000
vn -0.0000 -1.0000 -0.0000
vn -0.0000 -0.9808 0.1951
vn -0.0000 -0.8315 0.5556
vn -0.0000 -0.5556 0.8315
vn -0.0000 -0.1951 0.9808
vn -0.0000 0.1951 0.9808
vn -0.0000 0.5556 0.8315
vn -0.0000 0.8315 0.5556
vn -0.0000 0.9808 0.1951
vn -0.0000 -0.1951 -0.9808
vn -0.0000 -0.5556 -0.8315
vn -0.0000 -0.8315 -0.5556
vn -0.0000 -0.9808 -0.1951
vn -0.0000 0.9808 -0.1951
vn -0.0000 0.8315 -0.5556
vn -0.0000 0.5556 -0.8315
vn -0.0000 0.1951 -0.9808
vt 0.566260 0.596211
vt 0.566260 0.403789
vt 0.643229 0.596211
vt 0.643229 0.403789
vt 0.489291 0.403789
vt 0.489291 0.596211
vt 0.412322 0.403789
vt 0.412322 0.596211
vt 0.409473 0.385092
vt 0.390745 0.397606
vt 0.431564 0.380698
vt 0.378231 0.416334
vt 0.373837 0.438425
vt 0.373837 0.561575
vt 0.681713 0.438425
vt 0.623986 0.380698
vt 0.378231 0.583666
vt 0.431564 0.619302
vt 0.681713 0.561575
vt 0.390745 0.602394
vt 0.409473 0.614908
vt 0.623986 0.619302
vt 0.677319 0.583666
vt 0.664805 0.602394
vt 0.646077 0.614908
vt 0.677319 0.416334
vt 0.664805 0.397606
vt 0.646077 0.385092
vt 0.566260 0.438425
vt 0.566260 0.561575
vt 0.643229 0.438425
vt 0.643229 0.561575
vt 0.412322 0.438425
vt 0.412322 0.561575
vt 0.489291 0.438425
vt 0.489291 0.561575
vt 0.566260 0.618302
vt 0.643229 0.618302
vt 0.566260 0.637030
vt 0.643229 0.637030
vt 0.643229 0.602394
vt 0.566260 0.602394
vt 0.566260 0.583666
vt 0.643229 0.583666
vt 0.566260 0.416334
vt 0.643229 0.416334
vt 0.566260 0.397606
vt 0.643229 0.397606
vt 0.489291 0.583666
vt 0.412322 0.583666
vt 0.489291 0.602394
vt 0.412322 0.602394
vt 0.412322 0.637030
vt 0.489291 0.637030
vt 0.489291 0.618302
vt 0.412322 0.618302
vt 0.412322 0.397606
vt 0.489291 0.397606
vt 0.489291 0.416334
vt 0.412322 0.416334
vt 0.643229 0.362970
vt 0.566260 0.362970
vt 0.566260 0.381698
vt 0.643229 0.381698
vt 0.489291 0.381698
vt 0.412322 0.381698
vt 0.489291 0.362970
vt 0.412322 0.362970
s 0
f 1/1/1 2/2/1 3/3/1
f 4/3/1 5/2/1 6/4/1
f 7/5/1 8/6/1 9/7/1
f 10/7/1 11/6/1 12/8/1
f 13/9/2 14/10/2 15/11/2
f 16/11/2 17/10/2 18/12/2
f 19/11/2 20/12/2 21/13/2
f 22/14/2 23/15/2 24/13/2
f 25/13/2 26/15/2 27/16/2
f 28/13/2 29/16/2 30/11/2
f 31/17/2 32/18/2 33/14/2
f 34/14/2 35/18/2 36/19/2
f 37/14/2 38/19/2 39/15/2
f 40/17/2 41/20/2 42/18/2
f 43/18/2 44/20/2 45/21/2
f 46/18/2 47/22/2 48/19/2
f 49/19/2 50/22/2 51/23/2
f 52/23/2 53/22/2 54/24/2
f 55/24/2 56/22/2 57/25/2
f 58/15/2 59/26/2 60/16/2
f 61/16/2 62/26/2 63/27/2
f 64/16/2 65/27/2 66/28/2
f 67/28/3 68/27/3 69/16/3
f 70/16/3 71/27/3 72/26/3
f 73/16/3 74/26/3 75/15/3
f 76/19/3 77/13/3 78/15/3
f 79/15/3 80/13/3 81/11/3
f 82/15/3 83/11/3 84/16/3
f 85/23/3 86/22/3 87/19/3
f 88/19/3 89/22/3 90/14/3
f 91/19/3 92/14/3 93/13/3
f 94/23/3 95/24/3 96/22/3
f 97/22/3 98/24/3 99/25/3
f 100/22/3 101/18/3 102/14/3
f 103/14/3 104/18/3 105/17/3
f 106/17/3 107/18/3 108/20/3
f 109/20/3 110/18/3 111/21/3
f 112/13/3 113/12/3 114/11/3
f 115/11/3 116/12/3 117/10/3
f 118/11/3 119/10/3 120/9/3
f 121/29/4 122/30/4 123/31/4
f 124/31/4 125/30/4 126/32/4
f 127/33/4 128/34/4 129/35/4
f 130/35/4 131/34/4 132/36/4
f 133/31/5 134/32/5 135/29/5
f 136/29/5 137/32/5 138/30/5
f 139/35/5 140/36/5 141/33/5
f 142/33/5 143/36/5 144/34/5
f 145/2/6 146/1/6 147/4/6
f 148/4/6 149/1/6 150/3/6
f 151/6/6 152/5/6 153/8/6
f 154/8/6 155/5/6 156/7/6
f 157/1/7 158/37/7 159/3/7
f 160/3/7 161/37/7 162/38/7
f 163/38/8 164/37/8 165/39/8
f 166/38/8 167/39/8 168/40/8
f 169/41/9 170/42/9 171/43/9
f 172/41/9 173/43/9 174/44/9
f 175/44/10 176/43/10 177/30/10
f 178/44/10 179/30/10 180/32/10
f 181/29/11 182/45/11 183/31/11
f 184/31/11 185/45/11 186/46/11
f 187/46/12 188/45/12 189/47/12
f 190/46/12 191/47/12 192/48/12
f 193/40/13 194/39/13 195/37/13
f 196/40/13 197/37/13 198/38/13
f 199/38/14 200/37/14 201/1/14
f 202/38/14 203/1/14 204/3/14
f 205/36/10 206/49/10 207/34/10
f 208/34/10 209/49/10 210/50/10
f 211/50/9 212/49/9 213/51/9
f 214/50/9 215/51/9 216/52/9
f 217/53/8 218/54/8 219/55/8
f 220/53/8 221/55/8 222/56/8
f 223/56/7 224/55/7 225/6/7
f 226/56/7 227/6/7 228/8/7
f 229/6/14 230/55/14 231/8/14
f 232/8/14 233/55/14 234/56/14
f 235/56/13 236/55/13 237/54/13
f 238/56/13 239/54/13 240/53/13
f 241/57/12 242/58/12 243/59/12
f 244/57/12 245/59/12 246/60/12
f 247/60/11 248/59/11 249/35/11
f 250/60/11 251/35/11 252/33/11
f 253/30/15 254/43/15 255/32/15
f 256/32/15 257/43/15 258/44/15
f 259/44/16 260/43/16 261/42/16
f 262/44/16 263/42/16 264/41/16
f 265/61/17 266/62/17 267/63/17
f 268/61/17 269/63/17 270/64/17
f 271/64/18 272/63/18 273/2/18
f 274/64/18 275/2/18 276/4/18
f 277/2/19 278/63/19 279/4/19
f 280/4/19 281/63/19 282/64/19
f 283/64/20 284/63/20 285/62/20
f 286/64/20 287/62/20 288/61/20
f 289/48/21 290/47/21 291/45/21
f 292/48/21 293/45/21 294/46/21
f 295/46/22 296/45/22 297/29/22
f 298/46/22 299/29/22 300/31/22
f 301/5/18 302/65/18 303/7/18
f 304/7/18 305/65/18 306/66/18
f 307/66/17 308/65/17 309/67/17
f 310/66/17 311/67/17 312/68/17
f 313/52/16 314/51/16 315/49/16
f 316/52/16 317/49/16 318/50/16
f 319/50/15 320/49/15 321/36/15
f 322/50/15 323/36/15 324/34/15
f 325/35/22 326/59/22 327/33/22
f 328/33/22 329/59/22 330/60/22
f 331/60/21 332/59/21 333/58/21
f 334/60/21 335/58/21 336/57/21
f 337/68/20 338/67/20 339/65/20
f 340/68/20 341/65/20 342/66/20
f 343/66/19 344/65/19 345/5/19
f 346/66/19 347/5/19 348/7/19
