# Blender 5.2.0 LTS
# www.blender.org
o DD1
v 6.000000 4.799995 -49.000000
v 6.000000 47.970001 -49.000000
v 6.000000 4.799995 54.938004
v 6.000000 4.799995 54.938004
v 6.000000 47.970001 -49.000000
v 6.000000 47.970001 54.938004
v -6.000000 47.970001 -49.000000
v -6.000000 4.799995 -49.000000
v -6.000000 47.970001 54.938004
v -6.000000 47.970001 54.938004
v -6.000000 4.799995 -49.000000
v -6.000000 4.799995 54.938004
vn 1.0000 -0.0000 -0.0000
vn -1.0000 -0.0000 -0.0000
vt 1.527775 0.084656
vt 1.527775 0.915344
vt -0.472225 0.084656
vt -0.472225 0.915344
s 0
f 1/1/1 2/2/1 3/3/1
f 4/3/1 5/2/1 6/4/1
f 7/2/2 8/1/2 9/4/2
f 10/4/2 11/1/2 12/3/2
