# Blender 5.2.0 LTS
# www.blender.org
o DD2
v 2.000000 1.799995 -47.230999
v 2.000000 0.000000 -47.230999
v 4.000000 3.799995 -47.230999
v 4.000000 3.799995 -47.230999
v 2.000000 0.000000 -47.230999
v 5.000000 -3.000000 -47.230999
v 4.000000 3.799995 -47.230999
v 5.000000 -3.000000 -47.230999
v 6.000000 3.799995 -47.230999
v 6.000000 3.799995 -47.230999
v 5.000000 -3.000000 -47.230999
v 6.000000 -3.000000 -47.230999
v 5.000000 -3.000000 -49.000000
v 6.000000 -3.000000 -49.000000
v 5.000000 -3.000000 -47.230999
v 5.000000 -3.000000 -47.230999
v 6.000000 -3.000000 -49.000000
v 6.000000 -3.000000 -47.230999
v 2.000000 0.000000 -49.000000
v 5.000000 -3.000000 -49.000000
v 2.000000 0.000000 -47.230999
v 2.000000 0.000000 -47.230999
v 5.000000 -3.000000 -49.000000
v 5.000000 -3.000000 -47.230999
v -4.000000 3.799995 3.168999
v -6.000000 3.799995 3.168999
v -4.000000 3.799995 -2.230999
v -4.000000 3.799995 -2.230999
v -6.000000 3.799995 3.168999
v -6.000000 3.799995 -2.230999
v -6.000000 3.799995 7.769001
v -4.000000 3.799995 7.769001
v -6.000000 3.799995 13.168999
v -6.000000 3.799995 13.168999
v -4.000000 3.799995 7.769001
v -4.000000 3.799995 13.168999
v -6.000000 3.799995 17.768997
v -4.000000 3.799995 17.768997
v -6.000000 3.799995 23.168999
v -6.000000 3.799995 23.168999
v -4.000000 3.799995 17.768997
v -4.000000 3.799995 23.168999
v -6.000000 3.799995 27.768997
v -4.000000 3.799995 27.768997
v -6.000000 3.799995 33.168999
v -6.000000 3.799995 33.168999
v -4.000000 3.799995 27.768997
v -4.000000 3.799995 33.168999
v -6.000000 3.799995 37.768997
v -4.000000 3.799995 37.768997
v -6.000000 3.799995 43.168999
v -6.000000 3.799995 43.168999
v -4.000000 3.799995 37.768997
v -4.000000 3.799995 43.168999
v 5.000000 -3.000000 38.168999
v 6.000000 -3.000000 38.168999
v 5.000000 -3.000000 42.768997
v 5.000000 -3.000000 42.768997
v 6.000000 -3.000000 38.168999
v 6.000000 -3.000000 42.768997
v 2.000000 1.799995 38.168999
v 4.000000 3.799995 38.168999
v 2.000000 0.000000 38.168999
v 2.000000 0.000000 38.168999
v 4.000000 3.799995 38.168999
v 5.000000 -3.000000 38.168999
v 5.000000 -3.000000 38.168999
v 4.000000 3.799995 38.168999
v 6.000000 3.799995 38.168999
v 5.000000 -3.000000 38.168999
v 6.000000 3.799995 38.168999
v 6.000000 -3.000000 38.168999
v 2.000000 0.000000 38.168999
v 5.000000 -3.000000 38.168999
v 2.000000 0.000000 42.768997
v 2.000000 0.000000 42.768997
v 5.000000 -3.000000 38.168999
v 5.000000 -3.000000 42.768997
v 2.000000 1.799995 42.768997
v 4.000000 3.799995 42.768997
v 2.000000 1.799995 48.168999
v 2.000000 1.799995 48.168999
v 4.000000 3.799995 42.768997
v 4.000000 3.799995 48.168999
v -6.000000 3.799995 47.768997
v -4.000000 3.799995 47.768997
v -6.000000 3.799995 53.168999
v -6.000000 3.799995 53.168999
v -4.000000 3.799995 47.768997
v -4.000000 3.799995 53.168999
v 5.000000 -3.000000 48.168999
v 6.000000 -3.000000 48.168999
v 5.000000 -3.000000 52.768997
v 5.000000 -3.000000 52.768997
v 6.000000 -3.000000 48.168999
v 6.000000 -3.000000 52.768997
v 2.000000 1.799995 48.168999
v 4.000000 3.799995 48.168999
v 2.000000 0.000000 48.168999
v 2.000000 0.000000 48.168999
v 4.000000 3.799995 48.168999
v 5.000000 -3.000000 48.168999
v 5.000000 -3.000000 48.168999
v 4.000000 3.799995 48.168999
v 6.000000 3.799995 48.168999
v 5.000000 -3.000000 48.168999
v 6.000000 3.799995 48.168999
v 6.000000 -3.000000 48.168999
v 2.000000 0.000000 48.168999
v 5.000000 -3.000000 48.168999
v 2.000000 0.000000 52.768997
v 2.000000 0.000000 52.768997
v 5.000000 -3.000000 48.168999
v 5.000000 -3.000000 52.768997
v 4.000000 3.799995 54.938004
v 2.000000 1.799995 54.938004
v 4.000000 3.799995 52.768997
v 4.000000 3.799995 52.768997
v 2.000000 1.799995 54.938004
v 2.000000 1.799995 52.768997
v 2.000000 1.799995 52.768997
v 2.000000 0.000000 52.768997
v 4.000000 3.799995 52.768997
v 4.000000 3.799995 52.768997
v 2.000000 0.000000 52.768997
v 5.000000 -3.000000 52.768997
v 4.000000 3.799995 52.768997
v 5.000000 -3.000000 52.768997
v 6.000000 3.799995 52.768997
v 6.000000 3.799995 52.768997
v 5.000000 -3.000000 52.768997
v 6.000000 -3.000000 52.768997
v 2.000000 1.799995 42.768997
v 2.000000 0.000000 42.768997
v 4.000000 3.799995 42.768997
v 4.000000 3.799995 42.768997
v 2.000000 0.000000 42.768997
v 5.000000 -3.000000 42.768997
v 4.000000 3.799995 42.768997
v 5.000000 -3.000000 42.768997
v 6.000000 3.799995 42.768997
v 6.000000 3.799995 42.768997
v 5.000000 -3.000000 42.768997
v 6.000000 -3.000000 42.768997
v 2.000000 1.799995 32.768997
v 4.000000 3.799995 32.768997
v 2.000000 1.799995 38.168999
v 2.000000 1.799995 38.168999
v 4.000000 3.799995 32.768997
v 4.000000 3.799995 38.168999
v 2.000000 1.799995 28.168999
v 4.000000 3.799995 28.168999
v 2.000000 0.000000 28.168999
v 2.000000 0.000000 28.168999
v 4.000000 3.799995 28.168999
v 5.000000 -3.000000 28.168999
v 5.000000 -3.000000 28.168999
v 4.000000 3.799995 28.168999
v 6.000000 3.799995 28.168999
v 5.000000 -3.000000 28.168999
v 6.000000 3.799995 28.168999
v 6.000000 -3.000000 28.168999
v 2.000000 0.000000 28.168999
v 5.000000 -3.000000 28.168999
v 2.000000 0.000000 32.768997
v 2.000000 0.000000 32.768997
v 5.000000 -3.000000 28.168999
v 5.000000 -3.000000 32.768997
v 2.000000 1.799995 32.768997
v 2.000000 0.000000 32.768997
v 4.000000 3.799995 32.768997
v 4.000000 3.799995 32.768997
v 2.000000 0.000000 32.768997
v 5.000000 -3.000000 32.768997
v 4.000000 3.799995 32.768997
v 5.000000 -3.000000 32.768997
v 6.000000 3.799995 32.768997
v 6.000000 3.799995 32.768997
v 5.000000 -3.000000 32.768997
v 6.000000 -3.000000 32.768997
v 2.000000 1.799995 22.768997
v 4.000000 3.799995 22.768997
v 2.000000 1.799995 28.168999
v 2.000000 1.799995 28.168999
v 4.000000 3.799995 22.768997
v 4.000000 3.799995 28.168999
v 2.000000 1.799995 18.168999
v 4.000000 3.799995 18.168999
v 2.000000 0.000000 18.168999
v 2.000000 0.000000 18.168999
v 4.000000 3.799995 18.168999
v 5.000000 -3.000000 18.168999
v 5.000000 -3.000000 18.168999
v 4.000000 3.799995 18.168999
v 6.000000 3.799995 18.168999
v 5.000000 -3.000000 18.168999
v 6.000000 3.799995 18.168999
v 6.000000 -3.000000 18.168999
v 2.000000 0.000000 18.168999
v 5.000000 -3.000000 18.168999
v 2.000000 0.000000 22.768997
v 2.000000 0.000000 22.768997
v 5.000000 -3.000000 18.168999
v 5.000000 -3.000000 22.768997
v 2.000000 1.799995 22.768997
v 2.000000 0.000000 22.768997
v 4.000000 3.799995 22.768997
v 4.000000 3.799995 22.768997
v 2.000000 0.000000 22.768997
v 5.000000 -3.000000 22.768997
v 4.000000 3.799995 22.768997
v 5.000000 -3.000000 22.768997
v 6.000000 3.799995 22.768997
v 6.000000 3.799995 22.768997
v 5.000000 -3.000000 22.768997
v 6.000000 -3.000000 22.768997
v 5.000000 -3.000000 28.168999
v 6.000000 -3.000000 28.168999
v 5.000000 -3.000000 32.768997
v 5.000000 -3.000000 32.768997
v 6.000000 -3.000000 28.168999
v 6.000000 -3.000000 32.768997
v 5.000000 -3.000000 18.168999
v 6.000000 -3.000000 18.168999
v 5.000000 -3.000000 22.768997
v 5.000000 -3.000000 22.768997
v 6.000000 -3.000000 18.168999
v 6.000000 -3.000000 22.768997
v 2.000000 1.799995 12.769001
v 4.000000 3.799995 12.769001
v 2.000000 1.799995 18.168999
v 2.000000 1.799995 18.168999
v 4.000000 3.799995 12.769001
v 4.000000 3.799995 18.168999
v 2.000000 1.799995 8.168999
v 4.000000 3.799995 8.168999
v 2.000000 0.000000 8.168999
v 2.000000 0.000000 8.168999
v 4.000000 3.799995 8.168999
v 5.000000 -3.000000 8.168999
v 5.000000 -3.000000 8.168999
v 4.000000 3.799995 8.168999
v 6.000000 3.799995 8.168999
v 5.000000 -3.000000 8.168999
v 6.000000 3.799995 8.168999
v 6.000000 -3.000000 8.168999
v 2.000000 0.000000 8.168999
v 5.000000 -3.000000 8.168999
v 2.000000 0.000000 12.769001
v 2.000000 0.000000 12.769001
v 5.000000 -3.000000 8.168999
v 5.000000 -3.000000 12.769001
v 2.000000 1.799995 12.769001
v 2.000000 0.000000 12.769001
v 4.000000 3.799995 12.769001
v 4.000000 3.799995 12.769001
v 2.000000 0.000000 12.769001
v 5.000000 -3.000000 12.769001
v 4.000000 3.799995 12.769001
v 5.000000 -3.000000 12.769001
v 6.000000 3.799995 12.769001
v 6.000000 3.799995 12.769001
v 5.000000 -3.000000 12.769001
v 6.000000 -3.000000 12.769001
v 2.000000 1.799995 2.769001
v 4.000000 3.799995 2.769001
v 2.000000 1.799995 8.168999
v 2.000000 1.799995 8.168999
v 4.000000 3.799995 2.769001
v 4.000000 3.799995 8.168999
v 2.000000 1.799995 -1.831001
v 4.000000 3.799995 -1.831001
v 2.000000 0.000000 -1.831001
v 2.000000 0.000000 -1.831001
v 4.000000 3.799995 -1.831001
v 5.000000 -3.000000 -1.831001
v 5.000000 -3.000000 -1.831001
v 4.000000 3.799995 -1.831001
v 6.000000 3.799995 -1.831001
v 5.000000 -3.000000 -1.831001
v 6.000000 3.799995 -1.831001
v 6.000000 -3.000000 -1.831001
v 2.000000 0.000000 -1.831001
v 5.000000 -3.000000 -1.831001
v 2.000000 0.000000 2.769001
v 2.000000 0.000000 2.769001
v 5.000000 -3.000000 -1.831001
v 5.000000 -3.000000 2.769001
v 2.000000 1.799995 2.769001
v 2.000000 0.000000 2.769001
v 4.000000 3.799995 2.769001
v 4.000000 3.799995 2.769001
v 2.000000 0.000000 2.769001
v 5.000000 -3.000000 2.769001
v 4.000000 3.799995 2.769001
v 5.000000 -3.000000 2.769001
v 6.000000 3.799995 2.769001
v 6.000000 3.799995 2.769001
v 5.000000 -3.000000 2.769001
v 6.000000 -3.000000 2.769001
v 5.000000 -3.000000 8.168999
v 6.000000 -3.000000 8.168999
v 5.000000 -3.000000 12.769001
v 5.000000 -3.000000 12.769001
v 6.000000 -3.000000 8.168999
v 6.000000 -3.000000 12.769001
v 5.000000 -3.000000 -1.831001
v 6.000000 -3.000000 -1.831001
v 5.000000 -3.000000 2.769001
v 5.000000 -3.000000 2.769001
v 6.000000 -3.000000 -1.831001
v 6.000000 -3.000000 2.769001
v 6.000000 -3.000000 8.168999
v 6.000000 3.799995 8.168999
v 6.000000 -3.000000 12.769001
v 6.000000 -3.000000 12.769001
v 6.000000 3.799995 8.168999
v 6.000000 3.799995 12.769001
v 6.000000 3.799995 12.769001
v 6.000000 3.799995 8.168999
v 6.000000 4.799995 54.938004
v 6.000000 3.799995 12.769001
v 6.000000 4.799995 54.938004
v 6.000000 3.799995 18.168999
v 6.000000 3.799995 18.168999
v 6.000000 4.799995 54.938004
v 6.000000 3.799995 22.768997
v 6.000000 3.799995 18.168999
v 6.000000 3.799995 22.768997
v 6.000000 -3.000000 22.768997
v 6.000000 3.799995 8.168999
v 6.000000 3.799995 2.769001
v 6.000000 4.799995 54.938004
v 6.000000 4.799995 54.938004
v 6.000000 3.799995 2.769001
v 6.000000 4.799995 -49.000000
v 6.000000 4.799995 -49.000000
v 6.000000 3.799995 2.769001
v 6.000000 3.799995 -1.831001
v 6.000000 4.799995 -49.000000
v 6.000000 3.799995 -1.831001
v 6.000000 3.799995 -7.230999
v 6.000000 3.799995 2.769001
v 6.000000 -3.000000 2.769001
v 6.000000 3.799995 -1.831001
v 6.000000 3.799995 -1.831001
v 6.000000 -3.000000 2.769001
v 6.000000 -3.000000 -1.831001
v 6.000000 4.799995 -49.000000
v 6.000000 3.799995 -7.230999
v 6.000000 3.799995 -11.831001
v 6.000000 3.799995 -11.831001
v 6.000000 3.799995 -7.230999
v 6.000000 -3.000000 -7.230999
v 6.000000 3.799995 -11.831001
v 6.000000 -3.000000 -7.230999
v 6.000000 -3.000000 -11.831001
v 6.000000 3.799995 -11.831001
v 6.000000 3.799995 -17.230999
v 6.000000 4.799995 -49.000000
v 6.000000 4.799995 -49.000000
v 6.000000 3.799995 -17.230999
v 6.000000 3.799995 -21.830999
v 6.000000 4.799995 -49.000000
v 6.000000 3.799995 -21.830999
v 6.000000 3.799995 -27.231001
v 6.000000 3.799995 -17.230999
v 6.000000 -3.000000 -17.230999
v 6.000000 3.799995 -21.830999
v 6.000000 3.799995 -21.830999
v 6.000000 -3.000000 -17.230999
v 6.000000 -3.000000 -21.830999
v 6.000000 4.799995 -49.000000
v 6.000000 3.799995 -27.231001
v 6.000000 3.799995 -31.830999
v 6.000000 3.799995 -31.830999
v 6.000000 3.799995 -27.231001
v 6.000000 -3.000000 -27.231001
v 6.000000 3.799995 -31.830999
v 6.000000 -3.000000 -27.231001
v 6.000000 -3.000000 -31.830999
v 6.000000 3.799995 -31.830999
v 6.000000 3.799995 -37.230999
v 6.000000 4.799995 -49.000000
v 6.000000 4.799995 -49.000000
v 6.000000 3.799995 -37.230999
v 6.000000 3.799995 -41.831001
v 6.000000 4.799995 -49.000000
v 6.000000 3.799995 -41.831001
v 6.000000 3.799995 -47.230999
v 6.000000 3.799995 -37.230999
v 6.000000 -3.000000 -37.230999
v 6.000000 3.799995 -41.831001
v 6.000000 3.799995 -41.831001
v 6.000000 -3.000000 -37.230999
v 6.000000 -3.000000 -41.831001
v 6.000000 -3.000000 -47.230999
v 6.000000 -3.000000 -49.000000
v 6.000000 3.799995 -47.230999
v 6.000000 3.799995 -47.230999
v 6.000000 -3.000000 -49.000000
v 6.000000 4.799995 -49.000000
v 6.000000 3.799995 54.938004
v 6.000000 3.799995 52.768997
v 6.000000 4.799995 54.938004
v 6.000000 4.799995 54.938004
v 6.000000 3.799995 52.768997
v 6.000000 3.799995 48.168999
v 6.000000 4.799995 54.938004
v 6.000000 3.799995 48.168999
v 6.000000 3.799995 42.768997
v 6.000000 3.799995 52.768997
v 6.000000 -3.000000 52.768997
v 6.000000 3.799995 48.168999
v 6.000000 3.799995 48.168999
v 6.000000 -3.000000 52.768997
v 6.000000 -3.000000 48.168999
v 6.000000 4.799995 54.938004
v 6.000000 3.799995 42.768997
v 6.000000 3.799995 38.168999
v 6.000000 3.799995 38.168999
v 6.000000 3.799995 42.768997
v 6.000000 -3.000000 42.768997
v 6.000000 3.799995 38.168999
v 6.000000 -3.000000 42.768997
v 6.000000 -3.000000 38.168999
v 6.000000 3.799995 38.168999
v 6.000000 3.799995 32.768997
v 6.000000 4.799995 54.938004
v 6.000000 4.799995 54.938004
v 6.000000 3.799995 32.768997
v 6.000000 3.799995 28.168999
v 6.000000 4.799995 54.938004
v 6.000000 3.799995 28.168999
v 6.000000 3.799995 22.768997
v 6.000000 3.799995 32.768997
v 6.000000 -3.000000 32.768997
v 6.000000 3.799995 28.168999
v 6.000000 3.799995 28.168999
v 6.000000 -3.000000 32.768997
v 6.000000 -3.000000 28.168999
v 6.000000 -3.000000 22.768997
v 6.000000 -3.000000 18.168999
v 6.000000 3.799995 18.168999
v -5.000000 -3.000000 37.768997
v -6.000000 -3.000000 37.768997
v -5.000000 -3.000000 33.168999
v -5.000000 -3.000000 33.168999
v -6.000000 -3.000000 37.768997
v -6.000000 -3.000000 33.168999
v -2.000000 1.799995 33.168999
v -2.000000 0.000000 33.168999
v -4.000000 3.799995 33.168999
v -4.000000 3.799995 33.168999
v -2.000000 0.000000 33.168999
v -5.000000 -3.000000 33.168999
v -4.000000 3.799995 33.168999
v -5.000000 -3.000000 33.168999
v -6.000000 3.799995 33.168999
v -6.000000 3.799995 33.168999
v -5.000000 -3.000000 33.168999
v -6.000000 -3.000000 33.168999
v -2.000000 0.000000 37.768997
v -5.000000 -3.000000 37.768997
v -2.000000 0.000000 33.168999
v -2.000000 0.000000 33.168999
v -5.000000 -3.000000 37.768997
v -5.000000 -3.000000 33.168999
v -2.000000 1.799995 43.168999
v -4.000000 3.799995 43.168999
v -2.000000 1.799995 37.768997
v -2.000000 1.799995 37.768997
v -4.000000 3.799995 43.168999
v -4.000000 3.799995 37.768997
v -5.000000 -3.000000 47.768997
v -6.000000 -3.000000 47.768997
v -5.000000 -3.000000 43.168999
v -5.000000 -3.000000 43.168999
v -6.000000 -3.000000 47.768997
v -6.000000 -3.000000 43.168999
v -2.000000 1.799995 43.168999
v -2.000000 0.000000 43.168999
v -4.000000 3.799995 43.168999
v -4.000000 3.799995 43.168999
v -2.000000 0.000000 43.168999
v -5.000000 -3.000000 43.168999
v -4.000000 3.799995 43.168999
v -5.000000 -3.000000 43.168999
v -6.000000 3.799995 43.168999
v -6.000000 3.799995 43.168999
v -5.000000 -3.000000 43.168999
v -6.000000 -3.000000 43.168999
v -2.000000 0.000000 47.768997
v -5.000000 -3.000000 47.768997
v -2.000000 0.000000 43.168999
v -2.000000 0.000000 43.168999
v -5.000000 -3.000000 47.768997
v -5.000000 -3.000000 43.168999
v -2.000000 1.799995 53.168999
v -4.000000 3.799995 53.168999
v -2.000000 1.799995 47.768997
v -2.000000 1.799995 47.768997
v -4.000000 3.799995 53.168999
v -4.000000 3.799995 47.768997
v -2.000000 1.799995 47.768997
v -4.000000 3.799995 47.768997
v -2.000000 0.000000 47.768997
v -2.000000 0.000000 47.768997
v -4.000000 3.799995 47.768997
v -5.000000 -3.000000 47.768997
v -5.000000 -3.000000 47.768997
v -4.000000 3.799995 47.768997
v -6.000000 3.799995 47.768997
v -5.000000 -3.000000 47.768997
v -6.000000 3.799995 47.768997
v -6.000000 -3.000000 47.768997
v -5.000000 -3.000000 54.938004
v -6.000000 -3.000000 54.938004
v -5.000000 -3.000000 53.168999
v -5.000000 -3.000000 53.168999
v -6.000000 -3.000000 54.938004
v -6.000000 -3.000000 53.168999
v -2.000000 0.000000 54.938004
v -5.000000 -3.000000 54.938004
v -2.000000 0.000000 53.168999
v -2.000000 0.000000 53.168999
v -5.000000 -3.000000 54.938004
v -5.000000 -3.000000 53.168999
v -5.000000 -3.000000 17.768997
v -6.000000 -3.000000 17.768997
v -5.000000 -3.000000 13.168999
v -5.000000 -3.000000 13.168999
v -6.000000 -3.000000 17.768997
v -6.000000 -3.000000 13.168999
v -2.000000 1.799995 13.168999
v -2.000000 0.000000 13.168999
v -4.000000 3.799995 13.168999
v -4.000000 3.799995 13.168999
v -2.000000 0.000000 13.168999
v -5.000000 -3.000000 13.168999
v -4.000000 3.799995 13.168999
v -5.000000 -3.000000 13.168999
v -6.000000 3.799995 13.168999
v -6.000000 3.799995 13.168999
v -5.000000 -3.000000 13.168999
v -6.000000 -3.000000 13.168999
v -2.000000 0.000000 17.768997
v -5.000000 -3.000000 17.768997
v -2.000000 0.000000 13.168999
v -2.000000 0.000000 13.168999
v -5.000000 -3.000000 17.768997
v -5.000000 -3.000000 13.168999
v -2.000000 1.799995 23.168999
v -4.000000 3.799995 23.168999
v -2.000000 1.799995 17.768997
v -2.000000 1.799995 17.768997
v -4.000000 3.799995 23.168999
v -4.000000 3.799995 17.768997
v -2.000000 1.799995 17.768997
v -4.000000 3.799995 17.768997
v -2.000000 0.000000 17.768997
v -2.000000 0.000000 17.768997
v -4.000000 3.799995 17.768997
v -5.000000 -3.000000 17.768997
v -5.000000 -3.000000 17.768997
v -4.000000 3.799995 17.768997
v -6.000000 3.799995 17.768997
v -5.000000 -3.000000 17.768997
v -6.000000 3.799995 17.768997
v -6.000000 -3.000000 17.768997
v -5.000000 -3.000000 27.768997
v -6.000000 -3.000000 27.768997
v -5.000000 -3.000000 23.168999
v -5.000000 -3.000000 23.168999
v -6.000000 -3.000000 27.768997
v -6.000000 -3.000000 23.168999
v -2.000000 1.799995 23.168999
v -2.000000 0.000000 23.168999
v -4.000000 3.799995 23.168999
v -4.000000 3.799995 23.168999
v -2.000000 0.000000 23.168999
v -5.000000 -3.000000 23.168999
v -4.000000 3.799995 23.168999
v -5.000000 -3.000000 23.168999
v -6.000000 3.799995 23.168999
v -6.000000 3.799995 23.168999
v -5.000000 -3.000000 23.168999
v -6.000000 -3.000000 23.168999
v -2.000000 0.000000 27.768997
v -5.000000 -3.000000 27.768997
v -2.000000 0.000000 23.168999
v -2.000000 0.000000 23.168999
v -5.000000 -3.000000 27.768997
v -5.000000 -3.000000 23.168999
v -2.000000 1.799995 33.168999
v -4.000000 3.799995 33.168999
v -2.000000 1.799995 27.768997
v -2.000000 1.799995 27.768997
v -4.000000 3.799995 33.168999
v -4.000000 3.799995 27.768997
v -2.000000 1.799995 27.768997
v -4.000000 3.799995 27.768997
v -2.000000 0.000000 27.768997
v -2.000000 0.000000 27.768997
v -4.000000 3.799995 27.768997
v -5.000000 -3.000000 27.768997
v -5.000000 -3.000000 27.768997
v -4.000000 3.799995 27.768997
v -6.000000 3.799995 27.768997
v -5.000000 -3.000000 27.768997
v -6.000000 3.799995 27.768997
v -6.000000 -3.000000 27.768997
v -2.000000 1.799995 37.768997
v -4.000000 3.799995 37.768997
v -2.000000 0.000000 37.768997
v -2.000000 0.000000 37.768997
v -4.000000 3.799995 37.768997
v -5.000000 -3.000000 37.768997
v -5.000000 -3.000000 37.768997
v -4.000000 3.799995 37.768997
v -6.000000 3.799995 37.768997
v -5.000000 -3.000000 37.768997
v -6.000000 3.799995 37.768997
v -6.000000 -3.000000 37.768997
v 5.000000 -3.000000 -11.831001
v 6.000000 -3.000000 -11.831001
v 5.000000 -3.000000 -7.230999
v 5.000000 -3.000000 -7.230999
v 6.000000 -3.000000 -11.831001
v 6.000000 -3.000000 -7.230999
v 2.000000 1.799995 -11.831001
v 4.000000 3.799995 -11.831001
v 2.000000 0.000000 -11.831001
v 2.000000 0.000000 -11.831001
v 4.000000 3.799995 -11.831001
v 5.000000 -3.000000 -11.831001
v 5.000000 -3.000000 -11.831001
v 4.000000 3.799995 -11.831001
v 6.000000 3.799995 -11.831001
v 5.000000 -3.000000 -11.831001
v 6.000000 3.799995 -11.831001
v 6.000000 -3.000000 -11.831001
v -2.000000 1.799995 -46.831001
v -2.000000 0.000000 -46.831001
v -4.000000 3.799995 -46.831001
v -4.000000 3.799995 -46.831001
v -2.000000 0.000000 -46.831001
v -5.000000 -3.000000 -46.831001
v -4.000000 3.799995 -46.831001
v -5.000000 -3.000000 -46.831001
v -6.000000 3.799995 -46.831001
v -6.000000 3.799995 -46.831001
v -5.000000 -3.000000 -46.831001
v -6.000000 -3.000000 -46.831001
v -2.000000 1.799995 -42.230999
v -4.000000 3.799995 -42.230999
v -2.000000 0.000000 -42.230999
v -2.000000 0.000000 -42.230999
v -4.000000 3.799995 -42.230999
v -5.000000 -3.000000 -42.230999
v -5.000000 -3.000000 -42.230999
v -4.000000 3.799995 -42.230999
v -6.000000 3.799995 -42.230999
v -5.000000 -3.000000 -42.230999
v -6.000000 3.799995 -42.230999
v -6.000000 -3.000000 -42.230999
v -2.000000 1.799995 -36.831001
v -2.000000 0.000000 -36.831001
v -4.000000 3.799995 -36.831001
v -4.000000 3.799995 -36.831001
v -2.000000 0.000000 -36.831001
v -5.000000 -3.000000 -36.831001
v -4.000000 3.799995 -36.831001
v -5.000000 -3.000000 -36.831001
v -6.000000 3.799995 -36.831001
v -6.000000 3.799995 -36.831001
v -5.000000 -3.000000 -36.831001
v -6.000000 -3.000000 -36.831001
v -2.000000 1.799995 -32.231003
v -4.000000 3.799995 -32.231003
v -2.000000 0.000000 -32.231003
v -2.000000 0.000000 -32.231003
v -4.000000 3.799995 -32.231003
v -5.000000 -3.000000 -32.231003
v -5.000000 -3.000000 -32.231003
v -4.000000 3.799995 -32.231003
v -6.000000 3.799995 -32.231003
v -5.000000 -3.000000 -32.231003
v -6.000000 3.799995 -32.231003
v -6.000000 -3.000000 -32.231003
v -4.000000 3.799995 -16.831001
v -6.000000 3.799995 -16.831001
v -4.000000 3.799995 -22.231001
v -4.000000 3.799995 -22.231001
v -6.000000 3.799995 -16.831001
v -6.000000 3.799995 -22.231001
v -4.000000 3.799995 -6.831001
v -6.000000 3.799995 -6.831001
v -4.000000 3.799995 -12.230999
v -4.000000 3.799995 -12.230999
v -6.000000 3.799995 -6.831001
v -6.000000 3.799995 -12.230999
v -4.000000 3.799995 -49.000000
v -2.000000 1.799995 -49.000000
v -4.000000 3.799995 -46.831001
v -4.000000 3.799995 -46.831001
v -2.000000 1.799995 -49.000000
v -2.000000 1.799995 -46.831001
v -2.000000 1.799995 -36.831001
v -4.000000 3.799995 -36.831001
v -2.000000 1.799995 -42.230999
v -2.000000 1.799995 -42.230999
v -4.000000 3.799995 -36.831001
v -4.000000 3.799995 -42.230999
v -2.000000 1.799995 -26.830999
v -4.000000 3.799995 -26.830999
v -2.000000 1.799995 -32.231003
v -2.000000 1.799995 -32.231003
v -4.000000 3.799995 -26.830999
v -4.000000 3.799995 -32.231003
v 2.000000 1.799995 -7.230999
v 4.000000 3.799995 -7.230999
v 2.000000 1.799995 -1.831001
v 2.000000 1.799995 -1.831001
v 4.000000 3.799995 -7.230999
v 4.000000 3.799995 -1.831001
v 2.000000 0.000000 -11.831001
v 5.000000 -3.000000 -11.831001
v 2.000000 0.000000 -7.230999
v 2.000000 0.000000 -7.230999
v 5.000000 -3.000000 -11.831001
v 5.000000 -3.000000 -7.230999
v 2.000000 1.799995 -7.230999
v 2.000000 0.000000 -7.230999
v 4.000000 3.799995 -7.230999
v 4.000000 3.799995 -7.230999
v 2.000000 0.000000 -7.230999
v 5.000000 -3.000000 -7.230999
v 4.000000 3.799995 -7.230999
v 5.000000 -3.000000 -7.230999
v 6.000000 3.799995 -7.230999
v 6.000000 3.799995 -7.230999
v 5.000000 -3.000000 -7.230999
v 6.000000 -3.000000 -7.230999
v 2.000000 1.799995 -17.230999
v 4.000000 3.799995 -17.230999
v 2.000000 1.799995 -11.831001
v 2.000000 1.799995 -11.831001
v 4.000000 3.799995 -17.230999
v 4.000000 3.799995 -11.831001
v 2.000000 1.799995 -21.830999
v 4.000000 3.799995 -21.830999
v 2.000000 0.000000 -21.830999
v 2.000000 0.000000 -21.830999
v 4.000000 3.799995 -21.830999
v 5.000000 -3.000000 -21.830999
v 5.000000 -3.000000 -21.830999
v 4.000000 3.799995 -21.830999
v 6.000000 3.799995 -21.830999
v 5.000000 -3.000000 -21.830999
v 6.000000 3.799995 -21.830999
v 6.000000 -3.000000 -21.830999
v 2.000000 0.000000 -21.830999
v 5.000000 -3.000000 -21.830999
v 2.000000 0.000000 -17.230999
v 2.000000 0.000000 -17.230999
v 5.000000 -3.000000 -21.830999
v 5.000000 -3.000000 -17.230999
v 2.000000 1.799995 -17.230999
v 2.000000 0.000000 -17.230999
v 4.000000 3.799995 -17.230999
v 4.000000 3.799995 -17.230999
v 2.000000 0.000000 -17.230999
v 5.000000 -3.000000 -17.230999
v 4.000000 3.799995 -17.230999
v 5.000000 -3.000000 -17.230999
v 6.000000 3.799995 -17.230999
v 6.000000 3.799995 -17.230999
v 5.000000 -3.000000 -17.230999
v 6.000000 -3.000000 -17.230999
v 2.000000 1.799995 -27.231001
v 4.000000 3.799995 -27.231001
v 2.000000 1.799995 -21.830999
v 2.000000 1.799995 -21.830999
v 4.000000 3.799995 -27.231001
v 4.000000 3.799995 -21.830999
v 5.000000 -3.000000 -21.830999
v 6.000000 -3.000000 -21.830999
v 5.000000 -3.000000 -17.230999
v 5.000000 -3.000000 -17.230999
v 6.000000 -3.000000 -21.830999
v 6.000000 -3.000000 -17.230999
v -2.000000 1.799995 -2.230999
v -2.000000 0.000000 -2.230999
v -2.000000 1.799995 3.168999
v -2.000000 1.799995 3.168999
v -2.000000 0.000000 -2.230999
v -2.000000 0.000000 3.168999
v -2.000000 1.799995 7.769001
v -2.000000 0.000000 7.769001
v -2.000000 1.799995 13.168999
v -2.000000 1.799995 13.168999
v -2.000000 0.000000 7.769001
v -2.000000 0.000000 13.168999
v -2.000000 0.000000 -6.831001
v -2.000000 1.799995 -6.831001
v -2.000000 0.000000 -12.230999
v -2.000000 0.000000 -12.230999
v -2.000000 1.799995 -6.831001
v -2.000000 1.799995 -12.230999
v -2.000000 1.799995 17.768997
v -2.000000 0.000000 17.768997
v -2.000000 1.799995 23.168999
v -2.000000 1.799995 23.168999
v -2.000000 0.000000 17.768997
v -2.000000 0.000000 23.168999
v -2.000000 0.000000 -16.831001
v -2.000000 1.799995 -16.831001
v -2.000000 0.000000 -22.231001
v -2.000000 0.000000 -22.231001
v -2.000000 1.799995 -16.831001
v -2.000000 1.799995 -22.231001
v -2.000000 1.799995 27.768997
v -2.000000 0.000000 27.768997
v -2.000000 1.799995 33.168999
v -2.000000 1.799995 33.168999
v -2.000000 0.000000 27.768997
v -2.000000 0.000000 33.168999
v -2.000000 0.000000 -26.830999
v -2.000000 1.799995 -26.830999
v -2.000000 0.000000 -32.231003
v -2.000000 0.000000 -32.231003
v -2.000000 1.799995 -26.830999
v -2.000000 1.799995 -32.231003
v -2.000000 1.799995 37.768997
v -2.000000 0.000000 37.768997
v -2.000000 1.799995 43.168999
v -2.000000 1.799995 43.168999
v -2.000000 0.000000 37.768997
v -2.000000 0.000000 43.168999
v -2.000000 0.000000 -36.831001
v -2.000000 1.799995 -36.831001
v -2.000000 0.000000 -42.230999
v -2.000000 0.000000 -42.230999
v -2.000000 1.799995 -36.831001
v -2.000000 1.799995 -42.230999
v -2.000000 1.799995 47.768997
v -2.000000 0.000000 47.768997
v -2.000000 1.799995 53.168999
v -2.000000 1.799995 53.168999
v -2.000000 0.000000 47.768997
v -2.000000 0.000000 53.168999
v -2.000000 0.000000 7.769001
v -5.000000 -3.000000 7.769001
v -2.000000 0.000000 3.168999
v -2.000000 0.000000 3.168999
v -5.000000 -3.000000 7.769001
v -5.000000 -3.000000 3.168999
v -2.000000 0.000000 -2.230999
v -5.000000 -3.000000 -2.230999
v -2.000000 0.000000 -6.831001
v -2.000000 0.000000 -6.831001
v -5.000000 -3.000000 -2.230999
v -5.000000 -3.000000 -6.831001
v -2.000000 1.799995 13.168999
v -4.000000 3.799995 13.168999
v -2.000000 1.799995 7.769001
v -2.000000 1.799995 7.769001
v -4.000000 3.799995 13.168999
v -4.000000 3.799995 7.769001
v -2.000000 1.799995 3.168999
v -2.000000 0.000000 3.168999
v -4.000000 3.799995 3.168999
v -4.000000 3.799995 3.168999
v -2.000000 0.000000 3.168999
v -5.000000 -3.000000 3.168999
v -4.000000 3.799995 3.168999
v -5.000000 -3.000000 3.168999
v -6.000000 3.799995 3.168999
v -6.000000 3.799995 3.168999
v -5.000000 -3.000000 3.168999
v -6.000000 -3.000000 3.168999
v -6.000000 -3.000000 7.769001
v -6.000000 3.799995 7.769001
v -6.000000 -3.000000 3.168999
v -6.000000 -3.000000 3.168999
v -6.000000 3.799995 7.769001
v -6.000000 3.799995 3.168999
v -6.000000 3.799995 3.168999
v -6.000000 3.799995 7.769001
v -6.000000 4.799995 54.938004
v -6.000000 3.799995 3.168999
v -6.000000 4.799995 54.938004
v -6.000000 4.799995 -49.000000
v -6.000000 3.799995 7.769001
v -6.000000 3.799995 13.168999
v -6.000000 4.799995 54.938004
v -6.000000 4.799995 54.938004
v -6.000000 3.799995 13.168999
v -6.000000 3.799995 17.768997
v -6.000000 4.799995 54.938004
v -6.000000 3.799995 17.768997
v -6.000000 3.799995 23.168999
v -6.000000 3.799995 13.168999
v -6.000000 -3.000000 13.168999
v -6.000000 3.799995 17.768997
v -6.000000 3.799995 17.768997
v -6.000000 -3.000000 13.168999
v -6.000000 -3.000000 17.768997
v -6.000000 4.799995 54.938004
v -6.000000 3.799995 23.168999
v -6.000000 3.799995 27.768997
v -6.000000 3.799995 27.768997
v -6.000000 3.799995 23.168999
v -6.000000 -3.000000 23.168999
v -6.000000 3.799995 27.768997
v -6.000000 -3.000000 23.168999
v -6.000000 -3.000000 27.768997
v -6.000000 3.799995 27.768997
v -6.000000 3.799995 33.168999
v -6.000000 4.799995 54.938004
v -6.000000 4.799995 54.938004
v -6.000000 3.799995 33.168999
v -6.000000 3.799995 37.768997
v -6.000000 4.799995 54.938004
v -6.000000 3.799995 37.768997
v -6.000000 3.799995 43.168999
v -6.000000 3.799995 33.168999
v -6.000000 -3.000000 33.168999
v -6.000000 3.799995 37.768997
v -6.000000 3.799995 37.768997
v -6.000000 -3.000000 33.168999
v -6.000000 -3.000000 37.768997
v -6.000000 4.799995 54.938004
v -6.000000 3.799995 43.168999
v -6.000000 3.799995 47.768997
v -6.000000 3.799995 47.768997
v -6.000000 3.799995 43.168999
v -6.000000 -3.000000 43.168999
v -6.000000 3.799995 47.768997
v -6.000000 -3.000000 43.168999
v -6.000000 -3.000000 47.768997
v -6.000000 3.799995 47.768997
v -6.000000 3.799995 53.168999
v -6.000000 4.799995 54.938004
v -6.000000 4.799995 54.938004
v -6.000000 3.799995 53.168999
v -6.000000 -3.000000 54.938004
v -6.000000 -3.000000 54.938004
v -6.000000 3.799995 53.168999
v -6.000000 -3.000000 53.168999
v -6.000000 3.799995 -49.000000
v -6.000000 3.799995 -46.831001
v -6.000000 4.799995 -49.000000
v -6.000000 4.799995 -49.000000
v -6.000000 3.799995 -46.831001
v -6.000000 3.799995 -42.230999
v -6.000000 4.799995 -49.000000
v -6.000000 3.799995 -42.230999
v -6.000000 3.799995 -36.831001
v -6.000000 3.799995 -46.831001
v -6.000000 -3.000000 -46.831001
v -6.000000 3.799995 -42.230999
v -6.000000 3.799995 -42.230999
v -6.000000 -3.000000 -46.831001
v -6.000000 -3.000000 -42.230999
v -6.000000 4.799995 -49.000000
v -6.000000 3.799995 -36.831001
v -6.000000 3.799995 -32.231003
v -6.000000 3.799995 -32.231003
v -6.000000 3.799995 -36.831001
v -6.000000 -3.000000 -36.831001
v -6.000000 3.799995 -32.231003
v -6.000000 -3.000000 -36.831001
v -6.000000 -3.000000 -32.231003
v -6.000000 3.799995 -32.231003
v -6.000000 3.799995 -26.830999
v -6.000000 4.799995 -49.000000
v -6.000000 4.799995 -49.000000
v -6.000000 3.799995 -26.830999
v -6.000000 3.799995 -22.231001
v -6.000000 4.799995 -49.000000
v -6.000000 3.799995 -22.231001
v -6.000000 3.799995 -16.831001
v -6.000000 3.799995 -26.830999
v -6.000000 -3.000000 -26.830999
v -6.000000 3.799995 -22.231001
v -6.000000 3.799995 -22.231001
v -6.000000 -3.000000 -26.830999
v -6.000000 -3.000000 -22.231001
v -6.000000 4.799995 -49.000000
v -6.000000 3.799995 -16.831001
v -6.000000 3.799995 -12.230999
v -6.000000 3.799995 -12.230999
v -6.000000 3.799995 -16.831001
v -6.000000 -3.000000 -16.831001
v -6.000000 3.799995 -12.230999
v -6.000000 -3.000000 -16.831001
v -6.000000 -3.000000 -12.230999
v -6.000000 3.799995 -12.230999
v -6.000000 3.799995 -6.831001
v -6.000000 4.799995 -49.000000
v -6.000000 4.799995 -49.000000
v -6.000000 3.799995 -6.831001
v -6.000000 3.799995 -2.230999
v -6.000000 4.799995 -49.000000
v -6.000000 3.799995 -2.230999
v -6.000000 3.799995 3.168999
v -6.000000 3.799995 -6.831001
v -6.000000 -3.000000 -6.831001
v -6.000000 3.799995 -2.230999
v -6.000000 3.799995 -2.230999
v -6.000000 -3.000000 -6.831001
v -6.000000 -3.000000 -2.230999
v -2.000000 1.799995 -6.831001
v -2.000000 0.000000 -6.831001
v -4.000000 3.799995 -6.831001
v -4.000000 3.799995 -6.831001
v -2.000000 0.000000 -6.831001
v -5.000000 -3.000000 -6.831001
v -4.000000 3.799995 -6.831001
v -5.000000 -3.000000 -6.831001
v -6.000000 3.799995 -6.831001
v -6.000000 3.799995 -6.831001
v -5.000000 -3.000000 -6.831001
v -6.000000 -3.000000 -6.831001
v -2.000000 1.799995 -2.230999
v -4.000000 3.799995 -2.230999
v -2.000000 0.000000 -2.230999
v -2.000000 0.000000 -2.230999
v -4.000000 3.799995 -2.230999
v -5.000000 -3.000000 -2.230999
v -5.000000 -3.000000 -2.230999
v -4.000000 3.799995 -2.230999
v -6.000000 3.799995 -2.230999
v -5.000000 -3.000000 -2.230999
v -6.000000 3.799995 -2.230999
v -6.000000 -3.000000 -2.230999
v -2.000000 1.799995 -16.831001
v -2.000000 0.000000 -16.831001
v -4.000000 3.799995 -16.831001
v -4.000000 3.799995 -16.831001
v -2.000000 0.000000 -16.831001
v -5.000000 -3.000000 -16.831001
v -4.000000 3.799995 -16.831001
v -5.000000 -3.000000 -16.831001
v -6.000000 3.799995 -16.831001
v -6.000000 3.799995 -16.831001
v -5.000000 -3.000000 -16.831001
v -6.000000 -3.000000 -16.831001
v -2.000000 1.799995 -12.230999
v -4.000000 3.799995 -12.230999
v -2.000000 0.000000 -12.230999
v -2.000000 0.000000 -12.230999
v -4.000000 3.799995 -12.230999
v -5.000000 -3.000000 -12.230999
v -5.000000 -3.000000 -12.230999
v -4.000000 3.799995 -12.230999
v -6.000000 3.799995 -12.230999
v -5.000000 -3.000000 -12.230999
v -6.000000 3.799995 -12.230999
v -6.000000 -3.000000 -12.230999
v -2.000000 1.799995 -16.831001
v -4.000000 3.799995 -16.831001
v -2.000000 1.799995 -22.231001
v -2.000000 1.799995 -22.231001
v -4.000000 3.799995 -16.831001
v -4.000000 3.799995 -22.231001
v -2.000000 1.799995 -26.830999
v -2.000000 0.000000 -26.830999
v -4.000000 3.799995 -26.830999
v -4.000000 3.799995 -26.830999
v -2.000000 0.000000 -26.830999
v -5.000000 -3.000000 -26.830999
v -4.000000 3.799995 -26.830999
v -5.000000 -3.000000 -26.830999
v -6.000000 3.799995 -26.830999
v -6.000000 3.799995 -26.830999
v -5.000000 -3.000000 -26.830999
v -6.000000 -3.000000 -26.830999
v -2.000000 1.799995 -22.231001
v -4.000000 3.799995 -22.231001
v -2.000000 0.000000 -22.231001
v -2.000000 0.000000 -22.231001
v -4.000000 3.799995 -22.231001
v -5.000000 -3.000000 -22.231001
v -5.000000 -3.000000 -22.231001
v -4.000000 3.799995 -22.231001
v -6.000000 3.799995 -22.231001
v -5.000000 -3.000000 -22.231001
v -6.000000 3.799995 -22.231001
v -6.000000 -3.000000 -22.231001
v -4.000000 3.799995 -46.831001
v -6.000000 3.799995 -46.831001
v -4.000000 3.799995 -49.000000
v -4.000000 3.799995 -49.000000
v -6.000000 3.799995 -46.831001
v -6.000000 3.799995 -49.000000
v -4.000000 3.799995 -36.831001
v -6.000000 3.799995 -36.831001
v -4.000000 3.799995 -42.230999
v -4.000000 3.799995 -42.230999
v -6.000000 3.799995 -36.831001
v -6.000000 3.799995 -42.230999
v -4.000000 3.799995 -26.830999
v -6.000000 3.799995 -26.830999
v -4.000000 3.799995 -32.231003
v -4.000000 3.799995 -32.231003
v -6.000000 3.799995 -26.830999
v -6.000000 3.799995 -32.231003
v 2.000000 1.799995 -31.830999
v 4.000000 3.799995 -31.830999
v 2.000000 0.000000 -31.830999
v 2.000000 0.000000 -31.830999
v 4.000000 3.799995 -31.830999
v 5.000000 -3.000000 -31.830999
v 5.000000 -3.000000 -31.830999
v 4.000000 3.799995 -31.830999
v 6.000000 3.799995 -31.830999
v 5.000000 -3.000000 -31.830999
v 6.000000 3.799995 -31.830999
v 6.000000 -3.000000 -31.830999
v 2.000000 0.000000 -31.830999
v 5.000000 -3.000000 -31.830999
v 2.000000 0.000000 -27.231001
v 2.000000 0.000000 -27.231001
v 5.000000 -3.000000 -31.830999
v 5.000000 -3.000000 -27.231001
v 2.000000 1.799995 -27.231001
v 2.000000 0.000000 -27.231001
v 4.000000 3.799995 -27.231001
v 4.000000 3.799995 -27.231001
v 2.000000 0.000000 -27.231001
v 5.000000 -3.000000 -27.231001
v 4.000000 3.799995 -27.231001
v 5.000000 -3.000000 -27.231001
v 6.000000 3.799995 -27.231001
v 6.000000 3.799995 -27.231001
v 5.000000 -3.000000 -27.231001
v 6.000000 -3.000000 -27.231001
v 2.000000 1.799995 -37.230999
v 4.000000 3.799995 -37.230999
v 2.000000 1.799995 -31.830999
v 2.000000 1.799995 -31.830999
v 4.000000 3.799995 -37.230999
v 4.000000 3.799995 -31.830999
v 2.000000 1.799995 -41.831001
v 4.000000 3.799995 -41.831001
v 2.000000 0.000000 -41.831001
v 2.000000 0.000000 -41.831001
v 4.000000 3.799995 -41.831001
v 5.000000 -3.000000 -41.831001
v 5.000000 -3.000000 -41.831001
v 4.000000 3.799995 -41.831001
v 6.000000 3.799995 -41.831001
v 5.000000 -3.000000 -41.831001
v 6.000000 3.799995 -41.831001
v 6.000000 -3.000000 -41.831001
v 2.000000 0.000000 -41.831001
v 5.000000 -3.000000 -41.831001
v 2.000000 0.000000 -37.230999
v 2.000000 0.000000 -37.230999
v 5.000000 -3.000000 -41.831001
v 5.000000 -3.000000 -37.230999
v 2.000000 1.799995 -37.230999
v 2.000000 0.000000 -37.230999
v 4.000000 3.799995 -37.230999
v 4.000000 3.799995 -37.230999
v 2.000000 0.000000 -37.230999
v 5.000000 -3.000000 -37.230999
v 4.000000 3.799995 -37.230999
v 5.000000 -3.000000 -37.230999
v 6.000000 3.799995 -37.230999
v 6.000000 3.799995 -37.230999
v 5.000000 -3.000000 -37.230999
v 6.000000 -3.000000 -37.230999
v 2.000000 1.799995 -47.230999
v 4.000000 3.799995 -47.230999
v 2.000000 1.799995 -41.831001
v 2.000000 1.799995 -41.831001
v 4.000000 3.799995 -47.230999
v 4.000000 3.799995 -41.831001
v 5.000000 -3.000000 -31.830999
v 6.000000 -3.000000 -31.830999
v 5.000000 -3.000000 -27.231001
v 5.000000 -3.000000 -27.231001
v 6.000000 -3.000000 -31.830999
v 6.000000 -3.000000 -27.231001
v 5.000000 -3.000000 -41.831001
v 6.000000 -3.000000 -41.831001
v 5.000000 -3.000000 -37.230999
v 5.000000 -3.000000 -37.230999
v 6.000000 -3.000000 -41.831001
v 6.000000 -3.000000 -37.230999
v -2.000000 1.799995 3.168999
v -4.000000 3.799995 3.168999
v -2.000000 1.799995 -2.230999
v -2.000000 1.799995 -2.230999
v -4.000000 3.799995 3.168999
v -4.000000 3.799995 -2.230999
v -2.000000 1.799995 -6.831001
v -4.000000 3.799995 -6.831001
v -2.000000 1.799995 -12.230999
v -2.000000 1.799995 -12.230999
v -4.000000 3.799995 -6.831001
v -4.000000 3.799995 -12.230999
v -2.000000 0.000000 -12.230999
v -5.000000 -3.000000 -12.230999
v -2.000000 0.000000 -16.831001
v -2.000000 0.000000 -16.831001
v -5.000000 -3.000000 -12.230999
v -5.000000 -3.000000 -16.831001
v -2.000000 0.000000 -22.231001
v -5.000000 -3.000000 -22.231001
v -2.000000 0.000000 -26.830999
v -2.000000 0.000000 -26.830999
v -5.000000 -3.000000 -22.231001
v -5.000000 -3.000000 -26.830999
v -2.000000 0.000000 -32.231003
v -5.000000 -3.000000 -32.231003
v -2.000000 0.000000 -36.831001
v -2.000000 0.000000 -36.831001
v -5.000000 -3.000000 -32.231003
v -5.000000 -3.000000 -36.831001
v -2.000000 0.000000 -42.230999
v -5.000000 -3.000000 -42.230999
v -2.000000 0.000000 -46.831001
v -2.000000 0.000000 -46.831001
v -5.000000 -3.000000 -42.230999
v -5.000000 -3.000000 -46.831001
v -2.000000 0.000000 54.938004
v -2.000000 0.000000 53.168999
v 2.000000 0.000000 54.938004
v 2.000000 0.000000 54.938004
v -2.000000 0.000000 53.168999
v 2.000000 0.000000 52.768997
v 2.000000 0.000000 52.768997
v -2.000000 0.000000 53.168999
v -2.000000 0.000000 47.768997
v 2.000000 0.000000 52.768997
v -2.000000 0.000000 47.768997
v 2.000000 0.000000 48.168999
v 2.000000 0.000000 48.168999
v -2.000000 0.000000 47.768997
v 2.000000 0.000000 42.768997
v 2.000000 0.000000 42.768997
v -2.000000 0.000000 47.768997
v -2.000000 0.000000 43.168999
v 2.000000 0.000000 42.768997
v -2.000000 0.000000 43.168999
v -2.000000 0.000000 37.768997
v -2.000000 0.000000 33.168999
v 2.000000 0.000000 32.768997
v -2.000000 0.000000 37.768997
v -2.000000 0.000000 37.768997
v 2.000000 0.000000 32.768997
v 2.000000 0.000000 38.168999
v -2.000000 0.000000 37.768997
v 2.000000 0.000000 38.168999
v 2.000000 0.000000 42.768997
v -2.000000 0.000000 33.168999
v -2.000000 0.000000 27.768997
v 2.000000 0.000000 32.768997
v 2.000000 0.000000 32.768997
v -2.000000 0.000000 27.768997
v 2.000000 0.000000 28.168999
v 2.000000 0.000000 28.168999
v -2.000000 0.000000 27.768997
v 2.000000 0.000000 22.768997
v 2.000000 0.000000 22.768997
v -2.000000 0.000000 27.768997
v -2.000000 0.000000 23.168999
v 2.000000 0.000000 22.768997
v -2.000000 0.000000 23.168999
v -2.000000 0.000000 17.768997
v -2.000000 0.000000 13.168999
v 2.000000 0.000000 12.769001
v -2.000000 0.000000 17.768997
v -2.000000 0.000000 17.768997
v 2.000000 0.000000 12.769001
v 2.000000 0.000000 18.168999
v -2.000000 0.000000 17.768997
v 2.000000 0.000000 18.168999
v 2.000000 0.000000 22.768997
v -2.000000 0.000000 13.168999
v -2.000000 0.000000 7.769001
v 2.000000 0.000000 12.769001
v 2.000000 0.000000 12.769001
v -2.000000 0.000000 7.769001
v 2.000000 0.000000 8.168999
v 2.000000 0.000000 8.168999
v -2.000000 0.000000 7.769001
v 2.000000 0.000000 2.769001
v 2.000000 0.000000 2.769001
v -2.000000 0.000000 7.769001
v -2.000000 0.000000 3.168999
v 2.000000 0.000000 2.769001
v -2.000000 0.000000 3.168999
v -2.000000 0.000000 -2.230999
v -2.000000 0.000000 -6.831001
v 2.000000 0.000000 -7.230999
v -2.000000 0.000000 -2.230999
v -2.000000 0.000000 -2.230999
v 2.000000 0.000000 -7.230999
v 2.000000 0.000000 -1.831001
v -2.000000 0.000000 -2.230999
v 2.000000 0.000000 -1.831001
v 2.000000 0.000000 2.769001
v -2.000000 0.000000 -6.831001
v -2.000000 0.000000 -12.230999
v 2.000000 0.000000 -7.230999
v 2.000000 0.000000 -7.230999
v -2.000000 0.000000 -12.230999
v 2.000000 0.000000 -11.831001
v 2.000000 0.000000 -11.831001
v -2.000000 0.000000 -12.230999
v 2.000000 0.000000 -17.230999
v 2.000000 0.000000 -17.230999
v -2.000000 0.000000 -12.230999
v -2.000000 0.000000 -16.831001
v 2.000000 0.000000 -17.230999
v -2.000000 0.000000 -16.831001
v -2.000000 0.000000 -22.231001
v -2.000000 0.000000 -26.830999
v 2.000000 0.000000 -27.231001
v -2.000000 0.000000 -22.231001
v -2.000000 0.000000 -22.231001
v 2.000000 0.000000 -27.231001
v 2.000000 0.000000 -21.830999
v -2.000000 0.000000 -22.231001
v 2.000000 0.000000 -21.830999
v 2.000000 0.000000 -17.230999
v -2.000000 0.000000 -26.830999
v -2.000000 0.000000 -32.231003
v 2.000000 0.000000 -27.231001
v 2.000000 0.000000 -27.231001
v -2.000000 0.000000 -32.231003
v 2.000000 0.000000 -31.830999
v 2.000000 0.000000 -31.830999
v -2.000000 0.000000 -32.231003
v 2.000000 0.000000 -37.230999
v 2.000000 0.000000 -37.230999
v -2.000000 0.000000 -32.231003
v -2.000000 0.000000 -36.831001
v 2.000000 0.000000 -37.230999
v -2.000000 0.000000 -36.831001
v -2.000000 0.000000 -42.230999
v -2.000000 0.000000 -46.831001
v 2.000000 0.000000 -47.230999
v -2.000000 0.000000 -42.230999
v -2.000000 0.000000 -42.230999
v 2.000000 0.000000 -47.230999
v 2.000000 0.000000 -41.831001
v -2.000000 0.000000 -42.230999
v 2.000000 0.000000 -41.831001
v 2.000000 0.000000 -37.230999
v -2.000000 0.000000 -46.831001
v -2.000000 0.000000 -49.000000
v 2.000000 0.000000 -47.230999
v 2.000000 0.000000 -47.230999
v -2.000000 0.000000 -49.000000
v 2.000000 0.000000 -49.000000
v -2.000000 0.000000 -46.831001
v -2.000000 1.799995 -46.831001
v -2.000000 0.000000 -49.000000
v -2.000000 0.000000 -49.000000
v -2.000000 1.799995 -46.831001
v -2.000000 1.799995 -49.000000
v 4.000000 3.799995 12.769001
v 6.000000 3.799995 12.769001
v 4.000000 3.799995 18.168999
v 4.000000 3.799995 18.168999
v 6.000000 3.799995 12.769001
v 6.000000 3.799995 18.168999
v 4.000000 3.799995 22.768997
v 6.000000 3.799995 22.768997
v 4.000000 3.799995 28.168999
v 4.000000 3.799995 28.168999
v 6.000000 3.799995 22.768997
v 6.000000 3.799995 28.168999
v 6.000000 3.799995 8.168999
v 4.000000 3.799995 8.168999
v 6.000000 3.799995 2.769001
v 6.000000 3.799995 2.769001
v 4.000000 3.799995 8.168999
v 4.000000 3.799995 2.769001
v 4.000000 3.799995 32.768997
v 6.000000 3.799995 32.768997
v 4.000000 3.799995 38.168999
v 4.000000 3.799995 38.168999
v 6.000000 3.799995 32.768997
v 6.000000 3.799995 38.168999
v 6.000000 3.799995 -1.831001
v 4.000000 3.799995 -1.831001
v 6.000000 3.799995 -7.230999
v 6.000000 3.799995 -7.230999
v 4.000000 3.799995 -1.831001
v 4.000000 3.799995 -7.230999
v 4.000000 3.799995 42.768997
v 6.000000 3.799995 42.768997
v 4.000000 3.799995 48.168999
v 4.000000 3.799995 48.168999
v 6.000000 3.799995 42.768997
v 6.000000 3.799995 48.168999
v 6.000000 3.799995 -11.831001
v 4.000000 3.799995 -11.831001
v 6.000000 3.799995 -17.230999
v 6.000000 3.799995 -17.230999
v 4.000000 3.799995 -11.831001
v 4.000000 3.799995 -17.230999
v 4.000000 3.799995 52.768997
v 6.000000 3.799995 52.768997
v 4.000000 3.799995 54.938004
v 4.000000 3.799995 54.938004
v 6.000000 3.799995 52.768997
v 6.000000 3.799995 54.938004
v 6.000000 3.799995 -21.830999
v 4.000000 3.799995 -21.830999
v 6.000000 3.799995 -27.231001
v 6.000000 3.799995 -27.231001
v 4.000000 3.799995 -21.830999
v 4.000000 3.799995 -27.231001
v 6.000000 3.799995 -31.830999
v 4.000000 3.799995 -31.830999
v 6.000000 3.799995 -37.230999
v 6.000000 3.799995 -37.230999
v 4.000000 3.799995 -31.830999
v 4.000000 3.799995 -37.230999
v 4.000000 3.799995 -47.230999
v 6.000000 3.799995 -47.230999
v 4.000000 3.799995 -41.831001
v 4.000000 3.799995 -41.831001
v 6.000000 3.799995 -47.230999
v 6.000000 3.799995 -41.831001
v -2.000000 1.799995 7.769001
v -4.000000 3.799995 7.769001
v -2.000000 0.000000 7.769001
v -2.000000 0.000000 7.769001
v -4.000000 3.799995 7.769001
v -5.000000 -3.000000 7.769001
v -5.000000 -3.000000 7.769001
v -4.000000 3.799995 7.769001
v -6.000000 3.799995 7.769001
v -5.000000 -3.000000 7.769001
v -6.000000 3.799995 7.769001
v -6.000000 -3.000000 7.769001
v -2.000000 1.799995 53.168999
v -2.000000 0.000000 53.168999
v -4.000000 3.799995 53.168999
v -4.000000 3.799995 53.168999
v -2.000000 0.000000 53.168999
v -5.000000 -3.000000 53.168999
v -4.000000 3.799995 53.168999
v -5.000000 -3.000000 53.168999
v -6.000000 3.799995 53.168999
v -6.000000 3.799995 53.168999
v -5.000000 -3.000000 53.168999
v -6.000000 -3.000000 53.168999
v -5.000000 -3.000000 -42.230999
v -6.000000 -3.000000 -42.230999
v -5.000000 -3.000000 -46.831001
v -5.000000 -3.000000 -46.831001
v -6.000000 -3.000000 -42.230999
v -6.000000 -3.000000 -46.831001
v -5.000000 -3.000000 -32.231003
v -6.000000 -3.000000 -32.231003
v -5.000000 -3.000000 -36.831001
v -5.000000 -3.000000 -36.831001
v -6.000000 -3.000000 -32.231003
v -6.000000 -3.000000 -36.831001
v -5.000000 -3.000000 -22.231001
v -6.000000 -3.000000 -22.231001
v -5.000000 -3.000000 -26.830999
v -5.000000 -3.000000 -26.830999
v -6.000000 -3.000000 -22.231001
v -6.000000 -3.000000 -26.830999
v -5.000000 -3.000000 -12.230999
v -6.000000 -3.000000 -12.230999
v -5.000000 -3.000000 -16.831001
v -5.000000 -3.000000 -16.831001
v -6.000000 -3.000000 -12.230999
v -6.000000 -3.000000 -16.831001
v -5.000000 -3.000000 -2.230999
v -6.000000 -3.000000 -2.230999
v -5.000000 -3.000000 -6.831001
v -5.000000 -3.000000 -6.831001
v -6.000000 -3.000000 -2.230999
v -6.000000 -3.000000 -6.831001
v -5.000000 -3.000000 7.769001
v -6.000000 -3.000000 7.769001
v -5.000000 -3.000000 3.168999
v -5.000000 -3.000000 3.168999
v -6.000000 -3.000000 7.769001
v -6.000000 -3.000000 3.168999
v 2.000000 0.000000 32.768997
v 2.000000 1.799995 32.768997
v 2.000000 0.000000 38.168999
v 2.000000 0.000000 38.168999
v 2.000000 1.799995 32.768997
v 2.000000 1.799995 38.168999
v 2.000000 0.000000 22.768997
v 2.000000 1.799995 22.768997
v 2.000000 0.000000 28.168999
v 2.000000 0.000000 28.168999
v 2.000000 1.799995 22.768997
v 2.000000 1.799995 28.168999
v 2.000000 0.000000 12.769001
v 2.000000 1.799995 12.769001
v 2.000000 0.000000 18.168999
v 2.000000 0.000000 18.168999
v 2.000000 1.799995 12.769001
v 2.000000 1.799995 18.168999
v 2.000000 0.000000 2.769001
v 2.000000 1.799995 2.769001
v 2.000000 0.000000 8.168999
v 2.000000 0.000000 8.168999
v 2.000000 1.799995 2.769001
v 2.000000 1.799995 8.168999
v 2.000000 1.799995 -1.831001
v 2.000000 0.000000 -1.831001
v 2.000000 1.799995 -7.230999
v 2.000000 1.799995 -7.230999
v 2.000000 0.000000 -1.831001
v 2.000000 0.000000 -7.230999
v 2.000000 1.799995 -11.831001
v 2.000000 0.000000 -11.831001
v 2.000000 1.799995 -17.230999
v 2.000000 1.799995 -17.230999
v 2.000000 0.000000 -11.831001
v 2.000000 0.000000 -17.230999
v 2.000000 1.799995 -21.830999
v 2.000000 0.000000 -21.830999
v 2.000000 1.799995 -27.231001
v 2.000000 1.799995 -27.231001
v 2.000000 0.000000 -21.830999
v 2.000000 0.000000 -27.231001
v 2.000000 1.799995 -31.830999
v 2.000000 0.000000 -31.830999
v 2.000000 1.799995 -37.230999
v 2.000000 1.799995 -37.230999
v 2.000000 0.000000 -31.830999
v 2.000000 0.000000 -37.230999
v 2.000000 1.799995 -41.831001
v 2.000000 0.000000 -41.831001
v 2.000000 1.799995 -47.230999
v 2.000000 1.799995 -47.230999
v 2.000000 0.000000 -41.831001
v 2.000000 0.000000 -47.230999
v 2.000000 0.000000 52.768997
v 2.000000 1.799995 52.768997
v 2.000000 0.000000 54.938004
v 2.000000 0.000000 54.938004
v 2.000000 1.799995 52.768997
v 2.000000 1.799995 54.938004
v 2.000000 0.000000 42.768997
v 2.000000 1.799995 42.768997
v 2.000000 0.000000 48.168999
v 2.000000 0.000000 48.168999
v 2.000000 1.799995 42.768997
v 2.000000 1.799995 48.168999
vn -0.0000 -0.0000 1.0000
vn -0.0000 -1.0000 -0.0000
vn -0.7071 -0.7071 -0.0000
vn -0.0000 -0.0000 -1.0000
vn 0.7071 -0.7071 -0.0000
vn 1.0000 -0.0000 -0.0000
vn -1.0000 -0.0000 -0.0000
vt 0.566260 0.517763
vt 0.566260 0.483127
vt 0.604744 0.556248
vt 0.623986 0.425401
vt 0.643229 0.556248
vt 0.643229 0.425401
vt 0.623986 1.499903
vt 0.643229 1.499903
vt 0.623986 1.465863
vt 0.643229 1.465863
vt 0.566260 1.499903
vt 0.566260 1.465863
vt 0.450806 0.496055
vt 0.412322 0.496055
vt 0.450806 0.599963
vt 0.412322 0.599963
vt 0.412322 0.407540
vt 0.450806 0.407540
vt 0.412322 0.303632
vt 0.450806 0.303632
vt 0.412322 0.215118
vt 0.450806 0.215118
vt 0.412322 0.111210
vt 0.450806 0.111210
vt 0.412322 0.022696
vt 0.450806 0.022696
vt 0.412322 -0.081213
vt 0.450806 -0.081213
vt 0.412322 -0.169727
vt 0.450806 -0.169727
vt 0.412322 -0.273635
vt 0.450806 -0.273635
vt 0.623986 -0.177424
vt 0.643229 -0.177424
vt 0.623986 -0.265938
vt 0.643229 -0.265938
vt 0.566260 -0.177424
vt 0.566260 -0.265938
vt 0.604744 -0.265938
vt 0.566260 -0.369846
vt 0.604744 -0.369846
vt 0.412322 -0.362149
vt 0.450806 -0.362149
vt 0.412322 -0.466057
vt 0.450806 -0.466057
vt 0.623986 -0.369846
vt 0.643229 -0.369846
vt 0.623986 -0.458360
vt 0.643229 -0.458360
vt 0.566260 -0.458360
vt 0.604744 -0.500097
vt 0.566260 -0.500097
vt 0.604744 -0.458360
vt 0.566260 -0.073516
vt 0.604744 -0.073516
vt 0.604744 -0.177424
vt 0.566260 0.014999
vt 0.623986 0.014999
vt 0.623986 -0.073516
vt 0.566260 0.118907
vt 0.604744 0.118907
vt 0.604744 0.014999
vt 0.566260 0.207421
vt 0.623986 0.207421
vt 0.623986 0.118907
vt 0.643229 0.014999
vt 0.643229 -0.073516
vt 0.643229 0.207421
vt 0.643229 0.118907
vt 0.566260 0.311329
vt 0.604744 0.311329
vt 0.604744 0.207421
vt 0.566260 0.399843
vt 0.623986 0.399843
vt 0.623986 0.311329
vt 0.566260 0.503751
vt 0.604744 0.503751
vt 0.604744 0.399843
vt 0.566260 0.592266
vt 0.623986 0.592266
vt 0.623986 0.503751
vt 0.643229 0.399843
vt 0.643229 0.311329
vt 0.643229 0.592266
vt 0.643229 0.503751
vt 0.427618 0.425401
vt 0.427618 0.556248
vt 0.339104 0.425401
vt 0.339104 0.556248
vt -0.472322 0.575490
vt 0.235196 0.556248
vt 0.146682 0.556248
vt 0.146682 0.425401
vt 0.531526 0.556248
vt 1.527678 0.575490
vt 0.620041 0.556248
vt 0.723949 0.556248
vt 0.531526 0.425401
vt 0.620041 0.425401
vt 0.812463 0.556248
vt 0.723949 0.425401
vt 0.812463 0.425401
vt 0.916371 0.556248
vt 1.004886 0.556248
vt 1.108794 0.556248
vt 0.916371 0.425401
vt 1.004886 0.425401
vt 1.197308 0.556248
vt 1.108794 0.425401
vt 1.197308 0.425401
vt 1.301216 0.556248
vt 1.389730 0.556248
vt 1.493638 0.556248
vt 1.301216 0.425401
vt 1.389730 0.425401
vt 1.493638 0.425401
vt 1.527678 0.425401
vt -0.472322 0.556248
vt -0.430586 0.556248
vt -0.342071 0.556248
vt -0.238163 0.556248
vt -0.430586 0.425401
vt -0.342071 0.425401
vt -0.149649 0.556248
vt -0.238163 0.425401
vt -0.149649 0.425401
vt -0.045741 0.556248
vt 0.042773 0.556248
vt -0.045741 0.425401
vt 0.042773 0.425401
vt 0.235196 0.425401
vt 0.431564 -0.169727
vt 0.431564 -0.081213
vt 0.489291 0.517763
vt 0.489291 0.483127
vt 0.450806 0.556248
vt 0.431564 0.425401
vt 0.412322 0.556248
vt 0.412322 0.425401
vt 0.489291 -0.169727
vt 0.489291 -0.081213
vt 0.489291 -0.273635
vt 0.431564 -0.362149
vt 0.431564 -0.273635
vt 0.489291 -0.362149
vt 0.489291 -0.466057
vt 0.431564 -0.500097
vt 0.412322 -0.500097
vt 0.431564 -0.466057
vt 0.489291 -0.500097
vt 0.431564 0.215118
vt 0.431564 0.303632
vt 0.489291 0.215118
vt 0.489291 0.303632
vt 0.489291 0.111210
vt 0.431564 0.022696
vt 0.431564 0.111210
vt 0.489291 0.022696
vt 0.623986 0.784688
vt 0.643229 0.784688
vt 0.623986 0.696174
vt 0.643229 0.696174
vt 0.450806 0.880899
vt 0.412322 0.880899
vt 0.450806 0.984807
vt 0.412322 0.984807
vt 0.450806 0.688477
vt 0.412322 0.688477
vt 0.450806 0.792385
vt 0.412322 0.792385
vt 0.450806 1.499903
vt 0.489291 1.499903
vt 0.450806 1.458167
vt 0.489291 1.458167
vt 0.489291 1.265744
vt 0.450806 1.265744
vt 0.489291 1.369652
vt 0.450806 1.369652
vt 0.489291 1.073322
vt 0.450806 1.073322
vt 0.489291 1.177230
vt 0.450806 1.177230
vt 0.566260 0.696174
vt 0.604744 0.696174
vt 0.604744 0.592266
vt 0.566260 0.784688
vt 0.566260 0.888596
vt 0.604744 0.888596
vt 0.604744 0.784688
vt 0.566260 0.977111
vt 0.623986 0.977111
vt 0.623986 0.888596
vt 0.566260 1.081019
vt 0.604744 1.081019
vt 0.604744 0.977111
vt 0.643229 0.977111
vt 0.643229 0.888596
vt 0.627738 0.517763
vt 0.627738 0.483127
vt 0.523830 0.517763
vt 0.523830 0.483127
vt 0.435315 0.517763
vt 0.435315 0.483127
vt 0.331407 0.517763
vt 0.331407 0.483127
vt 0.716252 0.483127
vt 0.716252 0.517763
vt 0.820160 0.483127
vt 0.820160 0.517763
vt 0.242893 0.517763
vt 0.242893 0.483127
vt 0.138985 0.517763
vt 0.138985 0.483127
vt 0.908674 0.483127
vt 0.908674 0.517763
vt 1.012582 0.483127
vt 1.012582 0.517763
vt 0.050470 0.517763
vt 0.050470 0.483127
vt -0.053438 0.517763
vt -0.053438 0.483127
vt 1.101097 0.483127
vt 1.101097 0.517763
vt 1.205005 0.483127
vt 1.205005 0.517763
vt -0.141952 0.517763
vt -0.141952 0.483127
vt -0.245860 0.517763
vt -0.245860 0.483127
vt 1.293519 0.483127
vt 1.293519 0.517763
vt 1.397427 0.483127
vt 1.397427 0.517763
vt -0.334374 0.517763
vt -0.334374 0.483127
vt -0.438282 0.517763
vt -0.438282 0.483127
vt 0.489291 0.407540
vt 0.431564 0.407540
vt 0.489291 0.496055
vt 0.431564 0.496055
vt 0.489291 0.599963
vt 0.431564 0.599963
vt 0.489291 0.688477
vt 0.431564 0.688477
vt 0.435315 0.425401
vt 0.435315 0.556248
vt 0.523830 0.425401
vt 0.523830 0.556248
vt 0.331407 0.556248
vt 0.242893 0.556248
vt 0.138985 0.556248
vt 0.331407 0.425401
vt 0.242893 0.425401
vt 0.050470 0.556248
vt 0.138985 0.425401
vt 0.050470 0.425401
vt -0.053438 0.556248
vt -0.141952 0.556248
vt -0.245860 0.556248
vt -0.053438 0.425401
vt -0.141952 0.425401
vt -0.334374 0.556248
vt -0.245860 0.425401
vt -0.334374 0.425401
vt -0.438282 0.556248
vt -0.472322 0.425401
vt -0.438282 0.425401
vt 1.527678 0.556248
vt 1.485942 0.556248
vt 1.397427 0.556248
vt 1.293519 0.556248
vt 1.485942 0.425401
vt 1.397427 0.425401
vt 1.205005 0.556248
vt 1.293519 0.425401
vt 1.205005 0.425401
vt 1.101097 0.556248
vt 1.012582 0.556248
vt 0.908674 0.556248
vt 1.101097 0.425401
vt 1.012582 0.425401
vt 0.820160 0.556248
vt 0.908674 0.425401
vt 0.820160 0.425401
vt 0.716252 0.556248
vt 0.627738 0.556248
vt 0.716252 0.425401
vt 0.627738 0.425401
vt 0.489291 0.880899
vt 0.489291 0.984807
vt 0.412322 1.458167
vt 0.412322 1.499903
vt 0.412322 1.265744
vt 0.412322 1.369652
vt 0.412322 1.073322
vt 0.412322 1.177230
vt 0.566260 1.169533
vt 0.623986 1.169533
vt 0.623986 1.081019
vt 0.566260 1.273441
vt 0.604744 1.273441
vt 0.604744 1.169533
vt 0.566260 1.361955
vt 0.623986 1.361955
vt 0.623986 1.273441
vt 0.604744 1.465863
vt 0.604744 1.361955
vt 0.643229 1.169533
vt 0.643229 1.081019
vt 0.643229 1.361955
vt 0.643229 1.273441
vt 0.489291 0.792385
vt 0.431564 0.792385
vt 0.431564 0.880899
vt 0.431564 0.984807
vt 0.431564 1.073322
vt 0.431564 1.177230
vt 0.431564 1.265744
vt 0.431564 1.369652
vt 0.431564 1.458167
vt 1.485942 0.483127
vt 1.485942 0.517763
vt 1.527678 0.483127
vt 1.527678 0.517763
vt 0.643229 -0.500097
vt -0.045741 0.483127
vt -0.045741 0.517763
vt -0.149649 0.483127
vt -0.149649 0.517763
vt 0.146682 0.483127
vt 0.146682 0.517763
vt 0.042773 0.483127
vt 0.042773 0.517763
vt 0.339104 0.483127
vt 0.339104 0.517763
vt 0.235196 0.483127
vt 0.235196 0.517763
vt 0.531526 0.483127
vt 0.531526 0.517763
vt 0.427618 0.483127
vt 0.427618 0.517763
vt 0.620041 0.517763
vt 0.620041 0.483127
vt 0.723949 0.517763
vt 0.723949 0.483127
vt 0.812463 0.517763
vt 0.812463 0.483127
vt 0.916371 0.517763
vt 0.916371 0.483127
vt 1.004886 0.517763
vt 1.004886 0.483127
vt 1.108794 0.517763
vt 1.108794 0.483127
vt 1.197308 0.517763
vt 1.197308 0.483127
vt 1.301216 0.517763
vt 1.301216 0.483127
vt 1.389730 0.517763
vt 1.389730 0.483127
vt 1.493638 0.517763
vt 1.493638 0.483127
vt -0.430586 0.483127
vt -0.430586 0.517763
vt -0.472322 0.483127
vt -0.472322 0.517763
vt -0.238163 0.483127
vt -0.238163 0.517763
vt -0.342071 0.483127
vt -0.342071 0.517763
s 0
f 1/1/1 2/2/1 3/3/1
f 4/3/1 5/2/1 6/4/1
f 7/3/1 8/4/1 9/5/1
f 10/5/1 11/4/1 12/6/1
f 13/7/2 14/8/2 15/9/2
f 16/9/2 17/8/2 18/10/2
f 19/11/3 20/7/3 21/12/3
f 22/12/3 23/7/3 24/9/3
f 25/13/2 26/14/2 27/15/2
f 28/15/2 29/14/2 30/16/2
f 31/17/2 32/18/2 33/19/2
f 34/19/2 35/18/2 36/20/2
f 37/21/2 38/22/2 39/23/2
f 40/23/2 41/22/2 42/24/2
f 43/25/2 44/26/2 45/27/2
f 46/27/2 47/26/2 48/28/2
f 49/29/2 50/30/2 51/31/2
f 52/31/2 53/30/2 54/32/2
f 55/33/2 56/34/2 57/35/2
f 58/35/2 59/34/2 60/36/2
f 61/1/4 62/3/4 63/2/4
f 64/2/4 65/3/4 66/4/4
f 67/4/4 68/3/4 69/5/4
f 70/4/4 71/5/4 72/6/4
f 73/37/3 74/33/3 75/38/3
f 76/38/3 77/33/3 78/35/3
f 79/38/5 80/39/5 81/40/5
f 82/40/5 83/39/5 84/41/5
f 85/42/2 86/43/2 87/44/2
f 88/44/2 89/43/2 90/45/2
f 91/46/2 92/47/2 93/48/2
f 94/48/2 95/47/2 96/49/2
f 97/1/4 98/3/4 99/2/4
f 100/2/4 101/3/4 102/4/4
f 103/4/4 104/3/4 105/5/4
f 106/4/4 107/5/4 108/6/4
f 109/40/3 110/46/3 111/50/3
f 112/50/3 113/46/3 114/48/3
f 115/51/5 116/52/5 117/53/5
f 118/53/5 119/52/5 120/50/5
f 121/1/1 122/2/1 123/3/1
f 124/3/1 125/2/1 126/4/1
f 127/3/1 128/4/1 129/5/1
f 130/5/1 131/4/1 132/6/1
f 133/1/1 134/2/1 135/3/1
f 136/3/1 137/2/1 138/4/1
f 139/3/1 140/4/1 141/5/1
f 142/5/1 143/4/1 144/6/1
f 145/54/5 146/55/5 147/37/5
f 148/37/5 149/55/5 150/56/5
f 151/1/4 152/3/4 153/2/4
f 154/2/4 155/3/4 156/4/4
f 157/4/4 158/3/4 159/5/4
f 160/4/4 161/5/4 162/6/4
f 163/57/3 164/58/3 165/54/3
f 166/54/3 167/58/3 168/59/3
f 169/1/1 170/2/1 171/3/1
f 172/3/1 173/2/1 174/4/1
f 175/3/1 176/4/1 177/5/1
f 178/5/1 179/4/1 180/6/1
f 181/60/5 182/61/5 183/57/5
f 184/57/5 185/61/5 186/62/5
f 187/1/4 188/3/4 189/2/4
f 190/2/4 191/3/4 192/4/4
f 193/4/4 194/3/4 195/5/4
f 196/4/4 197/5/4 198/6/4
f 199/63/3 200/64/3 201/60/3
f 202/60/3 203/64/3 204/65/3
f 205/1/1 206/2/1 207/3/1
f 208/3/1 209/2/1 210/4/1
f 211/3/1 212/4/1 213/5/1
f 214/5/1 215/4/1 216/6/1
f 217/58/2 218/66/2 219/59/2
f 220/59/2 221/66/2 222/67/2
f 223/64/2 224/68/2 225/65/2
f 226/65/2 227/68/2 228/69/2
f 229/70/5 230/71/5 231/63/5
f 232/63/5 233/71/5 234/72/5
f 235/1/4 236/3/4 237/2/4
f 238/2/4 239/3/4 240/4/4
f 241/4/4 242/3/4 243/5/4
f 244/4/4 245/5/4 246/6/4
f 247/73/3 248/74/3 249/70/3
f 250/70/3 251/74/3 252/75/3
f 253/1/1 254/2/1 255/3/1
f 256/3/1 257/2/1 258/4/1
f 259/3/1 260/4/1 261/5/1
f 262/5/1 263/4/1 264/6/1
f 265/76/5 266/77/5 267/73/5
f 268/73/5 269/77/5 270/78/5
f 271/1/4 272/3/4 273/2/4
f 274/2/4 275/3/4 276/4/4
f 277/4/4 278/3/4 279/5/4
f 280/4/4 281/5/4 282/6/4
f 283/79/3 284/80/3 285/76/3
f 286/76/3 287/80/3 288/81/3
f 289/1/1 290/2/1 291/3/1
f 292/3/1 293/2/1 294/4/1
f 295/3/1 296/4/1 297/5/1
f 298/5/1 299/4/1 300/6/1
f 301/74/2 302/82/2 303/75/2
f 304/75/2 305/82/2 306/83/2
f 307/80/2 308/84/2 309/81/2
f 310/81/2 311/84/2 312/85/2
f 313/86/6 314/87/6 315/88/6
f 316/88/6 317/87/6 318/89/6
f 319/89/6 320/87/6 321/90/6
f 322/89/6 323/90/6 324/91/6
f 325/91/6 326/90/6 327/92/6
f 328/91/6 329/92/6 330/93/6
f 331/87/6 332/94/6 333/90/6
f 334/90/6 335/94/6 336/95/6
f 337/95/6 338/94/6 339/96/6
f 340/95/6 341/96/6 342/97/6
f 343/94/6 344/98/6 345/96/6
f 346/96/6 347/98/6 348/99/6
f 349/95/6 350/97/6 351/100/6
f 352/100/6 353/97/6 354/101/6
f 355/100/6 356/101/6 357/102/6
f 358/100/6 359/103/6 360/95/6
f 361/95/6 362/103/6 363/104/6
f 364/95/6 365/104/6 366/105/6
f 367/103/6 368/106/6 369/104/6
f 370/104/6 371/106/6 372/107/6
f 373/95/6 374/105/6 375/108/6
f 376/108/6 377/105/6 378/109/6
f 379/108/6 380/109/6 381/110/6
f 382/108/6 383/111/6 384/95/6
f 385/95/6 386/111/6 387/112/6
f 388/95/6 389/112/6 390/113/6
f 391/111/6 392/114/6 393/112/6
f 394/112/6 395/114/6 396/115/6
f 397/116/6 398/117/6 399/113/6
f 400/113/6 401/117/6 402/95/6
f 403/118/6 404/119/6 405/90/6
f 406/90/6 407/119/6 408/120/6
f 409/90/6 410/120/6 411/121/6
f 412/119/6 413/122/6 414/120/6
f 415/120/6 416/122/6 417/123/6
f 418/90/6 419/121/6 420/124/6
f 421/124/6 422/121/6 423/125/6
f 424/124/6 425/125/6 426/126/6
f 427/124/6 428/127/6 429/90/6
f 430/90/6 431/127/6 432/128/6
f 433/90/6 434/128/6 435/92/6
f 436/127/6 437/129/6 438/128/6
f 439/128/6 440/129/6 441/130/6
f 442/93/6 443/131/6 444/91/6
f 445/132/2 446/29/2 447/133/2
f 448/133/2 449/29/2 450/27/2
f 451/134/4 452/135/4 453/136/4
f 454/136/4 455/135/4 456/137/4
f 457/136/4 458/137/4 459/138/4
f 460/138/4 461/137/4 462/139/4
f 463/140/5 464/132/5 465/141/5
f 466/141/5 467/132/5 468/133/5
f 469/142/3 470/32/3 471/140/3
f 472/140/3 473/32/3 474/30/3
f 475/143/2 476/42/2 477/144/2
f 478/144/2 479/42/2 480/31/2
f 481/134/4 482/135/4 483/136/4
f 484/136/4 485/135/4 486/137/4
f 487/136/4 488/137/4 489/138/4
f 490/138/4 491/137/4 492/139/4
f 493/145/5 494/143/5 495/142/5
f 496/142/5 497/143/5 498/144/5
f 499/146/3 500/45/3 501/145/3
f 502/145/3 503/45/3 504/43/3
f 505/134/1 506/136/1 507/135/1
f 508/135/1 509/136/1 510/137/1
f 511/137/1 512/136/1 513/138/1
f 514/137/1 515/138/1 516/139/1
f 517/147/2 518/148/2 519/149/2
f 520/149/2 521/148/2 522/44/2
f 523/150/5 524/147/5 525/146/5
f 526/146/5 527/147/5 528/149/5
f 529/151/2 530/21/2 531/152/2
f 532/152/2 533/21/2 534/19/2
f 535/134/4 536/135/4 537/136/4
f 538/136/4 539/135/4 540/137/4
f 541/136/4 542/137/4 543/138/4
f 544/138/4 545/137/4 546/139/4
f 547/153/5 548/151/5 549/154/5
f 550/154/5 551/151/5 552/152/5
f 553/155/3 554/24/3 555/153/3
f 556/153/3 557/24/3 558/22/3
f 559/134/1 560/136/1 561/135/1
f 562/135/1 563/136/1 564/137/1
f 565/137/1 566/136/1 567/138/1
f 568/137/1 569/138/1 570/139/1
f 571/156/2 572/25/2 573/157/2
f 574/157/2 575/25/2 576/23/2
f 577/134/4 578/135/4 579/136/4
f 580/136/4 581/135/4 582/137/4
f 583/136/4 584/137/4 585/138/4
f 586/138/4 587/137/4 588/139/4
f 589/158/5 590/156/5 591/155/5
f 592/155/5 593/156/5 594/157/5
f 595/141/3 596/28/3 597/158/3
f 598/158/3 599/28/3 600/26/3
f 601/134/1 602/136/1 603/135/1
f 604/135/1 605/136/1 606/137/1
f 607/137/1 608/136/1 609/138/1
f 610/137/1 611/138/1 612/139/1
f 613/134/1 614/136/1 615/135/1
f 616/135/1 617/136/1 618/137/1
f 619/137/1 620/136/1 621/138/1
f 622/137/1 623/138/1 624/139/1
f 625/159/2 626/160/2 627/161/2
f 628/161/2 629/160/2 630/162/2
f 631/1/4 632/3/4 633/2/4
f 634/2/4 635/3/4 636/4/4
f 637/4/4 638/3/4 639/5/4
f 640/4/4 641/5/4 642/6/4
f 643/134/4 644/135/4 645/136/4
f 646/136/4 647/135/4 648/137/4
f 649/136/4 650/137/4 651/138/4
f 652/138/4 653/137/4 654/139/4
f 655/134/1 656/136/1 657/135/1
f 658/135/1 659/136/1 660/137/1
f 661/137/1 662/136/1 663/138/1
f 664/137/1 665/138/1 666/139/1
f 667/134/4 668/135/4 669/136/4
f 670/136/4 671/135/4 672/137/4
f 673/136/4 674/137/4 675/138/4
f 676/138/4 677/137/4 678/139/4
f 679/134/1 680/136/1 681/135/1
f 682/135/1 683/136/1 684/137/1
f 685/137/1 686/136/1 687/138/1
f 688/137/1 689/138/1 690/139/1
f 691/163/2 692/164/2 693/165/2
f 694/165/2 695/164/2 696/166/2
f 697/167/2 698/168/2 699/169/2
f 700/169/2 701/168/2 702/170/2
f 703/171/3 704/172/3 705/173/3
f 706/173/3 707/172/3 708/174/3
f 709/175/3 710/176/3 711/177/3
f 712/177/3 713/176/3 714/178/3
f 715/179/3 716/180/3 717/181/3
f 718/181/3 719/180/3 720/182/3
f 721/183/5 722/184/5 723/79/5
f 724/79/5 725/184/5 726/185/5
f 727/186/3 728/159/3 729/183/3
f 730/183/3 731/159/3 732/161/3
f 733/1/1 734/2/1 735/3/1
f 736/3/1 737/2/1 738/4/1
f 739/3/1 740/4/1 741/5/1
f 742/5/1 743/4/1 744/6/1
f 745/187/5 746/188/5 747/186/5
f 748/186/5 749/188/5 750/189/5
f 751/1/4 752/3/4 753/2/4
f 754/2/4 755/3/4 756/4/4
f 757/4/4 758/3/4 759/5/4
f 760/4/4 761/5/4 762/6/4
f 763/190/3 764/191/3 765/187/3
f 766/187/3 767/191/3 768/192/3
f 769/1/1 770/2/1 771/3/1
f 772/3/1 773/2/1 774/4/1
f 775/3/1 776/4/1 777/5/1
f 778/5/1 779/4/1 780/6/1
f 781/193/5 782/194/5 783/190/5
f 784/190/5 785/194/5 786/195/5
f 787/191/2 788/196/2 789/192/2
f 790/192/2 791/196/2 792/197/2
f 793/198/7 794/199/7 795/200/7
f 796/200/7 797/199/7 798/201/7
f 799/202/7 800/203/7 801/204/7
f 802/204/7 803/203/7 804/205/7
f 805/206/7 806/207/7 807/208/7
f 808/208/7 809/207/7 810/209/7
f 811/210/7 812/211/7 813/212/7
f 814/212/7 815/211/7 816/213/7
f 817/214/7 818/215/7 819/216/7
f 820/216/7 821/215/7 822/217/7
f 823/218/7 824/219/7 825/220/7
f 826/220/7 827/219/7 828/221/7
f 829/222/7 830/223/7 831/224/7
f 832/224/7 833/223/7 834/225/7
f 835/226/7 836/227/7 837/228/7
f 838/228/7 839/227/7 840/229/7
f 841/230/7 842/231/7 843/232/7
f 844/232/7 845/231/7 846/233/7
f 847/234/7 848/235/7 849/236/7
f 850/236/7 851/235/7 852/237/7
f 853/238/5 854/239/5 855/240/5
f 856/240/5 857/239/5 858/241/5
f 859/242/5 860/243/5 861/244/5
f 862/244/5 863/243/5 864/245/5
f 865/154/3 866/20/3 867/238/3
f 868/238/3 869/20/3 870/18/3
f 871/134/4 872/135/4 873/136/4
f 874/136/4 875/135/4 876/137/4
f 877/136/4 878/137/4 879/138/4
f 880/138/4 881/137/4 882/139/4
f 883/246/7 884/247/7 885/248/7
f 886/248/7 887/247/7 888/249/7
f 889/249/7 890/247/7 891/90/7
f 892/249/7 893/90/7 894/95/7
f 895/247/7 896/250/7 897/90/7
f 898/90/7 899/250/7 900/251/7
f 901/90/7 902/251/7 903/252/7
f 904/250/7 905/253/7 906/251/7
f 907/251/7 908/253/7 909/254/7
f 910/90/7 911/252/7 912/255/7
f 913/255/7 914/252/7 915/256/7
f 916/255/7 917/256/7 918/257/7
f 919/255/7 920/258/7 921/90/7
f 922/90/7 923/258/7 924/259/7
f 925/90/7 926/259/7 927/260/7
f 928/258/7 929/261/7 930/259/7
f 931/259/7 932/261/7 933/262/7
f 934/90/7 935/260/7 936/263/7
f 937/263/7 938/260/7 939/264/7
f 940/263/7 941/264/7 942/265/7
f 943/263/7 944/266/7 945/90/7
f 946/90/7 947/266/7 948/267/7
f 949/267/7 950/266/7 951/268/7
f 952/269/7 953/270/7 954/95/7
f 955/95/7 956/270/7 957/271/7
f 958/95/7 959/271/7 960/272/7
f 961/270/7 962/273/7 963/271/7
f 964/271/7 965/273/7 966/274/7
f 967/95/7 968/272/7 969/275/7
f 970/275/7 971/272/7 972/276/7
f 973/275/7 974/276/7 975/277/7
f 976/275/7 977/278/7 978/95/7
f 979/95/7 980/278/7 981/279/7
f 982/95/7 983/279/7 984/280/7
f 985/278/7 986/281/7 987/279/7
f 988/279/7 989/281/7 990/282/7
f 991/95/7 992/280/7 993/283/7
f 994/283/7 995/280/7 996/284/7
f 997/283/7 998/284/7 999/285/7
f 1000/283/7 1001/286/7 1002/95/7
f 1003/95/7 1004/286/7 1005/287/7
f 1006/95/7 1007/287/7 1008/249/7
f 1009/286/7 1010/288/7 1011/287/7
f 1012/287/7 1013/288/7 1014/289/7
f 1015/134/4 1016/135/4 1017/136/4
f 1018/136/4 1019/135/4 1020/137/4
f 1021/136/4 1022/137/4 1023/138/4
f 1024/138/4 1025/137/4 1026/139/4
f 1027/134/1 1028/136/1 1029/135/1
f 1030/135/1 1031/136/1 1032/137/1
f 1033/137/1 1034/136/1 1035/138/1
f 1036/137/1 1037/138/1 1038/139/1
f 1039/134/4 1040/135/4 1041/136/4
f 1042/136/4 1043/135/4 1044/137/4
f 1045/136/4 1046/137/4 1047/138/4
f 1048/138/4 1049/137/4 1050/139/4
f 1051/134/1 1052/136/1 1053/135/1
f 1054/135/1 1055/136/1 1056/137/1
f 1057/137/1 1058/136/1 1059/138/1
f 1060/137/1 1061/138/1 1062/139/1
f 1063/290/3 1064/163/3 1065/291/3
f 1066/291/3 1067/163/3 1068/165/3
f 1069/134/4 1070/135/4 1071/136/4
f 1072/136/4 1073/135/4 1074/137/4
f 1075/136/4 1076/137/4 1077/138/4
f 1078/138/4 1079/137/4 1080/139/4
f 1081/134/1 1082/136/1 1083/135/1
f 1084/135/1 1085/136/1 1086/137/1
f 1087/137/1 1088/136/1 1089/138/1
f 1090/137/1 1091/138/1 1092/139/1
f 1093/173/2 1094/292/2 1095/171/2
f 1096/171/2 1097/292/2 1098/293/2
f 1099/176/2 1100/294/2 1101/178/2
f 1102/178/2 1103/294/2 1104/295/2
f 1105/180/2 1106/296/2 1107/182/2
f 1108/182/2 1109/296/2 1110/297/2
f 1111/1/4 1112/3/4 1113/2/4
f 1114/2/4 1115/3/4 1116/4/4
f 1117/4/4 1118/3/4 1119/5/4
f 1120/4/4 1121/5/4 1122/6/4
f 1123/298/3 1124/299/3 1125/193/3
f 1126/193/3 1127/299/3 1128/300/3
f 1129/1/1 1130/2/1 1131/3/1
f 1132/3/1 1133/2/1 1134/4/1
f 1135/3/1 1136/4/1 1137/5/1
f 1138/5/1 1139/4/1 1140/6/1
f 1141/301/5 1142/302/5 1143/298/5
f 1144/298/5 1145/302/5 1146/303/5
f 1147/1/4 1148/3/4 1149/2/4
f 1150/2/4 1151/3/4 1152/4/4
f 1153/4/4 1154/3/4 1155/5/4
f 1156/4/4 1157/5/4 1158/6/4
f 1159/304/3 1160/305/3 1161/301/3
f 1162/301/3 1163/305/3 1164/306/3
f 1165/1/1 1166/2/1 1167/3/1
f 1168/3/1 1169/2/1 1170/4/1
f 1171/3/1 1172/4/1 1173/5/1
f 1174/5/1 1175/4/1 1176/6/1
f 1177/12/5 1178/307/5 1179/304/5
f 1180/304/5 1181/307/5 1182/308/5
f 1183/299/2 1184/309/2 1185/300/2
f 1186/300/2 1187/309/2 1188/310/2
f 1189/305/2 1190/311/2 1191/306/2
f 1192/306/2 1193/311/2 1194/312/2
f 1195/240/3 1196/13/3 1197/242/3
f 1198/242/3 1199/13/3 1200/15/3
f 1201/244/3 1202/167/3 1203/313/3
f 1204/313/3 1205/167/3 1206/169/3
f 1207/313/5 1208/314/5 1209/290/5
f 1210/290/5 1211/314/5 1212/315/5
f 1213/291/5 1214/316/5 1215/179/5
f 1216/179/5 1217/316/5 1218/317/5
f 1219/181/5 1220/318/5 1221/175/5
f 1222/175/5 1223/318/5 1224/319/5
f 1225/177/5 1226/320/5 1227/174/5
f 1228/174/5 1229/320/5 1230/321/5
f 1231/150/2 1232/146/2 1233/52/2
f 1234/52/2 1235/146/2 1236/50/2
f 1237/50/2 1238/146/2 1239/145/2
f 1240/50/2 1241/145/2 1242/40/2
f 1243/40/2 1244/145/2 1245/38/2
f 1246/38/2 1247/145/2 1248/142/2
f 1249/38/2 1250/142/2 1251/140/2
f 1252/141/2 1253/54/2 1254/140/2
f 1255/140/2 1256/54/2 1257/37/2
f 1258/140/2 1259/37/2 1260/38/2
f 1261/141/2 1262/158/2 1263/54/2
f 1264/54/2 1265/158/2 1266/57/2
f 1267/57/2 1268/158/2 1269/60/2
f 1270/60/2 1271/158/2 1272/155/2
f 1273/60/2 1274/155/2 1275/153/2
f 1276/154/2 1277/70/2 1278/153/2
f 1279/153/2 1280/70/2 1281/63/2
f 1282/153/2 1283/63/2 1284/60/2
f 1285/154/2 1286/238/2 1287/70/2
f 1288/70/2 1289/238/2 1290/73/2
f 1291/73/2 1292/238/2 1293/76/2
f 1294/76/2 1295/238/2 1296/240/2
f 1297/76/2 1298/240/2 1299/242/2
f 1300/244/2 1301/183/2 1302/242/2
f 1303/242/2 1304/183/2 1305/79/2
f 1306/242/2 1307/79/2 1308/76/2
f 1309/244/2 1310/313/2 1311/183/2
f 1312/183/2 1313/313/2 1314/186/2
f 1315/186/2 1316/313/2 1317/187/2
f 1318/187/2 1319/313/2 1320/290/2
f 1321/187/2 1322/290/2 1323/291/2
f 1324/179/2 1325/193/2 1326/291/2
f 1327/291/2 1328/193/2 1329/190/2
f 1330/291/2 1331/190/2 1332/187/2
f 1333/179/2 1334/181/2 1335/193/2
f 1336/193/2 1337/181/2 1338/298/2
f 1339/298/2 1340/181/2 1341/301/2
f 1342/301/2 1343/181/2 1344/175/2
f 1345/301/2 1346/175/2 1347/177/2
f 1348/174/2 1349/12/2 1350/177/2
f 1351/177/2 1352/12/2 1353/304/2
f 1354/177/2 1355/304/2 1356/301/2
f 1357/174/2 1358/172/2 1359/12/2
f 1360/12/2 1361/172/2 1362/11/2
f 1363/322/7 1364/323/7 1365/324/7
f 1366/324/7 1367/323/7 1368/325/7
f 1369/71/2 1370/83/2 1371/72/2
f 1372/72/2 1373/83/2 1374/68/2
f 1375/61/2 1376/69/2 1377/62/2
f 1378/62/2 1379/69/2 1380/66/2
f 1381/82/2 1382/78/2 1383/85/2
f 1384/85/2 1385/78/2 1386/77/2
f 1387/55/2 1388/67/2 1389/56/2
f 1390/56/2 1391/67/2 1392/34/2
f 1393/84/2 1394/185/2 1395/162/2
f 1396/162/2 1397/185/2 1398/184/2
f 1399/39/2 1400/36/2 1401/41/2
f 1402/41/2 1403/36/2 1404/47/2
f 1405/160/2 1406/189/2 1407/197/2
f 1408/197/2 1409/189/2 1410/188/2
f 1411/53/2 1412/49/2 1413/51/2
f 1414/51/2 1415/49/2 1416/326/2
f 1417/196/2 1418/195/2 1419/310/2
f 1420/310/2 1421/195/2 1422/194/2
f 1423/309/2 1424/303/2 1425/312/2
f 1426/312/2 1427/303/2 1428/302/2
f 1429/307/2 1430/10/2 1431/308/2
f 1432/308/2 1433/10/2 1434/311/2
f 1435/134/1 1436/136/1 1437/135/1
f 1438/135/1 1439/136/1 1440/137/1
f 1441/137/1 1442/136/1 1443/138/1
f 1444/137/1 1445/138/1 1446/139/1
f 1447/134/4 1448/135/4 1449/136/4
f 1450/136/4 1451/135/4 1452/137/4
f 1453/136/4 1454/137/4 1455/138/4
f 1456/138/4 1457/137/4 1458/139/4
f 1459/320/2 1460/295/2 1461/321/2
f 1462/321/2 1463/295/2 1464/292/2
f 1465/318/2 1466/297/2 1467/319/2
f 1468/319/2 1469/297/2 1470/294/2
f 1471/316/2 1472/166/2 1473/317/2
f 1474/317/2 1475/166/2 1476/296/2
f 1477/314/2 1478/170/2 1479/315/2
f 1480/315/2 1481/170/2 1482/164/2
f 1483/243/2 1484/16/2 1485/245/2
f 1486/245/2 1487/16/2 1488/168/2
f 1489/239/2 1490/17/2 1491/241/2
f 1492/241/2 1493/17/2 1494/14/2
f 1495/327/6 1496/328/6 1497/329/6
f 1498/329/6 1499/328/6 1500/330/6
f 1501/331/6 1502/332/6 1503/333/6
f 1504/333/6 1505/332/6 1506/334/6
f 1507/335/6 1508/336/6 1509/337/6
f 1510/337/6 1511/336/6 1512/338/6
f 1513/339/6 1514/340/6 1515/341/6
f 1516/341/6 1517/340/6 1518/342/6
f 1519/343/6 1520/344/6 1521/345/6
f 1522/345/6 1523/344/6 1524/346/6
f 1525/347/6 1526/348/6 1527/349/6
f 1528/349/6 1529/348/6 1530/350/6
f 1531/351/6 1532/352/6 1533/353/6
f 1534/353/6 1535/352/6 1536/354/6
f 1537/355/6 1538/356/6 1539/357/6
f 1540/357/6 1541/356/6 1542/358/6
f 1543/359/6 1544/360/6 1545/361/6
f 1546/361/6 1547/360/6 1548/362/6
f 1549/363/6 1550/364/6 1551/365/6
f 1552/365/6 1553/364/6 1554/366/6
f 1555/367/6 1556/368/6 1557/369/6
f 1558/369/6 1559/368/6 1560/370/6
